<?xml version="1.0" encoding="UTF-8"?>
<svg width="404px" height="554px" viewBox="0 0 404 554" version="1.1" xmlns="http://www.w3.org/2000/svg" xmlns:xlink="http://www.w3.org/1999/xlink">
    <!-- Generator: Sketch 45.1 (43504) - http://www.bohemiancoding.com/sketch -->
    <title>Group 4</title>
    <desc>Created with Sketch.</desc>
    <defs>
        <linearGradient x1="100.469386%" y1="0.540816784%" x2="2.04591788%" y2="99.9387741%" id="linearGradient-1">
            <stop stop-color="#1EB6D5" offset="0%"></stop>
            <stop stop-color="#7B6DD7" offset="100%"></stop>
        </linearGradient>
        <polygon id="path-2" points="0.000128563053 0.631525362 198.241153 0.631525362 198.241153 423.692863 0.000128563053 423.692863"></polygon>
        <polygon id="path-4" points="0.0029760438 0 137.030768 0 137.030768 553.605696 0.0029760438 553.605696"></polygon>
    </defs>
    <g id="Web" stroke="none" stroke-width="1" fill="none" fill-rule="evenodd">
        <g id="Hello-world-story" transform="translate(-262.000000, -3016.000000)">
            <g id="Group-4" transform="translate(262.000000, 3016.000000)">
                <g id="Group" transform="translate(276.000000, 79.000000)">
                    <path d="M80.4094194,50.147445 C72.8846428,51.0073069 57.8866291,50.9020972 57.8866291,50.9020972 C62.0097944,46.9969992 62.23863,40.5110166 62.4674657,38.1301602 C62.6963014,35.7486544 62.23863,31.6357348 61.3226002,27.7390796 C61.7816459,27.6598476 62.224199,27.5741212 62.6433874,27.485797 C63.9765442,28.9970498 67.1582534,30.7401536 73.9243676,32.4845562 C81.483504,34.4328838 82.8578924,40.602588 97.2889708,42.8756369 C93.1658056,43.8498007 89.6604279,49.090802 80.4094194,50.147445 M100.724942,28.2631797 C94.540194,25.9901308 93.1658056,25.9901308 90.0734316,26.9642946 C86.9810576,27.9384584 85.2630721,24.6912457 72.2063821,25.015967 C68.5821198,25.1055901 66.1260877,25.1711838 64.4864423,25.2530135 L61.0930773,21.8940967 C61.0930773,21.8940967 60.8642416,20.5952116 62.0097944,18.2137058 C63.1546599,15.8328495 67.3410471,14.2741874 67.7368709,10.204131 C68.1952295,5.48593093 67.3932738,3.38498431 62.81175,1.43665669 C58.2302262,-0.511670933 49.9838957,0.787214148 45.1735362,2.95180614 C40.3631767,5.11704757 22.3174567,16.8797509 20.5486188,21.8940967 C18.4870361,27.7390796 28.9097108,26.4401945 28.9097108,26.4401945 C28.9097108,26.4401945 29.8257406,28.3885221 30.0552635,31.418821 C29.3680693,31.6350854 27.4205609,30.8778354 27.8789194,35.0992119 C28.0905752,37.0494878 30.6276963,41.3773729 31.5444134,40.5110166 C31.773249,41.3767235 31.773249,45.2740282 31.3148905,48.0880627 C30.8572191,50.9027467 11.5580569,59.4494105 8.63748149,60.6437353 C5.71828048,61.8380602 -4.19037287,92.1131231 1.99437504,121.908248 C3.46222188,128.980028 10.6990641,135.763455 11.1574227,141.192145 C11.615094,146.621485 13.2190053,154.596639 12.7606468,157.843852 C12.3029754,161.091065 12.7606468,216.726859 12.3022882,221.272957 C11.8439297,225.819054 10.2407056,265.002521 10.6990641,274.094716 C11.1574227,283.186912 12.7606468,289.57288 12.7606468,289.57288 C12.7606468,289.57288 13.447841,293.902064 15.5094236,295.417863 C17.5710062,296.933662 19.1749175,297.149277 20.7781416,297.582455 C21.9230072,299.963961 28.1077551,301.371303 34.9796972,302.837744 C39.3179543,303.763849 43.913222,302.453274 43.913222,302.453274 C43.913222,302.453274 44.1427449,300.288682 43.2260278,300.288682 C43.2260278,297.907176 41.1644451,295.742584 39.561221,292.92855 C37.9579969,290.114515 38.1868326,287.083567 37.9579969,283.403176 C37.7284741,279.722785 35.8964143,272.362653 34.2931902,265.868228 C32.6899661,259.373802 34.9803844,257.858653 36.3547728,254.394526 C37.7291613,250.9304 39.7907439,245.519244 40.2484153,239.241083 C40.7067738,232.962922 45.7459689,218.458922 45.7459689,218.458922 C45.7459689,218.458922 48.2659101,236.427049 48.0370745,241.189411 C47.8082388,245.951773 47.5787159,263.270457 48.9531043,266.084492 C50.3274928,268.898526 50.0986571,277.341929 50.0986571,277.341929 C50.0986571,277.341929 49.7543728,286.650389 52.0454783,288.165538 C54.3358966,289.680688 59.6046146,291.412751 59.6046146,291.412751 L60.2918088,289.897602 C60.2918088,289.897602 72.432469,295.171724 77.5864256,295.52632 C86.2333903,296.121209 88.4667715,294.497603 88.4667715,294.497603 C88.4667715,294.497603 88.3478869,290.473657 85.0308005,289.626784 C78.674254,288.003178 74.573079,283.132359 74.573079,283.132359 C74.573079,283.132359 74.8376487,277.991371 73.2344246,273.445274 C71.6312005,268.899176 71.6305133,255.693411 72.3177075,245.735509 C73.0049018,235.777606 74.0748632,234.344287 76.4408728,229.932623 C80.7358366,221.922399 79.647321,168.992832 79.1896497,159.251194 C79.1896497,159.251194 92.7205037,140.478408 92.8785584,128.402673 C93.1060197,110.974233 89.3683703,95.1135476 85.0445444,83.0430086 C101.867746,73.5319226 127.870488,59.6234611 127.869113,47.7464559 C127.869113,41.8923809 106.90969,30.5362286 100.724942,28.2631797 Z" id="Fill-1" fill="url(#linearGradient-1)"></path>
                    <path d="M23.5836807,156.597961 L23.5836807,176.514416 C23.5836807,178.251675 28.3940402,178.097107 28.3940402,176.514416 L28.3940402,156.597961 C28.3940402,156.597961 26.3324576,158.329375 23.5836807,156.597961" id="Fill-6" fill="#FFFFFF"></path>
                    <path d="M23.5836807,190.152709 L23.5836807,210.069164 C23.5836807,211.806422 28.3940402,211.651855 28.3940402,210.069164 L28.3940402,190.152709 C28.3940402,190.152709 26.3324576,191.884123 23.5836807,190.152709" id="Fill-8" fill="#FFFFFF"></path>
                </g>
                <g id="Page-1" transform="translate(91.000000, 28.000000)">
                    <g id="Group-3" transform="translate(0.000000, 0.260460)">
                        <mask id="mask-3" fill="white">
                            <use xlink:href="#path-2"></use>
                        </mask>
                        <g id="Clip-2"></g>
                        <path d="M196.920192,146.803868 C194.09173,145.316929 190.948365,145.61396 188.119903,146.208914 C185.29144,146.803868 181.835059,145.911883 178.377735,145.911883 C174.920412,145.911883 169.893291,147.694961 167.692747,149.1819 C161.406961,145.019898 151.350834,141.154035 146.95069,135.802126 C142.550545,130.450216 138.465303,126.288214 138.465303,126.288214 C138.465303,126.288214 156.063996,109.934561 163.292603,103.690666 C170.52121,97.4467717 188.433862,81.6889651 189.062724,79.9049952 C189.691585,78.1210252 187.491984,74.2560543 184.663522,73.0661464 C181.835059,71.8771304 181.206198,73.0661464 175.549273,78.1210252 C169.892348,83.1750121 131.236695,117.665395 131.236695,117.665395 C131.236695,117.665395 129.979915,102.500759 127.151453,96.5547867 C124.322991,90.6088149 122.752251,84.958982 123.38017,81.3910421 C124.008088,77.8231022 127.465412,68.9032525 127.465412,68.9032525 L105.544829,62.4363614 C105.544829,62.4363614 104.509611,59.0539544 107.076912,60.0949009 C111.201753,61.7673727 114.855184,59.5374103 115.208742,55.5234779 C115.417105,53.1534738 114.618536,51.3133088 115.915857,50.7290587 C118.390762,49.6140774 117.094383,47.7935361 117.094383,47.7935361 C117.094383,47.7935361 118.822574,47.6445746 118.980025,46.4555586 C119.137476,45.2656507 118.193713,43.9285652 118.980025,43.3336112 C119.766338,42.7386573 122.515603,44.1506695 123.501794,41.2945336 C123.899664,40.1447649 122.751308,38.2787324 122.437349,36.7917934 C122.12339,35.3057465 121.493585,32.778753 121.808487,31.7378066 C122.12339,30.6968601 123.06621,29.9538366 123.85158,28.6158592 C124.63695,27.2778817 124.129712,25.1058983 124.322991,20.4390329 C124.872655,7.13329304 107.867939,2.39774481 96.9811873,0.815363465 C89.5263033,-0.269290264 83.466794,3.64027988 80.3243723,7.35628928 C77.1819505,11.0731907 74.6674475,18.35714 74.3534882,27.1289202 C74.0395288,35.8998085 71.8389851,40.9546873 71.8389851,40.9546873 C71.8389851,40.9546873 71.0526725,40.7753983 69.7176383,42.3666995 C69.7176383,42.3666995 66.1820603,46.6036281 64.7678291,48.1646019 C63.3535979,49.7255756 55.3396211,51.2865493 50.1541067,52.847523 C44.9685923,54.4084967 37.1903207,53.7395079 31.0619855,58.4224291 C24.9336503,63.1053502 18.8053151,74.7011548 18.3339047,78.2690947 C17.8624943,81.8370346 10.0842227,100.345723 8.43428631,104.582651 C6.78434991,108.81958 1.37915827,121.310046 0.184604313,127.997257 C-2.59106012,143.532959 26.8192919,155.425795 30.3548699,158.547742 C30.0984226,161.943529 29.843861,165.926242 29.6769817,169.962474 C27.6282321,178.73247 25.0703593,189.914394 25.5408269,194.141511 C26.3092258,201.034771 30.5217492,231.134804 29.7590072,275.74208 C28.9906082,320.349357 30.9073629,339.937347 32.4394467,346.824363 C33.9753018,353.716731 32.8231748,369.562844 32.769434,372.338701 C32.3875915,391.952559 33.6547427,399.383685 36.4832051,408.303535 C36.7387095,409.108106 43.4101095,409.4426 44.0474564,410.087505 C64.789514,431.049152 85.4052336,421.542376 85.4052336,421.542376 C85.4052336,421.542376 86.34994,419.824413 85.4052336,418.561362 C84.8150277,417.771064 85.9558409,417.000389 85.2232691,415.013046 C83.3593124,409.958167 75.6630662,410.681567 68.1204998,399.234724 C68.0394173,383.502785 71.8389851,365.934249 71.8389851,365.934249 L79.252385,277.127333 C82.3203239,291.273323 93.1448495,391.701911 93.1448495,391.701911 L93.1448495,394.865782 C93.1448495,396.335773 93.9830172,398.257108 98.1644274,399.273971 C102.343009,400.291726 108.674994,401.425439 108.674994,401.425439 C108.674994,401.425439 113.027055,398.345415 115.418991,400.944659 C117.806213,403.543011 127.092055,407.539104 137.843041,409.121485 C148.594969,410.705651 154.926954,408.10819 156.121508,406.521349 C157.31889,404.940752 155.287111,402.792852 155.287111,402.792852 C155.287111,402.792852 154.926954,399.737803 152.896118,398.268704 C150.86811,396.798713 140.950578,391.263054 138.563356,390.129341 C136.17142,389.00098 130.177908,383.112096 130.177908,383.112096 C130.177908,383.112096 126.742269,378.739585 125.592027,376.929748 C124.442729,375.110098 125.003707,241.651306 119.457092,199.764584 C119.341125,198.891331 119.467463,197.269702 119.330754,195.28682 C127.48804,199.438118 135.007979,201.809014 135.007979,201.809014 C135.007979,201.809014 134.628965,174.572252 134.753417,159.883936 L153.172364,168.211508 C153.172364,168.211508 158.64261,165.062801 162.664684,160.903475 C164.340077,161.834707 166.017355,162.918469 167.692747,164.345645 C170.835169,167.0216 173.977591,166.427538 176.492094,165.535553 C179.006597,164.643568 180.577336,164.643568 183.091839,164.643568 C185.606342,164.643568 186.234261,163.155737 188.119903,162.561675 C190.005544,161.967613 191.263267,160.777705 193.148909,159.588689 C195.03455,158.399673 195.033608,157.729792 194.719648,154.199316 C194.09173,150.668839 192.519105,149.777746 191.891186,151.263793 C191.263267,152.74984 190.948365,156.31778 190.005544,156.31778 C189.062724,156.31778 187.805943,151.857855 187.805943,151.857855 L189.062724,150.371808 C189.062724,150.371808 192.202317,149.1819 194.875214,149.776854 C197.548111,150.371808 199.748654,148.290807 196.920192,146.803868" id="Fill-1" fill="url(#linearGradient-1)" mask="url(#mask-3)"></path>
                    </g>
                    <path d="M39.8268248,388.492549 C40.7639887,377.414988 41.1826011,368.430023 40.1454982,344.564073 C39.7419709,335.269589 39.7513991,315.550478 40.5113127,300.10665 C41.2872542,284.327436 40.9280395,280.213601 40.1454982,272.536286 C39.6354322,267.534926 39.5873483,247.558031 40.1605833,235.12376 C40.4226875,229.435572 40.6301081,224.941752 40.5565681,222.878591 C40.4490865,219.812838 39.657117,216.083449 38.8180065,212.134632 C37.8101311,207.391056 36.7683141,202.485138 37.0191044,198.927902 C37.2510384,195.63737 39.0631399,189.653934 40.7847307,184.57854 C39.9522199,183.900631 39.1913636,183.234319 38.4899049,182.581386 C36.6146343,188.01179 34.4668885,194.919322 34.1972418,198.750397 C33.9209953,202.662643 35.0005251,207.746066 36.0451706,212.662687 C36.8607105,216.499114 37.6300523,220.122357 37.7299913,222.967789 C37.7997601,224.928372 37.5838541,229.598806 37.3340066,235.007802 C36.7174018,248.400065 35.8302074,264.809912 36.6400905,273.725302 C36.9342506,276.9641 38.3164259,287.158596 37.6856787,299.981772 C36.9201083,315.559397 37.2340676,333.094038 37.7281057,342.670389 C39.0027994,367.383724 39.1215948,377.407852 38.2023445,388.280256 C37.2491527,399.554055 40.2388375,420.807381 40.3670611,421.200746 L41.8765172,420.414907 C41.8463469,420.323925 38.9160599,399.263267 39.8268248,388.492549" id="Fill-4" fill="#FFFFFF"></path>
                    <path d="M43.978819,389.68772 C44.9159829,378.610158 46.3330426,363.086052 45.6494975,341.516963 C45.3553374,332.218912 45.7447224,316.745648 46.5036931,301.30182 C47.2796346,285.522606 46.8751645,275.854381 46.4527808,272.293577 C45.4929892,264.214869 45.5797287,248.753202 46.1529638,236.318931 C46.415068,230.630743 46.6224885,226.136923 46.5498913,224.073761 C46.4414669,221.008009 45.6494975,217.27862 44.810387,213.329802 C43.8025115,208.586226 42.7606945,203.680309 43.0114849,200.123073 C43.2038203,197.390031 44.4888851,192.798092 45.9040591,188.41131 C45.0517491,187.83598 44.2512942,187.263325 43.4979804,186.697807 C41.9225269,191.500254 40.4130708,196.776345 40.1896222,199.945568 C39.9133757,203.857814 40.9929055,208.941236 42.037551,213.857857 C42.853091,217.694285 43.6224328,221.317528 43.7233146,224.16296 C43.7921405,226.123543 43.0774823,241.611078 43.3273298,236.202973 C43.6403463,229.415859 42.9058889,265.130938 43.7798838,273.169506 C44.3889461,278.772064 44.3088063,288.353767 43.6780592,301.176943 C42.9124887,316.754568 42.0592359,331.195805 42.5070757,340.77394 C43.5441786,362.924602 42.5862727,378.603022 41.6670224,389.475427 C40.7138306,400.749225 43.7035153,422.002551 43.831739,422.395917 L46.535749,421.610078 C46.5055788,421.519095 43.0680541,400.458438 43.978819,389.68772" id="Fill-6" fill="#FFFFFF"></path>
                </g>
                <g id="Page-1-Copy-2" transform="translate(68.616933, 277.000000) scale(-1, 1) translate(-68.616933, -277.000000) ">
                    <mask id="mask-5" fill="white">
                        <use xlink:href="#path-4"></use>
                    </mask>
                    <g id="Clip-2"></g>
                    <path d="M136.182778,101.615033 C138.314567,88.9776895 136.791861,74.9065151 127.397052,72.9820189 C117.996498,71.0629746 112.692884,72.8348195 112.692884,72.8348195 C112.692884,72.8348195 105.297704,63.7575218 104.631161,63.4631229 C103.964618,63.1632723 102.545341,64.8042732 102.545341,64.8042732 C102.545341,64.8042732 102.539595,64.7115921 102.499373,64.5862 C102.487881,64.5971037 102.470643,64.6080073 102.45915,64.618911 C102.367213,64.2154756 101.982227,63.7248108 101.126064,63.4903821 C100.109012,63.2068869 99.1436737,63.299568 98.7357034,63.4794784 C98.7471955,63.4740266 98.7586876,63.4631229 98.7701797,63.4576711 C98.6724967,63.4849303 98.6092901,63.5067376 98.6092901,63.5067376 C98.6092901,63.5067376 96.1557223,55.1599851 96.7073441,53.9551306 C97.2589659,52.7557279 98.218558,50.3569225 99.4539609,48.219805 C100.69511,46.0826874 102.539595,48.0671537 104.901226,45.9191325 C107.262857,43.7765631 106.671013,40.5926941 107.636351,38.7281681 C108.601689,36.8581903 108.297148,34.2031488 108.009845,32.878354 C107.716796,31.5481074 107.015776,31.0247317 107.285841,29.9561729 C107.555906,28.8930659 109.377407,28.8767104 108.09029,26.2325727 C106.808918,23.5829831 106.377964,22.7924676 105.251736,22.138248 C104.131254,21.4785765 103.843951,20.818905 102.441912,20.8298087 C101.04562,20.8407123 101.057112,21.9038193 100.177965,18.1856709 C99.3103094,14.4784262 95.7534981,8.25788761 93.2194855,6.81315254 C90.6854729,5.37386929 85.8875125,0.189178517 75.1079034,-0.00163554914 C68.2873298,-0.110672159 61.6391381,4.2835032 57.8122619,5.12308509 C53.9796397,5.96266698 49.1816793,10.0406362 48.9116145,11.7961256 C48.6472957,13.5570668 48.0956739,15.4434002 48.0956739,15.4434002 C48.0956739,15.4434002 46.3948401,16.2720784 45.7053129,18.8344387 C45.0215317,21.4022509 45.3318189,25.1749176 45.9179171,26.5215197 C46.4982692,27.86267 46.9234776,28.1298097 46.9234776,28.1298097 C46.9234776,28.1298097 46.8028104,30.9647615 47.1016055,32.4422076 C47.4004006,33.9251055 47.434877,35.5715583 47.1360819,36.2148743 C46.8430328,36.8581903 46.4005862,37.6487057 46.481031,38.3574436 C46.5557298,39.0716334 47.4693534,39.4914244 47.4693534,39.4914244 C47.4693534,39.4914244 47.7796406,41.208751 48.4002151,42.4190573 C49.0092975,43.6239119 49.3195848,44.4798493 49.244886,45.194039 C49.1759333,45.9082288 48.4576757,49.9153242 50.5320035,54.1841075 C52.5948392,58.4528907 55.6517432,63.7139072 56.7952092,65.2731307 C57.9386752,66.8323542 60.3807509,70.8176423 61.6736144,72.660361 C62.9722241,74.5085315 65.0063294,75.3535652 67.7127238,74.6884419 C70.4191182,74.0233186 71.0109624,73.6634978 71.0109624,73.6634978 L72.1314442,75.489861 C72.1774127,75.5770903 72.2348733,75.7024824 72.2865878,75.8169708 C72.1256981,75.9423629 65.9256991,80.72907 63.5698143,83.3568523 C61.1851993,86.0227974 60.5991012,87.5983764 60.7599908,88.9504304 C60.8002133,89.2775402 60.8174514,89.6809757 60.8231975,90.0953148 C60.8346896,91.376495 60.7140224,92.8103264 60.7140224,92.8103264 C60.7140224,92.8103264 60.5761169,93.5245162 58.0995649,94.6148823 C55.6230129,95.7052483 54.4278324,96.6429632 51.8018828,97.7333293 C49.1759333,98.8236954 48.4346915,99.4015894 45.8834407,100.491955 C43.33219,101.582322 40.1086501,103.463203 38.6434047,108.113614 C37.1839054,112.769478 35.9255182,118.330345 28.9842774,125.957456 C28.9842774,125.957456 27.1915066,126.06104 26.7490599,126.606223 C26.3066133,127.151406 25.6285782,128.307195 25.7205151,129.893677 C25.7205151,129.893677 24.2725079,131.556486 23.7553625,132.488749 C23.2382171,133.41556 22.0775129,135.427285 21.7902099,135.699877 C21.5086529,135.972468 19.8595336,137.215486 19.8595336,137.215486 C19.8595336,137.215486 16.8083756,136.779339 16.2395156,137.166419 C15.6764017,137.558951 14.2169024,138.185911 14.6363648,139.379862 C15.0500811,140.568361 15.8315453,141.36978 15.8315453,141.36978 L14.6995715,142.307495 C14.6995715,142.307495 13.6422964,142.08397 12.7918794,142.661864 C11.9472086,143.250662 11.2634274,144.144762 10.9818704,144.450065 C10.7003135,144.760819 10.746282,145.147899 10.746282,145.147899 C10.746282,145.147899 9.45916447,147.006973 7.75833062,147.633934 C6.05749677,148.266346 1.52960125,150.539759 0.891788559,151.771873 C0.253975865,153.01489 0.547024941,157.000178 0.282706167,158.597565 C0.0126413327,160.194951 -0.240185321,163.384272 0.432103735,166.126543 C1.11013885,168.863361 0.960741283,172.592413 3.39707085,173.808172 C5.83340042,175.029382 7.98242697,175.808993 10.6083765,176.763064 C13.2343261,177.717134 15.7625926,179.118255 18.1874301,178.48039 C20.6122675,177.837074 21.5373832,177.477254 21.5373832,177.477254 L22.7498019,177.291891 C22.7498019,177.291891 21.1006826,180.672026 21.9625917,183.321616 C22.8187547,185.971205 24.6230176,189.149623 27.8120811,190.18547 C30.9896524,191.22677 29.5071689,192.382558 29.3232949,193.009519 C29.1451671,193.631027 26.467503,208.35097 25.9503575,213.137677 C25.4332121,217.924384 19.4745476,242.419458 27.3236659,242.354036 C27.3236659,242.354036 26.662869,296.57249 27.9499865,315.697511 C29.231358,334.811629 32.3687069,373.590499 32.3687069,373.590499 C32.3687069,373.590499 37.42524,376.207378 48.0784358,377.188707 C48.0784358,377.188707 46.9464619,391.679673 47.4808455,405.625455 C48.0209752,419.571237 52.5488707,441.193197 53.4452561,447.691779 C54.3416415,454.201265 55.7953947,460.034723 55.5425681,463.758323 C55.2954875,467.476472 54.8817712,468.010751 54.6519287,474.127705 C54.4220863,480.239207 51.9685186,487.697311 51.0089265,490.101568 C50.0493344,492.494922 47.7336721,500.754445 45.7972498,502.493579 C43.8493354,504.238165 39.9362683,505.86281 37.430986,507.612848 C34.9314498,509.351982 30.0530446,512.448621 28.5188465,512.86296 C26.9789023,513.271848 21.8131941,514.503961 22.6751032,517.824126 C23.5427583,521.133387 40.4936362,521.667667 49.1644412,520.402842 C57.8352462,519.143469 58.1168031,519.143469 63.8973398,507.667366 C69.6836225,496.202166 75.9640664,493.100075 77.5097566,494.413966 C79.066939,495.727857 79.5381159,501.970203 79.5553541,503.965573 C79.5668462,505.955491 79.4921474,513.39724 79.4921474,513.39724 L80.6241213,514.449443 C80.6241213,514.449443 82.5835279,514.302244 82.4168921,511.249219 C82.2445103,508.196194 82.020414,497.695968 83.8074387,493.966916 C85.5944635,490.232412 90.0361681,485.412994 88.1686985,479.448691 C86.2897368,473.484389 80.6528516,468.746748 80.6528516,468.746748 C80.6528516,468.746748 76.6535936,459.342341 77.7108687,436.215676 C77.7970596,429.70619 78.7566517,427.176541 79.9748165,422.117242 C81.1929813,417.057944 82.5605436,413.726875 80.0552613,399.661153 C77.5614712,385.59543 76.68807,381.615594 76.68807,381.615594 L79.4864014,381.332098 C79.4864014,381.332098 84.3590605,395.239718 85.1290326,403.07945 C85.8990047,410.908279 85.3071605,424.068998 89.363879,439.579455 C93.4205976,455.095365 95.0122563,461.588495 95.368512,470.491334 C95.7247678,479.394173 93.8343139,487.113965 93.8515521,489.638163 C93.8745364,492.16236 95.7592441,499.718597 95.6385769,502.111951 C95.5236557,504.499852 94.7249533,510.218823 94.4836188,514.078719 C94.2365382,517.933163 94.5583175,522.850714 93.742377,525.778347 C92.9321825,528.70598 88.2319052,536.578423 87.2838052,540.574615 C86.3414513,544.565355 83.7499781,552.159754 88.7950191,553.053855 C93.8458061,553.942503 99.3045634,554.166028 106.837648,550.524205 C114.364987,546.876931 119.657109,543.109716 119.77203,539.658707 C119.875459,536.202247 120.139778,533.945189 120.139778,533.945189 L122.099185,533.792538 C122.099185,533.792538 122.926617,532.860275 122.782966,531.666324 C122.633568,530.466921 121.455626,523.832043 122.248582,518.647353 C123.041538,513.45721 126.609842,504.527112 126.293809,500.41098 C125.977775,496.300299 121.44988,490.750336 119.323837,487.84451 C117.197795,484.944137 114.514385,481.640327 114.893625,477.649587 C115.278611,473.658847 116.893254,465.279384 120.415589,435.354287 C123.937924,405.440093 115.79001,385.966154 111.118463,379.625676 C111.118463,379.625676 110.647286,373.645018 110.020966,349.738741 C109.394645,325.827012 107.998353,309.49878 110.7737,290.739032 C113.537555,272.099223 116.312902,254.642462 114.163875,240.358666 C114.152383,240.271437 114.135145,240.184208 114.123653,240.091527 C114.123653,240.091527 123.765542,237.627299 123.713828,231.652093 C123.656367,225.671435 107.33181,183.147157 107.33181,183.147157 L104.73459,174.402421 C104.73459,174.402421 105.521801,174.162541 106.079168,173.715491 C106.63079,173.26844 106.671013,172.516088 106.671013,172.516088 C106.671013,172.516088 107.79724,173.213922 109.187787,172.319822 C110.572588,171.425722 108.021337,166.851636 107.923654,166.410038 C107.825971,165.968439 106.734219,163.106228 106.734219,163.106228 C106.734219,163.106228 108.705118,164.98711 109.871568,165.64133 C111.043765,166.295549 112.198723,165.450516 112.198723,165.450516 C112.198723,165.450516 112.899742,165.619522 113.405395,165.041628 C113.911049,164.463734 113.100854,162.261195 112.491772,161.339835 C111.876943,160.413024 110.135887,158.085093 110.135887,158.085093 C110.135887,158.085093 108.923468,156.296892 108.49826,155.773516 C108.073051,155.244689 115.272865,145.758504 121.6395,136.403163 C127.994642,127.053274 134.05099,114.252376 136.182778,101.615033" id="Fill-1" fill="url(#linearGradient-1)" mask="url(#mask-5)"></path>
                </g>
            </g>
        </g>
    </g>
</svg>