<?xml version="1.0" encoding="UTF-8"?>
<svg width="219px" height="495px" viewBox="0 0 219 495" version="1.1" xmlns="http://www.w3.org/2000/svg" xmlns:xlink="http://www.w3.org/1999/xlink">
    <!-- Generator: Sketch 45.1 (43504) - http://www.bohemiancoding.com/sketch -->
    <title>Page 1</title>
    <desc>Created with Sketch.</desc>
    <defs>
        <linearGradient x1="0.508211097%" y1="99.4917889%" x2="100%" y2="5.55111512e-15%" id="linearGradient-1">
            <stop stop-color="#FAAE61" offset="0%"></stop>
            <stop stop-color="#E8B90E" offset="100%"></stop>
        </linearGradient>
    </defs>
    <g id="Web" stroke="none" stroke-width="1" fill="none" fill-rule="evenodd">
        <g id="Hello-world-story" transform="translate(-654.000000, -1493.000000)" fill="url(#linearGradient-1)">
            <g id="Page-1" transform="translate(654.000000, 1493.188285)">
                <path d="M41.4295439,175.552593 C41.2900787,169.53422 32.6184933,144.555331 32.6184933,144.415865 C28.4221658,155.676554 20.5918704,168.999979 20.8685513,171.733046 C21.146357,174.467239 32.3361888,197.525108 33.4991485,200.519111 C34.5597587,198.492367 41.5701338,181.569841 41.4295439,175.552593 M128.961944,167.328646 C129.134026,164.12657 121.383586,146.142309 115.15714,132.9606 C111.897703,144.725163 108.246865,160.668059 108.98918,170.55884 C109.731494,180.449621 113.981808,187.957122 116.03892,196.407137 C120.290359,188.780416 128.790987,170.528472 128.961944,167.328646 M78.4755464,0.0165356213 C69.9018116,0.429307584 57.6581179,8.74323225 53.611378,16.0775264 C49.5635135,23.4118206 52.1818599,39.9429441 51.5025294,46.421327 C50.8243237,52.9019593 45.9115501,57.7033857 44.3954285,64.9072125 C42.8770575,72.1099145 47.263338,80.443084 49.4632889,85.5144431 C36.7944513,91.2550101 23.1922213,92.6585352 19.6527298,96.1856547 C16.1121137,99.7116496 14.9120382,122.049698 13.5679987,128.208661 C12.2228345,134.368748 -0.866648072,169.598329 0.0454992362,176.014853 C0.957646544,182.432501 16.8578025,203.676198 25.2538317,216.162831 C25.9669037,226.308923 26.0984958,230.511999 27.1208656,241.373413 C28.1443601,252.234826 43.6609869,309.968915 45.4043017,324.027905 C47.1487412,338.086896 45.1534893,361.353963 47.6627379,377.224876 C50.1731113,393.095789 61.9163049,431.846866 65.0992604,444.745147 C68.2822159,457.643427 59.2912102,474.511966 59.0291506,478.150433 C58.7693405,481.7889 63.850822,494.651189 68.6713687,494.401501 C73.4907907,494.152938 79.194242,487.725168 81.7428558,483.664931 C84.2892202,479.604695 80.3617006,473.939484 79.2234847,468.096568 C78.0841441,462.252526 77.0325316,454.918232 77.5409047,446.784263 C78.0492778,438.651418 76.2396045,434.023198 75.4669224,418.664032 C74.6942403,403.305991 76.1721214,390.472944 75.672746,379.09191 C75.1756201,367.712001 70.6857409,353.320093 70.5384027,351.547536 C70.3910645,349.776103 72.8721951,337.164626 72.8721951,331.94143 C79.8623252,333.601516 104.27998,331.223859 115.356215,328.674121 C117.238995,332.739981 125.110905,341.886198 128.427702,350.14726 C131.743375,358.409448 133.464195,371.158141 138.045177,381.871091 C142.627283,392.584042 166.237389,422.210272 168.455335,433.246017 C170.316746,442.497958 166.992076,445.622428 165.827991,449.463344 C164.943962,450.88049 164.653784,452.058071 165.003572,453.212033 C165.387101,454.469469 167.163033,457.015834 167.816495,458.498214 C168.061684,459.05495 168.466583,459.891741 168.639789,460.460849 C169.094176,461.966848 169.4001,463.449228 169.527193,465.104814 C169.792627,468.584696 169.912972,472.246782 169.912972,475.775026 C169.912972,477.598196 169.882604,481.171429 169.490077,482.898998 C169.575556,483.778528 171.44034,483.743662 171.744015,483.561457 C171.426844,479.496722 171.670908,475.577075 171.780006,472.779899 C171.848613,471.027586 171.944215,469.280897 172.039816,467.537582 C172.128669,465.92586 172.063435,463.038705 173.299501,461.937605 C173.445715,461.808262 173.948464,461.550702 174.170034,461.439354 C174.932594,461.0547 175.977458,461.029957 176.895229,461.028832 C177.261887,461.028832 178.175159,461.868997 178.424847,462.118685 C185.40148,469.097568 183.877486,474.962979 188.744146,481.923866 C189.330125,482.761782 190.307506,483.024966 191.317504,483.293774 C197.106434,484.841388 212.718661,482.948485 218.494095,481.96998 C218.847257,481.725915 219.299394,480.6878 217.869876,480.305395 C214.311264,479.352758 206.975845,478.638561 204.079693,475.869502 C202.178917,474.050831 198.385239,464.334382 195.598185,457.501712 C194.908732,455.302886 194.065193,452.929729 192.793135,450.604934 C189.747396,445.035324 186.28326,438.658166 183.148668,429.831369 C180.014075,421.005698 165.239763,374.841596 162.061307,365.694255 C158.88285,356.546913 152.265002,337.453679 146.330983,320.629004 C140.39584,303.804329 123.757868,226.64184 123.757868,220.832665 C137.761747,197.11796 152.63391,171.555341 152.702518,165.278283 C152.771126,159.001225 137.760623,126.188665 135.42908,117.659919 C133.097537,109.131173 131.603785,99.4163468 129.294736,95.5169451 C126.983438,91.6164188 116.856466,90.8382377 108.752864,83.9122165 C110.768361,79.8564789 113.726497,70.2833705 113.486932,63.9736955 C113.247367,57.6628958 106.711623,48.2793632 105.552038,41.0980308 C104.391327,33.9155737 106.058161,21.0094203 101.81572,14.0215397 C97.5755286,7.03253428 87.0470318,-0.397361061 78.4755464,0.0165356213 Z" id="Fill-1"></path>
            </g>
        </g>
    </g>
</svg>