<?xml version="1.0" encoding="UTF-8"?>
<svg width="849px" height="554px" viewBox="0 0 849 554" version="1.1" xmlns="http://www.w3.org/2000/svg" xmlns:xlink="http://www.w3.org/1999/xlink">
    <!-- Generator: Sketch 45.1 (43504) - http://www.bohemiancoding.com/sketch -->
    <title>Group 6</title>
    <desc>Created with Sketch.</desc>
    <defs>
        <polygon id="path-1" points="408.315559 0.0594824264 408.315559 393.513166 0.846487665 393.513166 0.846487665 0.0594824264 408.315559 0.0594824264"></polygon>
        <linearGradient x1="0.508211097%" y1="99.4917889%" x2="100%" y2="5.55111512e-15%" id="linearGradient-3">
            <stop stop-color="#FAAE61" offset="0%"></stop>
            <stop stop-color="#E8B90E" offset="100%"></stop>
        </linearGradient>
        <linearGradient x1="100.469386%" y1="0.540816784%" x2="2.04591788%" y2="99.9387741%" id="linearGradient-4">
            <stop stop-color="#1EB6D5" offset="0%"></stop>
            <stop stop-color="#7B6DD7" offset="100%"></stop>
        </linearGradient>
        <polygon id="path-5" points="0.000128563053 0.631525362 198.241153 0.631525362 198.241153 423.692863 0.000128563053 423.692863"></polygon>
        <polygon id="path-7" points="0.0029760438 0 137.030768 0 137.030768 553.605696 0.0029760438 553.605696"></polygon>
    </defs>
    <g id="Web" stroke="none" stroke-width="1" fill="none" fill-rule="evenodd">
        <g id="Hello-world-story" transform="translate(-262.000000, -3016.000000)">
            <g id="Group-6" transform="translate(262.000000, 3016.000000)">
                <g id="Page-1-Copy-5" transform="translate(440.000000, 43.000000)">
                    <g id="Group-5" transform="translate(0.017404, 0.751530)">
                        <mask id="mask-2" fill="white">
                            <use xlink:href="#path-1"></use>
                        </mask>
                        <g id="Clip-4"></g>
                        <path d="M27.008241,167.371991 C26.9271013,168.416573 26.8279306,169.45519 26.8225213,170.501476 C26.8144073,171.499196 26.851371,172.494361 26.8793191,173.490377 C26.913578,174.553703 26.9370184,175.616178 26.8567803,176.676948 C26.7765422,177.713009 26.6422109,178.749923 26.6187706,179.791097 C26.5890194,181.232722 26.8360446,182.663271 26.8216198,184.108304 C26.8053918,185.515848 26.6972056,186.942137 26.366336,188.318156 C26.0940674,189.447088 25.6847628,190.668039 24.7750969,191.491094 C24.7516566,191.509839 24.714693,191.518359 24.6894495,191.501318 C24.1917929,191.174993 23.6445509,190.829071 23.3181891,190.357902 C22.0848661,189.332917 21.2590445,187.803533 20.8803927,186.16935 C20.7217196,185.753563 20.606321,185.320734 20.5504247,184.880238 C20.4485494,184.076779 20.6027148,183.365339 20.7217196,182.579772 C20.8317089,181.828287 20.7875329,181.09299 20.7172118,180.355137 C20.3773268,178.749923 20.2484049,177.134485 20.2835654,175.513083 C20.2736483,175.492634 20.276353,175.470482 20.2844669,175.450885 C20.4278137,169.359763 22.8187293,163.19196 24.5289733,157.314696 C24.6524859,156.660342 24.7769,156.009395 24.9112313,155.355892 C25.1122774,154.382881 25.3538933,153.403905 25.4783074,152.419817 C25.5612502,151.75609 25.5801828,151.043797 26.0877565,150.527471 C26.1256217,150.491686 26.1896319,150.511282 26.2049583,150.558996 C26.7512987,152.184658 26.8973501,153.911711 26.9938162,155.605535 C27.1020024,157.474877 27.243546,159.348478 27.2570693,161.218671 C27.2732973,163.272902 27.1633079,165.323724 27.008241,167.371991 M392.405422,122.163582 C359.620488,110.410759 382.287305,97.9166754 386.75179,97.0561308 C390.948514,96.2484118 296.317119,64.0129251 189.338971,110.438024 C159.029698,123.590723 137.439333,111.313053 123.633869,96.6215984 C123.496833,95.6204699 123.431921,94.6167853 123.503144,93.6182129 C123.086627,91.2691819 122.998275,88.8792538 122.537582,86.536187 C122.087707,84.2595781 121.127555,82.2275002 119.795962,80.290849 C118.431013,78.3081885 116.871328,76.4388473 115.207965,74.6717489 C114.447055,73.8614738 113.71229,73.027342 112.841391,72.3176058 C111.992129,71.624058 111.064432,71.0157127 110.067316,70.5257987 C108.55361,69.7811295 106.954257,69.3039959 105.317039,68.9614822 C105.326956,68.7365477 105.308023,68.5141694 105.224179,68.3199079 C104.676035,67.0486876 102.845885,66.5996708 101.607153,66.2333004 C100.790347,65.9913255 100.094349,65.6377354 99.3406514,65.272217 C98.5923633,64.9101067 97.7566247,64.7601504 96.9353109,64.6340508 C96.1158002,64.5079512 93.7068535,63.1174476 93.2966474,62.7757859 C92.8314467,62.3881148 92.2156867,62.3020604 91.6242687,62.255199 C90.7939394,62.1895932 90.0213094,62.1103549 89.2513841,61.7831776 C87.8936469,61.2063571 86.7919505,60.1617754 85.5523166,59.3992136 C84.3496464,58.6605086 83.2993384,57.6849408 81.7576847,58.077724 C81.5160688,58.1390697 81.2996963,58.2319404 81.1013549,58.3444076 C69.3315949,48.7872512 77.2273864,41.9182314 81.7090009,34.9665653 C84.6958423,30.3324053 88.6852095,21.3094681 85.1980067,13.3260006 C84.0034505,10.5927067 79.6669858,6.72877657 77.5816963,5.79751403 C74.8463878,4.57826728 71.3159106,2.0562754 68.377753,1.54591286 C65.2908393,1.00828554 61.7197922,1.86201387 57.8557408,1.27667318 C57.1714629,1.17357825 56.4826772,1.0457746 55.79299,0.912858816 C54.4821335,0.345410644 52.9314643,0.119624209 51.3438314,0.164781496 C49.8553692,0.00800902825 48.3605962,0.00119283399 46.8703309,0.318145867 C42.8367877,1.17698634 39.047565,5.81114641 43.0639788,10.0516713 C41.1193313,12.4237069 40.6018405,15.8931497 39.1359171,18.6324078 C37.6699937,21.3716659 39.7444647,21.6392015 39.3982687,22.3992072 C39.0520728,23.1609169 35.6045383,27.9492933 35.1790059,28.6368769 C34.8283022,29.2034731 34.3892464,29.7249119 34.0818172,30.3145127 C33.7446368,30.9594951 33.730212,31.585733 33.9537968,32.2707605 C34.1169777,32.7700467 34.3631014,33.3656117 34.8616596,33.6484838 C34.9707474,33.691937 35.0852445,33.7294261 35.2141664,33.7600989 C35.6964966,33.8751222 36.1842362,33.9671408 36.6791882,34.0259305 C37.3129792,34.0983526 38.0982309,34.2218961 37.917019,34.9946821 C37.7917033,35.5237892 37.3454351,35.8858995 37.1470936,36.3800736 C37.0425136,36.6450532 37.0289903,36.9057726 37.0641509,37.1639359 C37.0713633,37.2073892 37.075871,37.2508424 37.0875912,37.2951477 C37.2192178,37.8881566 37.5491858,38.3644382 37.7736722,38.9225141 C37.961195,39.3817552 37.4959942,39.867409 37.5338594,40.3326143 C37.5780355,40.8770578 37.9548841,41.272397 38.1108526,41.7802035 C38.4723749,42.9423646 37.8800553,44.1113419 37.2552799,45.1934128 C37.013664,45.8307269 36.7999962,46.4527047 36.7666387,47.0235609 C36.3879869,53.5023536 41.9956398,52.4390273 48.1604516,52.3384884 C47.6943493,57.094488 49.2071534,60.6176084 48.9988949,60.780345 C49.1160966,60.1353626 48.8068643,59.5500219 47.8791674,59.6309642 C46.6936267,59.7340592 45.8506757,60.7973855 45.065424,61.5224581 C44.614648,61.939098 44.0205253,62.0924624 43.4218949,62.220266 C42.6826223,62.3787426 42.0199817,62.5619278 41.3672581,62.9410786 C40.7010112,63.3278976 38.4065616,64.4483095 37.8656305,64.780599 C37.5428749,64.9825288 34.7246237,66.1608783 34.2134438,66.6431241 C34.2116407,66.6448281 34.2116407,66.6456802 34.2098376,66.6473842 C33.6689064,66.8919152 29.9644297,68.0745249 29.1936028,69.4249834 C28.728402,69.8876325 28.4101542,70.4405963 28.33803,71.1017672 C25.6234573,72.0705188 23.3317124,73.7907558 20.893916,75.2613497 C20.3836376,75.7035503 19.8832763,76.1542711 19.3883244,76.6160683 C18.7581396,77.3564774 18.1405765,78.1045547 17.5176042,78.850928 C16.7296478,79.7932669 15.9380852,80.7143051 15.3556827,81.7912638 C14.570431,83.2490773 14.1476032,84.8244702 13.8347647,86.4254239 C13.4867656,88.2070066 13.1504868,89.9868854 12.7538039,91.7599479 C11.8179931,95.9365709 10.6468771,100.062073 9.51813417,104.193538 C8.37316326,108.375273 7.26245132,112.572345 6.47900272,116.82991 C6.29238147,117.848931 6.1138742,118.871361 5.9696259,119.896346 C5.12306866,129.251572 4.64704926,138.953573 2.10196825,148.008035 C1.6007054,152.809192 2.52299299,158.403583 3.64722821,164.129186 C3.70132132,164.309816 3.75361133,164.489593 3.80319668,164.670222 C4.14127865,165.911621 4.37387904,167.182841 4.65606478,168.437021 C4.93734897,169.687793 5.22584558,170.935156 5.53507788,172.181668 C6.56825636,176.351475 7.44186015,180.561327 8.18293581,184.786515 C8.92130681,188.984439 9.56681797,193.205367 9.76065163,197.46208 C9.80933543,198.547559 9.83457888,199.63389 9.82466181,200.720221 C9.82015405,201.575654 9.74893145,202.438754 9.83277578,203.295039 C9.99325202,204.918145 10.8930008,206.199589 12.0505935,207.366863 C13.0927874,208.420817 14.2539863,209.359747 15.3439625,210.365136 C15.4278069,210.373656 15.5062419,210.365988 15.5819722,210.34554 C15.7090911,210.535541 15.829899,210.739175 15.9471008,210.940252 C16.0318466,211.024603 16.1192972,211.106397 16.204043,211.1916 C16.7134199,211.708778 17.2300091,212.262594 17.636609,212.865827 C17.7961837,212.941657 17.9701832,213.008115 18.1613122,213.054977 C21.6349917,212.667306 21.1346304,211.264022 22.1786275,210.072892 C16.7395649,237.1613 28.6770136,257.635443 28.5399777,281.925803 C28.5553041,281.974369 28.5670242,282.02123 28.5832522,282.068092 C29.1512299,283.811333 30.0392585,285.354349 31.0517013,286.896513 C31.889243,288.177106 32.5969612,289.415949 32.8142352,290.924884 C33.0991256,292.892208 32.879147,294.892761 32.9521727,296.870309 C33.0450325,299.405082 33.192887,301.936446 33.3750005,304.464402 C33.6400568,308.164743 33.9718279,311.859121 34.2819617,315.555202 C36.3861838,329.989345 38.1793706,344.884434 35.9426203,359.950779 C23.6526648,370.604491 8.07835579,374.500798 1.96222771,377.136109 C-1.88830045,378.795852 4.72007496,383.442793 14.2359553,383.442793 C18.2370426,383.442793 40.1186087,380.544206 41.9848211,380.544206 C48.8952164,380.544206 55.8083164,382.248255 58.0531806,378.240332 C59.275685,372.225893 56.0291966,366.0206 55.4422863,359.680687 C53.7789231,341.646741 60.7875875,330.770652 62.6123286,316.857947 C64.7760531,300.363609 54.5659779,294.193249 55.1564944,280.269468 C55.714555,267.119326 59.2684726,259.463035 62.0398431,248.287885 C64.9599697,253.53891 67.8332156,259.144378 70.3557578,265.905191 C70.749736,266.957441 71.1004397,268.041216 71.427703,269.142883 C71.8802821,270.094594 72.347286,271.042897 72.7836371,272.000573 C73.9511468,274.563462 74.441591,277.344469 75.1132472,280.045386 C75.4549354,281.421405 75.8254732,282.804241 76.3709121,284.124026 C76.9109417,285.425919 77.4671992,286.7227 77.9747729,288.037374 C78.9114853,290.467347 79.6390377,292.957814 79.8806536,295.546264 C80.1772642,298.727722 80.0149849,301.939002 79.8923738,305.128981 C79.7724674,308.236313 79.5966648,311.367503 80.121368,314.452682 C80.5676362,317.082881 81.4060794,319.621062 82.344595,322.126013 C83.3326958,324.763028 84.3631697,327.383003 85.2052191,330.066027 C85.3593845,330.55935 85.5036328,331.05608 85.6424718,331.551958 C86.3420761,333.107754 86.8298157,334.746197 87.3274723,336.365895 C87.9351183,338.332367 88.4327749,340.320992 88.9728045,342.303652 C89.4515286,344.069899 89.9780349,345.819956 90.4387279,347.589611 C90.987773,349.687295 91.4944452,351.865921 91.6648385,354.053919 C91.9298948,355.813349 92.0993865,357.597488 92.1516765,359.408892 C92.2021634,361.178546 91.1626741,363.243001 91.291596,365.099562 C91.4836266,367.873753 93.1460883,370.191259 92.43837,372.958634 C91.152757,377.987281 87.2274001,380.713759 85.5559228,385.428009 C85.7912279,389.449564 84.638143,392.727301 87.963968,393.040846 C102.388798,394.400677 113.30569,393.282821 112.79992,383.529699 C112.679112,381.190892 111.167209,378.409885 110.385564,375.346006 C109.210842,373.451104 108.024399,371.494856 108.254295,369.220803 C108.426491,367.520163 109.103557,365.872348 109.052168,364.151259 C108.991764,362.178823 108.140699,360.343562 107.770162,358.421396 C107.671892,357.910181 107.609685,357.38363 107.570017,356.856227 C106.729771,353.30925 106.709937,349.658326 107.027283,346.038075 C107.377085,342.046341 108.103736,338.096356 108.82678,334.151484 C109.196417,332.144115 109.586789,330.136745 109.845534,328.113188 C110.114197,326.004428 110.274673,323.882887 110.373843,321.762199 C110.42974,320.602594 110.466703,319.441285 110.495553,318.282532 C110.457688,317.38109 110.409906,316.477092 110.373843,315.57565 C110.244922,312.360963 110.113295,309.145423 109.981668,305.930736 C109.859057,302.935018 109.434426,299.986162 108.725807,297.061163 C107.364463,291.442063 105.221474,286.030856 103.681624,280.457766 C102.903584,277.637565 102.286021,274.780728 101.965069,271.881289 C101.82623,270.641594 101.735173,269.396786 101.675671,268.149423 C100.045665,253.621557 102.206685,237.600092 101.860489,222.891597 C111.291623,231.07955 121.92633,238.58844 133.94041,245.059565 C218.336486,290.514208 215.017874,263.575757 262.319597,316.168659 C269.525702,324.180244 288.353712,316.113278 282.242091,312.162441 C266.134965,301.745592 272.462056,292.798485 279.486949,293.531226 C304.028093,296.098375 327.963394,307.535097 338.704483,317.151895 C349.444671,326.766989 370.925047,309.138607 352.836309,279.755698 C334.747572,250.374492 360.749231,238.621669 317.791184,225.266189 C274.830433,211.91156 324.008286,155.284322 355.098303,161.161586 C386.187419,167.037145 386.75179,185.736522 392.405422,179.325039 C398.057251,172.914409 425.190357,133.917257 392.405422,122.163582" id="Fill-3" fill="url(#linearGradient-3)" mask="url(#mask-2)"></path>
                    </g>
                    <polygon id="Fill-10" fill="#FFFFFF" points="63.3906424 85.3394783 40.0485622 84.5777686 30.8743701 93.7796308 49.0640812 113.121434 74.1903326 95.3098664"></polygon>
                </g>
                <g id="Group-4">
                    <g id="Group" transform="translate(276.000000, 79.000000)">
                        <path d="M80.4094194,50.147445 C72.8846428,51.0073069 57.8866291,50.9020972 57.8866291,50.9020972 C62.0097944,46.9969992 62.23863,40.5110166 62.4674657,38.1301602 C62.6963014,35.7486544 62.23863,31.6357348 61.3226002,27.7390796 C61.7816459,27.6598476 62.224199,27.5741212 62.6433874,27.485797 C63.9765442,28.9970498 67.1582534,30.7401536 73.9243676,32.4845562 C81.483504,34.4328838 82.8578924,40.602588 97.2889708,42.8756369 C93.1658056,43.8498007 89.6604279,49.090802 80.4094194,50.147445 M100.724942,28.2631797 C94.540194,25.9901308 93.1658056,25.9901308 90.0734316,26.9642946 C86.9810576,27.9384584 85.2630721,24.6912457 72.2063821,25.015967 C68.5821198,25.1055901 66.1260877,25.1711838 64.4864423,25.2530135 L61.0930773,21.8940967 C61.0930773,21.8940967 60.8642416,20.5952116 62.0097944,18.2137058 C63.1546599,15.8328495 67.3410471,14.2741874 67.7368709,10.204131 C68.1952295,5.48593093 67.3932738,3.38498431 62.81175,1.43665669 C58.2302262,-0.511670933 49.9838957,0.787214148 45.1735362,2.95180614 C40.3631767,5.11704757 22.3174567,16.8797509 20.5486188,21.8940967 C18.4870361,27.7390796 28.9097108,26.4401945 28.9097108,26.4401945 C28.9097108,26.4401945 29.8257406,28.3885221 30.0552635,31.418821 C29.3680693,31.6350854 27.4205609,30.8778354 27.8789194,35.0992119 C28.0905752,37.0494878 30.6276963,41.3773729 31.5444134,40.5110166 C31.773249,41.3767235 31.773249,45.2740282 31.3148905,48.0880627 C30.8572191,50.9027467 11.5580569,59.4494105 8.63748149,60.6437353 C5.71828048,61.8380602 -4.19037287,92.1131231 1.99437504,121.908248 C3.46222188,128.980028 10.6990641,135.763455 11.1574227,141.192145 C11.615094,146.621485 13.2190053,154.596639 12.7606468,157.843852 C12.3029754,161.091065 12.7606468,216.726859 12.3022882,221.272957 C11.8439297,225.819054 10.2407056,265.002521 10.6990641,274.094716 C11.1574227,283.186912 12.7606468,289.57288 12.7606468,289.57288 C12.7606468,289.57288 13.447841,293.902064 15.5094236,295.417863 C17.5710062,296.933662 19.1749175,297.149277 20.7781416,297.582455 C21.9230072,299.963961 28.1077551,301.371303 34.9796972,302.837744 C39.3179543,303.763849 43.913222,302.453274 43.913222,302.453274 C43.913222,302.453274 44.1427449,300.288682 43.2260278,300.288682 C43.2260278,297.907176 41.1644451,295.742584 39.561221,292.92855 C37.9579969,290.114515 38.1868326,287.083567 37.9579969,283.403176 C37.7284741,279.722785 35.8964143,272.362653 34.2931902,265.868228 C32.6899661,259.373802 34.9803844,257.858653 36.3547728,254.394526 C37.7291613,250.9304 39.7907439,245.519244 40.2484153,239.241083 C40.7067738,232.962922 45.7459689,218.458922 45.7459689,218.458922 C45.7459689,218.458922 48.2659101,236.427049 48.0370745,241.189411 C47.8082388,245.951773 47.5787159,263.270457 48.9531043,266.084492 C50.3274928,268.898526 50.0986571,277.341929 50.0986571,277.341929 C50.0986571,277.341929 49.7543728,286.650389 52.0454783,288.165538 C54.3358966,289.680688 59.6046146,291.412751 59.6046146,291.412751 L60.2918088,289.897602 C60.2918088,289.897602 72.432469,295.171724 77.5864256,295.52632 C86.2333903,296.121209 88.4667715,294.497603 88.4667715,294.497603 C88.4667715,294.497603 88.3478869,290.473657 85.0308005,289.626784 C78.674254,288.003178 74.573079,283.132359 74.573079,283.132359 C74.573079,283.132359 74.8376487,277.991371 73.2344246,273.445274 C71.6312005,268.899176 71.6305133,255.693411 72.3177075,245.735509 C73.0049018,235.777606 74.0748632,234.344287 76.4408728,229.932623 C80.7358366,221.922399 79.647321,168.992832 79.1896497,159.251194 C79.1896497,159.251194 92.7205037,140.478408 92.8785584,128.402673 C93.1060197,110.974233 89.3683703,95.1135476 85.0445444,83.0430086 C101.867746,73.5319226 127.870488,59.6234611 127.869113,47.7464559 C127.869113,41.8923809 106.90969,30.5362286 100.724942,28.2631797 Z" id="Fill-1" fill="url(#linearGradient-4)"></path>
                        <path d="M23.5836807,156.597961 L23.5836807,176.514416 C23.5836807,178.251675 28.3940402,178.097107 28.3940402,176.514416 L28.3940402,156.597961 C28.3940402,156.597961 26.3324576,158.329375 23.5836807,156.597961" id="Fill-6" fill="#FFFFFF"></path>
                        <path d="M23.5836807,190.152709 L23.5836807,210.069164 C23.5836807,211.806422 28.3940402,211.651855 28.3940402,210.069164 L28.3940402,190.152709 C28.3940402,190.152709 26.3324576,191.884123 23.5836807,190.152709" id="Fill-8" fill="#FFFFFF"></path>
                    </g>
                    <g id="Page-1" transform="translate(91.000000, 28.000000)">
                        <g id="Group-3" transform="translate(0.000000, 0.260460)">
                            <mask id="mask-6" fill="white">
                                <use xlink:href="#path-5"></use>
                            </mask>
                            <g id="Clip-2"></g>
                            <path d="M196.920192,146.803868 C194.09173,145.316929 190.948365,145.61396 188.119903,146.208914 C185.29144,146.803868 181.835059,145.911883 178.377735,145.911883 C174.920412,145.911883 169.893291,147.694961 167.692747,149.1819 C161.406961,145.019898 151.350834,141.154035 146.95069,135.802126 C142.550545,130.450216 138.465303,126.288214 138.465303,126.288214 C138.465303,126.288214 156.063996,109.934561 163.292603,103.690666 C170.52121,97.4467717 188.433862,81.6889651 189.062724,79.9049952 C189.691585,78.1210252 187.491984,74.2560543 184.663522,73.0661464 C181.835059,71.8771304 181.206198,73.0661464 175.549273,78.1210252 C169.892348,83.1750121 131.236695,117.665395 131.236695,117.665395 C131.236695,117.665395 129.979915,102.500759 127.151453,96.5547867 C124.322991,90.6088149 122.752251,84.958982 123.38017,81.3910421 C124.008088,77.8231022 127.465412,68.9032525 127.465412,68.9032525 L105.544829,62.4363614 C105.544829,62.4363614 104.509611,59.0539544 107.076912,60.0949009 C111.201753,61.7673727 114.855184,59.5374103 115.208742,55.5234779 C115.417105,53.1534738 114.618536,51.3133088 115.915857,50.7290587 C118.390762,49.6140774 117.094383,47.7935361 117.094383,47.7935361 C117.094383,47.7935361 118.822574,47.6445746 118.980025,46.4555586 C119.137476,45.2656507 118.193713,43.9285652 118.980025,43.3336112 C119.766338,42.7386573 122.515603,44.1506695 123.501794,41.2945336 C123.899664,40.1447649 122.751308,38.2787324 122.437349,36.7917934 C122.12339,35.3057465 121.493585,32.778753 121.808487,31.7378066 C122.12339,30.6968601 123.06621,29.9538366 123.85158,28.6158592 C124.63695,27.2778817 124.129712,25.1058983 124.322991,20.4390329 C124.872655,7.13329304 107.867939,2.39774481 96.9811873,0.815363465 C89.5263033,-0.269290264 83.466794,3.64027988 80.3243723,7.35628928 C77.1819505,11.0731907 74.6674475,18.35714 74.3534882,27.1289202 C74.0395288,35.8998085 71.8389851,40.9546873 71.8389851,40.9546873 C71.8389851,40.9546873 71.0526725,40.7753983 69.7176383,42.3666995 C69.7176383,42.3666995 66.1820603,46.6036281 64.7678291,48.1646019 C63.3535979,49.7255756 55.3396211,51.2865493 50.1541067,52.847523 C44.9685923,54.4084967 37.1903207,53.7395079 31.0619855,58.4224291 C24.9336503,63.1053502 18.8053151,74.7011548 18.3339047,78.2690947 C17.8624943,81.8370346 10.0842227,100.345723 8.43428631,104.582651 C6.78434991,108.81958 1.37915827,121.310046 0.184604313,127.997257 C-2.59106012,143.532959 26.8192919,155.425795 30.3548699,158.547742 C30.0984226,161.943529 29.843861,165.926242 29.6769817,169.962474 C27.6282321,178.73247 25.0703593,189.914394 25.5408269,194.141511 C26.3092258,201.034771 30.5217492,231.134804 29.7590072,275.74208 C28.9906082,320.349357 30.9073629,339.937347 32.4394467,346.824363 C33.9753018,353.716731 32.8231748,369.562844 32.769434,372.338701 C32.3875915,391.952559 33.6547427,399.383685 36.4832051,408.303535 C36.7387095,409.108106 43.4101095,409.4426 44.0474564,410.087505 C64.789514,431.049152 85.4052336,421.542376 85.4052336,421.542376 C85.4052336,421.542376 86.34994,419.824413 85.4052336,418.561362 C84.8150277,417.771064 85.9558409,417.000389 85.2232691,415.013046 C83.3593124,409.958167 75.6630662,410.681567 68.1204998,399.234724 C68.0394173,383.502785 71.8389851,365.934249 71.8389851,365.934249 L79.252385,277.127333 C82.3203239,291.273323 93.1448495,391.701911 93.1448495,391.701911 L93.1448495,394.865782 C93.1448495,396.335773 93.9830172,398.257108 98.1644274,399.273971 C102.343009,400.291726 108.674994,401.425439 108.674994,401.425439 C108.674994,401.425439 113.027055,398.345415 115.418991,400.944659 C117.806213,403.543011 127.092055,407.539104 137.843041,409.121485 C148.594969,410.705651 154.926954,408.10819 156.121508,406.521349 C157.31889,404.940752 155.287111,402.792852 155.287111,402.792852 C155.287111,402.792852 154.926954,399.737803 152.896118,398.268704 C150.86811,396.798713 140.950578,391.263054 138.563356,390.129341 C136.17142,389.00098 130.177908,383.112096 130.177908,383.112096 C130.177908,383.112096 126.742269,378.739585 125.592027,376.929748 C124.442729,375.110098 125.003707,241.651306 119.457092,199.764584 C119.341125,198.891331 119.467463,197.269702 119.330754,195.28682 C127.48804,199.438118 135.007979,201.809014 135.007979,201.809014 C135.007979,201.809014 134.628965,174.572252 134.753417,159.883936 L153.172364,168.211508 C153.172364,168.211508 158.64261,165.062801 162.664684,160.903475 C164.340077,161.834707 166.017355,162.918469 167.692747,164.345645 C170.835169,167.0216 173.977591,166.427538 176.492094,165.535553 C179.006597,164.643568 180.577336,164.643568 183.091839,164.643568 C185.606342,164.643568 186.234261,163.155737 188.119903,162.561675 C190.005544,161.967613 191.263267,160.777705 193.148909,159.588689 C195.03455,158.399673 195.033608,157.729792 194.719648,154.199316 C194.09173,150.668839 192.519105,149.777746 191.891186,151.263793 C191.263267,152.74984 190.948365,156.31778 190.005544,156.31778 C189.062724,156.31778 187.805943,151.857855 187.805943,151.857855 L189.062724,150.371808 C189.062724,150.371808 192.202317,149.1819 194.875214,149.776854 C197.548111,150.371808 199.748654,148.290807 196.920192,146.803868" id="Fill-1" fill="url(#linearGradient-4)" mask="url(#mask-6)"></path>
                        </g>
                        <path d="M39.8268248,388.492549 C40.7639887,377.414988 41.1826011,368.430023 40.1454982,344.564073 C39.7419709,335.269589 39.7513991,315.550478 40.5113127,300.10665 C41.2872542,284.327436 40.9280395,280.213601 40.1454982,272.536286 C39.6354322,267.534926 39.5873483,247.558031 40.1605833,235.12376 C40.4226875,229.435572 40.6301081,224.941752 40.5565681,222.878591 C40.4490865,219.812838 39.657117,216.083449 38.8180065,212.134632 C37.8101311,207.391056 36.7683141,202.485138 37.0191044,198.927902 C37.2510384,195.63737 39.0631399,189.653934 40.7847307,184.57854 C39.9522199,183.900631 39.1913636,183.234319 38.4899049,182.581386 C36.6146343,188.01179 34.4668885,194.919322 34.1972418,198.750397 C33.9209953,202.662643 35.0005251,207.746066 36.0451706,212.662687 C36.8607105,216.499114 37.6300523,220.122357 37.7299913,222.967789 C37.7997601,224.928372 37.5838541,229.598806 37.3340066,235.007802 C36.7174018,248.400065 35.8302074,264.809912 36.6400905,273.725302 C36.9342506,276.9641 38.3164259,287.158596 37.6856787,299.981772 C36.9201083,315.559397 37.2340676,333.094038 37.7281057,342.670389 C39.0027994,367.383724 39.1215948,377.407852 38.2023445,388.280256 C37.2491527,399.554055 40.2388375,420.807381 40.3670611,421.200746 L41.8765172,420.414907 C41.8463469,420.323925 38.9160599,399.263267 39.8268248,388.492549" id="Fill-4" fill="#FFFFFF"></path>
                        <path d="M43.978819,389.68772 C44.9159829,378.610158 46.3330426,363.086052 45.6494975,341.516963 C45.3553374,332.218912 45.7447224,316.745648 46.5036931,301.30182 C47.2796346,285.522606 46.8751645,275.854381 46.4527808,272.293577 C45.4929892,264.214869 45.5797287,248.753202 46.1529638,236.318931 C46.415068,230.630743 46.6224885,226.136923 46.5498913,224.073761 C46.4414669,221.008009 45.6494975,217.27862 44.810387,213.329802 C43.8025115,208.586226 42.7606945,203.680309 43.0114849,200.123073 C43.2038203,197.390031 44.4888851,192.798092 45.9040591,188.41131 C45.0517491,187.83598 44.2512942,187.263325 43.4979804,186.697807 C41.9225269,191.500254 40.4130708,196.776345 40.1896222,199.945568 C39.9133757,203.857814 40.9929055,208.941236 42.037551,213.857857 C42.853091,217.694285 43.6224328,221.317528 43.7233146,224.16296 C43.7921405,226.123543 43.0774823,241.611078 43.3273298,236.202973 C43.6403463,229.415859 42.9058889,265.130938 43.7798838,273.169506 C44.3889461,278.772064 44.3088063,288.353767 43.6780592,301.176943 C42.9124887,316.754568 42.0592359,331.195805 42.5070757,340.77394 C43.5441786,362.924602 42.5862727,378.603022 41.6670224,389.475427 C40.7138306,400.749225 43.7035153,422.002551 43.831739,422.395917 L46.535749,421.610078 C46.5055788,421.519095 43.0680541,400.458438 43.978819,389.68772" id="Fill-6" fill="#FFFFFF"></path>
                    </g>
                    <g id="Page-1-Copy-2" transform="translate(68.616933, 277.000000) scale(-1, 1) translate(-68.616933, -277.000000) ">
                        <mask id="mask-8" fill="white">
                            <use xlink:href="#path-7"></use>
                        </mask>
                        <g id="Clip-2"></g>
                        <path d="M136.182778,101.615033 C138.314567,88.9776895 136.791861,74.9065151 127.397052,72.9820189 C117.996498,71.0629746 112.692884,72.8348195 112.692884,72.8348195 C112.692884,72.8348195 105.297704,63.7575218 104.631161,63.4631229 C103.964618,63.1632723 102.545341,64.8042732 102.545341,64.8042732 C102.545341,64.8042732 102.539595,64.7115921 102.499373,64.5862 C102.487881,64.5971037 102.470643,64.6080073 102.45915,64.618911 C102.367213,64.2154756 101.982227,63.7248108 101.126064,63.4903821 C100.109012,63.2068869 99.1436737,63.299568 98.7357034,63.4794784 C98.7471955,63.4740266 98.7586876,63.4631229 98.7701797,63.4576711 C98.6724967,63.4849303 98.6092901,63.5067376 98.6092901,63.5067376 C98.6092901,63.5067376 96.1557223,55.1599851 96.7073441,53.9551306 C97.2589659,52.7557279 98.218558,50.3569225 99.4539609,48.219805 C100.69511,46.0826874 102.539595,48.0671537 104.901226,45.9191325 C107.262857,43.7765631 106.671013,40.5926941 107.636351,38.7281681 C108.601689,36.8581903 108.297148,34.2031488 108.009845,32.878354 C107.716796,31.5481074 107.015776,31.0247317 107.285841,29.9561729 C107.555906,28.8930659 109.377407,28.8767104 108.09029,26.2325727 C106.808918,23.5829831 106.377964,22.7924676 105.251736,22.138248 C104.131254,21.4785765 103.843951,20.818905 102.441912,20.8298087 C101.04562,20.8407123 101.057112,21.9038193 100.177965,18.1856709 C99.3103094,14.4784262 95.7534981,8.25788761 93.2194855,6.81315254 C90.6854729,5.37386929 85.8875125,0.189178517 75.1079034,-0.00163554914 C68.2873298,-0.110672159 61.6391381,4.2835032 57.8122619,5.12308509 C53.9796397,5.96266698 49.1816793,10.0406362 48.9116145,11.7961256 C48.6472957,13.5570668 48.0956739,15.4434002 48.0956739,15.4434002 C48.0956739,15.4434002 46.3948401,16.2720784 45.7053129,18.8344387 C45.0215317,21.4022509 45.3318189,25.1749176 45.9179171,26.5215197 C46.4982692,27.86267 46.9234776,28.1298097 46.9234776,28.1298097 C46.9234776,28.1298097 46.8028104,30.9647615 47.1016055,32.4422076 C47.4004006,33.9251055 47.434877,35.5715583 47.1360819,36.2148743 C46.8430328,36.8581903 46.4005862,37.6487057 46.481031,38.3574436 C46.5557298,39.0716334 47.4693534,39.4914244 47.4693534,39.4914244 C47.4693534,39.4914244 47.7796406,41.208751 48.4002151,42.4190573 C49.0092975,43.6239119 49.3195848,44.4798493 49.244886,45.194039 C49.1759333,45.9082288 48.4576757,49.9153242 50.5320035,54.1841075 C52.5948392,58.4528907 55.6517432,63.7139072 56.7952092,65.2731307 C57.9386752,66.8323542 60.3807509,70.8176423 61.6736144,72.660361 C62.9722241,74.5085315 65.0063294,75.3535652 67.7127238,74.6884419 C70.4191182,74.0233186 71.0109624,73.6634978 71.0109624,73.6634978 L72.1314442,75.489861 C72.1774127,75.5770903 72.2348733,75.7024824 72.2865878,75.8169708 C72.1256981,75.9423629 65.9256991,80.72907 63.5698143,83.3568523 C61.1851993,86.0227974 60.5991012,87.5983764 60.7599908,88.9504304 C60.8002133,89.2775402 60.8174514,89.6809757 60.8231975,90.0953148 C60.8346896,91.376495 60.7140224,92.8103264 60.7140224,92.8103264 C60.7140224,92.8103264 60.5761169,93.5245162 58.0995649,94.6148823 C55.6230129,95.7052483 54.4278324,96.6429632 51.8018828,97.7333293 C49.1759333,98.8236954 48.4346915,99.4015894 45.8834407,100.491955 C43.33219,101.582322 40.1086501,103.463203 38.6434047,108.113614 C37.1839054,112.769478 35.9255182,118.330345 28.9842774,125.957456 C28.9842774,125.957456 27.1915066,126.06104 26.7490599,126.606223 C26.3066133,127.151406 25.6285782,128.307195 25.7205151,129.893677 C25.7205151,129.893677 24.2725079,131.556486 23.7553625,132.488749 C23.2382171,133.41556 22.0775129,135.427285 21.7902099,135.699877 C21.5086529,135.972468 19.8595336,137.215486 19.8595336,137.215486 C19.8595336,137.215486 16.8083756,136.779339 16.2395156,137.166419 C15.6764017,137.558951 14.2169024,138.185911 14.6363648,139.379862 C15.0500811,140.568361 15.8315453,141.36978 15.8315453,141.36978 L14.6995715,142.307495 C14.6995715,142.307495 13.6422964,142.08397 12.7918794,142.661864 C11.9472086,143.250662 11.2634274,144.144762 10.9818704,144.450065 C10.7003135,144.760819 10.746282,145.147899 10.746282,145.147899 C10.746282,145.147899 9.45916447,147.006973 7.75833062,147.633934 C6.05749677,148.266346 1.52960125,150.539759 0.891788559,151.771873 C0.253975865,153.01489 0.547024941,157.000178 0.282706167,158.597565 C0.0126413327,160.194951 -0.240185321,163.384272 0.432103735,166.126543 C1.11013885,168.863361 0.960741283,172.592413 3.39707085,173.808172 C5.83340042,175.029382 7.98242697,175.808993 10.6083765,176.763064 C13.2343261,177.717134 15.7625926,179.118255 18.1874301,178.48039 C20.6122675,177.837074 21.5373832,177.477254 21.5373832,177.477254 L22.7498019,177.291891 C22.7498019,177.291891 21.1006826,180.672026 21.9625917,183.321616 C22.8187547,185.971205 24.6230176,189.149623 27.8120811,190.18547 C30.9896524,191.22677 29.5071689,192.382558 29.3232949,193.009519 C29.1451671,193.631027 26.467503,208.35097 25.9503575,213.137677 C25.4332121,217.924384 19.4745476,242.419458 27.3236659,242.354036 C27.3236659,242.354036 26.662869,296.57249 27.9499865,315.697511 C29.231358,334.811629 32.3687069,373.590499 32.3687069,373.590499 C32.3687069,373.590499 37.42524,376.207378 48.0784358,377.188707 C48.0784358,377.188707 46.9464619,391.679673 47.4808455,405.625455 C48.0209752,419.571237 52.5488707,441.193197 53.4452561,447.691779 C54.3416415,454.201265 55.7953947,460.034723 55.5425681,463.758323 C55.2954875,467.476472 54.8817712,468.010751 54.6519287,474.127705 C54.4220863,480.239207 51.9685186,487.697311 51.0089265,490.101568 C50.0493344,492.494922 47.7336721,500.754445 45.7972498,502.493579 C43.8493354,504.238165 39.9362683,505.86281 37.430986,507.612848 C34.9314498,509.351982 30.0530446,512.448621 28.5188465,512.86296 C26.9789023,513.271848 21.8131941,514.503961 22.6751032,517.824126 C23.5427583,521.133387 40.4936362,521.667667 49.1644412,520.402842 C57.8352462,519.143469 58.1168031,519.143469 63.8973398,507.667366 C69.6836225,496.202166 75.9640664,493.100075 77.5097566,494.413966 C79.066939,495.727857 79.5381159,501.970203 79.5553541,503.965573 C79.5668462,505.955491 79.4921474,513.39724 79.4921474,513.39724 L80.6241213,514.449443 C80.6241213,514.449443 82.5835279,514.302244 82.4168921,511.249219 C82.2445103,508.196194 82.020414,497.695968 83.8074387,493.966916 C85.5944635,490.232412 90.0361681,485.412994 88.1686985,479.448691 C86.2897368,473.484389 80.6528516,468.746748 80.6528516,468.746748 C80.6528516,468.746748 76.6535936,459.342341 77.7108687,436.215676 C77.7970596,429.70619 78.7566517,427.176541 79.9748165,422.117242 C81.1929813,417.057944 82.5605436,413.726875 80.0552613,399.661153 C77.5614712,385.59543 76.68807,381.615594 76.68807,381.615594 L79.4864014,381.332098 C79.4864014,381.332098 84.3590605,395.239718 85.1290326,403.07945 C85.8990047,410.908279 85.3071605,424.068998 89.363879,439.579455 C93.4205976,455.095365 95.0122563,461.588495 95.368512,470.491334 C95.7247678,479.394173 93.8343139,487.113965 93.8515521,489.638163 C93.8745364,492.16236 95.7592441,499.718597 95.6385769,502.111951 C95.5236557,504.499852 94.7249533,510.218823 94.4836188,514.078719 C94.2365382,517.933163 94.5583175,522.850714 93.742377,525.778347 C92.9321825,528.70598 88.2319052,536.578423 87.2838052,540.574615 C86.3414513,544.565355 83.7499781,552.159754 88.7950191,553.053855 C93.8458061,553.942503 99.3045634,554.166028 106.837648,550.524205 C114.364987,546.876931 119.657109,543.109716 119.77203,539.658707 C119.875459,536.202247 120.139778,533.945189 120.139778,533.945189 L122.099185,533.792538 C122.099185,533.792538 122.926617,532.860275 122.782966,531.666324 C122.633568,530.466921 121.455626,523.832043 122.248582,518.647353 C123.041538,513.45721 126.609842,504.527112 126.293809,500.41098 C125.977775,496.300299 121.44988,490.750336 119.323837,487.84451 C117.197795,484.944137 114.514385,481.640327 114.893625,477.649587 C115.278611,473.658847 116.893254,465.279384 120.415589,435.354287 C123.937924,405.440093 115.79001,385.966154 111.118463,379.625676 C111.118463,379.625676 110.647286,373.645018 110.020966,349.738741 C109.394645,325.827012 107.998353,309.49878 110.7737,290.739032 C113.537555,272.099223 116.312902,254.642462 114.163875,240.358666 C114.152383,240.271437 114.135145,240.184208 114.123653,240.091527 C114.123653,240.091527 123.765542,237.627299 123.713828,231.652093 C123.656367,225.671435 107.33181,183.147157 107.33181,183.147157 L104.73459,174.402421 C104.73459,174.402421 105.521801,174.162541 106.079168,173.715491 C106.63079,173.26844 106.671013,172.516088 106.671013,172.516088 C106.671013,172.516088 107.79724,173.213922 109.187787,172.319822 C110.572588,171.425722 108.021337,166.851636 107.923654,166.410038 C107.825971,165.968439 106.734219,163.106228 106.734219,163.106228 C106.734219,163.106228 108.705118,164.98711 109.871568,165.64133 C111.043765,166.295549 112.198723,165.450516 112.198723,165.450516 C112.198723,165.450516 112.899742,165.619522 113.405395,165.041628 C113.911049,164.463734 113.100854,162.261195 112.491772,161.339835 C111.876943,160.413024 110.135887,158.085093 110.135887,158.085093 C110.135887,158.085093 108.923468,156.296892 108.49826,155.773516 C108.073051,155.244689 115.272865,145.758504 121.6395,136.403163 C127.994642,127.053274 134.05099,114.252376 136.182778,101.615033" id="Fill-1" fill="url(#linearGradient-4)" mask="url(#mask-8)"></path>
                    </g>
                </g>
            </g>
        </g>
    </g>
</svg>