<?xml version="1.0" encoding="UTF-8"?>
<svg width="288px" height="325px" viewBox="0 0 288 325" version="1.1" xmlns="http://www.w3.org/2000/svg" xmlns:xlink="http://www.w3.org/1999/xlink">
    <!-- Generator: Sketch 45.1 (43504) - http://www.bohemiancoding.com/sketch -->
    <title>Group 2</title>
    <desc>Created with Sketch.</desc>
    <defs>
        <polygon id="path-1" points="0 324.532625 0 0.0899675325 120.086283 0.0899675325 120.086283 324.532625"></polygon>
        <linearGradient x1="100.469386%" y1="0.540816784%" x2="2.04591788%" y2="99.9387741%" id="linearGradient-3">
            <stop stop-color="#1EB6D5" offset="0%"></stop>
            <stop stop-color="#7B6DD7" offset="100%"></stop>
        </linearGradient>
    </defs>
    <g id="Web" stroke="none" stroke-width="1" fill="none" fill-rule="evenodd">
        <g id="Hello-world-story" transform="translate(-367.000000, -938.000000)">
            <g id="Group-2" transform="translate(367.000000, 938.000000)">
                <g id="Page-1" transform="translate(190.000000, 162.500000) scale(-1, 1) translate(-190.000000, -162.500000) translate(92.000000, 0.000000)">
                    <g id="Group-3" transform="translate(135.500000, 162.500000) scale(-1, 1) translate(-135.500000, -162.500000) translate(75.000000, 0.000000)">
                        <mask id="mask-2" fill="white">
                            <use xlink:href="#path-1"></use>
                        </mask>
                        <g id="Clip-2"></g>
                        <path d="M16.9272054,95.8737422 C20.7560574,95.0259305 24.0213142,93.3599435 26.010287,90.4820409 C30.1320393,84.5177227 35.7584743,81.1825734 42.5639124,79.4467292 C43.5113444,79.2054045 44.0474471,78.8285994 44.1912538,77.7161773 C45.018142,71.3157812 44.5475982,64.9492552 43.9639124,57.9328461 C41.8269033,60.1576903 39.6856647,61.3727812 36.9617976,60.8298006 C36.8401964,60.8054565 36.6815861,61.077476 36.5145166,61.1536838 C34.523429,62.0607682 32.6063595,63.340424 30.5148187,63.7690929 C27.173429,64.4539045 23.7199547,64.5946773 20.3087764,64.9217357 C17.6483535,65.1768201 16.0389879,67.5445539 16.7823414,70.0086058 C17.0297734,70.8288981 16.9367221,71.7645604 16.9293202,72.6473006 C16.8753927,79.7060474 16.7992598,86.7637357 16.7463897,93.8224825 C16.7411027,94.4395539 16.8521299,95.0576838 16.9272054,95.8737422 M29.3040937,119.611411 C28.3323414,121.568469 27.1099849,122.991015 24.6631571,122.237405 C24.4072659,122.158021 23.8701057,122.673482 23.6015257,123.019593 C22.8243353,124.018762 22.170861,125.116366 21.3735801,126.096482 C19.6743353,128.181612 18.2796224,128.599697 15.870861,127.568775 C14.6030363,127.025794 13.3563595,126.295469 12.3095317,125.404262 C10.8566616,124.166944 10.8545468,123.083099 12.3729758,121.931515 C14.0627039,120.649742 15.9617976,119.647398 17.8704079,118.460885 C15.5695015,117.769723 13.6027341,116.568392 10.8386858,117.205573 C6.13747734,118.289418 1.98083082,115.498307 0.984758308,110.808353 C0.302734139,107.600216 -0.101193353,104.237547 0.0214652568,100.968021 C0.407416918,90.6630344 1.08732628,80.3686318 1.68793051,70.0721123 C1.80741692,68.0451968 2.75696375,67.0576708 5.12554381,66.6607552 C6.2305287,66.4755279 6.64397281,66.0839045 6.69155589,64.9979435 C6.80046828,62.5233071 7.04367069,60.053963 7.14306647,57.5782682 C7.19382175,56.2996708 7.60620846,55.3555409 8.84336858,54.8813591 C10.6219184,54.1986643 12.3698036,53.4101253 14.196994,52.9052487 C14.8568127,52.7221383 16.0125529,52.9772227 16.4133082,53.4672812 C17.7900453,55.1459695 19.3021299,56.8807552 18.5883837,59.7078526 C19.4173867,59.5617877 20.1216163,59.4887552 20.7983535,59.310937 C23.7400453,58.5372162 26.6753927,57.7338591 29.6117976,56.9368526 C31.702281,56.3695279 33.5347583,55.5651123 34.2051511,53.1645669 C34.426148,52.3728526 35.1187462,51.6361773 35.7584743,51.0519175 C40.5051511,46.7123071 46.0279607,44.0153981 52.5045468,43.6322422 C54.2513746,43.5285149 54.591858,42.7061058 54.3264502,41.3290734 C54.0557553,39.9298136 53.7977492,38.6215799 52.4389879,37.5663136 C51.6247885,36.9333656 51.2811329,35.3012487 51.2620997,34.1094435 C51.1859668,29.6248266 53.4001662,25.8451318 55.4494109,22.0760214 C56.4465408,20.2428006 58.4037915,19.4034565 60.3441239,19.6913526 C67.5460876,20.7582617 72.4830967,23.6806188 70.8081722,33.2796253 C70.7108912,33.8342487 70.5311329,34.3962812 70.557568,34.9466708 C70.675997,37.5017487 69.9241843,38.8131578 67.6084743,39.932989 C65.7696526,40.8220799 65.5105891,41.145963 64.7968429,43.8005344 C66.4030363,42.9453136 67.7850604,42.3875149 68.957719,41.5407617 C70.6040937,40.3500149 72.0220695,38.844911 73.6726737,37.6615734 C75.0800755,36.653937 76.652432,35.8643396 78.1972961,35.0662747 C79.5972961,34.3433591 80.631435,33.475437 80.4463897,31.7025474 C80.0001662,27.3978656 79.6438218,23.0825994 79.1309819,18.7853266 C78.881435,16.6970214 77.8176888,15.0818396 76.0930665,13.7048071 C74.9246375,12.7712617 74.2637613,11.1888916 73.4474471,9.85313831 C73.3988066,9.77481364 74.0258459,9.04237208 74.2859668,9.07200844 C74.7374773,9.12281364 75.1488066,9.53243052 75.8424622,9.95369026 C75.9513746,9.00532662 76.0698036,8.23583961 76.1205589,7.46106039 C76.2516767,5.49447597 76.2992598,3.51942403 76.496994,1.5602487 C76.5530363,1.02044351 77.089139,0.0614954545 77.2889879,0.0900733766 C77.9720695,0.190625325 78.8740332,0.474287662 79.2007704,0.996099351 C80.0424622,2.34878766 80.9000151,3.48449545 82.5802266,3.85706688 C82.9672356,3.94385909 83.4176888,4.68476818 83.4737311,5.16635909 C83.7719184,7.73943052 83.9506193,10.3273201 84.1779607,12.9088591 C84.3820393,15.2247292 84.470861,17.5596513 84.831435,19.8501188 C85.5705589,24.5495994 86.5349094,29.2130929 87.249713,33.9136318 C87.6462387,36.5216318 86.2747885,38.3823721 84.202281,39.8641903 C83.6397432,40.2663981 83.3775076,41.0888071 82.9778097,41.716463 C82.4744864,42.5071188 82.0874773,43.408911 81.449864,44.0683201 C77.0817372,48.5825734 73.5003172,54.420937 72.0590785,59.5088656 C73.249713,60.5704825 74.541858,61.5050864 75.5590785,62.6799565 C77.0256949,64.3745214 78.0830967,66.2881838 78.2184441,68.6675604 C78.3072659,70.2329955 78.9385347,71.7635019 79.0833988,73.3321123 C79.183852,74.4212487 78.999864,75.5834175 78.7175378,76.6524435 C78.155,78.7767357 78.3886858,79.0445214 80.38929,79.5938526 C83.6820393,80.4988201 87.0255438,81.3730929 90.1321903,82.7480084 C92.9660272,84.0001448 95.197145,86.1530149 95.8136103,89.4871058 C95.8738822,89.8120474 96.1540937,90.2513006 96.4364199,90.3560864 C98.8546979,91.2599955 101.298353,92.0982812 104.214668,93.1249695 C104.214668,89.5453201 104.269653,86.3213071 104.199864,83.1015279 C104.115272,79.1535409 103.851979,75.2087292 103.81497,71.2607422 C103.800166,69.6370929 104.430378,67.9890994 104.301375,66.3897942 C104.170257,64.7407422 103.500921,63.1287357 103.010287,61.5177877 C102.752281,60.6710344 102.158021,59.8729695 102.114668,59.0315084 C102.073429,58.2461448 102.558776,57.4343201 102.81361,56.6341383 C103.516782,56.9315604 104.301375,57.119963 104.898807,57.5613331 C105.437024,57.9582487 105.769048,58.6335344 106.182492,59.1765149 C108.188384,58.8663916 109.06497,57.5645084 108.908474,55.7355214 C108.766782,54.0716513 108.732946,52.011924 107.760136,50.925963 C106.962855,50.0358136 104.855453,50.3226513 103.112855,50.0538071 C103.685967,49.3647617 104.099411,48.8662357 104.693671,48.1528461 L100.822523,48.1528461 C100.787628,48.0173656 100.750619,47.8818851 100.714668,47.7464045 C101.23068,47.3314955 101.745634,46.9155279 102.253187,46.5069695 C101.940196,45.8898981 101.627205,45.2707097 101.285665,44.595424 C105.079622,43.7518461 108.674789,45.5617812 110.635211,48.4841383 C113.138082,52.2130279 113.894124,56.2827357 113.921616,60.6075279 C113.926903,61.6320994 114.083399,62.3931188 115.166178,62.887411 C117.270408,63.848476 118.361647,65.3800409 118.463157,67.9097162 C118.900921,78.7830864 119.557568,89.647989 120.076752,100.519242 C120.135967,101.775612 119.908625,103.062677 119.688686,104.313755 C119.127205,107.504956 117.621465,109.180469 114.395332,109.700164 C110.38355,110.344755 106.328414,110.72156 102.290196,111.20421 C101.674789,111.277242 101.054094,111.296294 100.485211,111.337573 C100.821465,113.307333 101.100619,115.182892 101.471767,117.040456 C101.755151,118.459827 101.203187,119.415599 99.968142,119.975515 C98.4930665,120.645508 98.3492598,121.707125 99.1000151,122.916924 C100.234607,124.743794 101.573278,126.44471 102.655,128.299099 C103.184758,129.206184 103.83506,130.552521 103.512553,131.308249 C103.187931,132.066093 101.754094,132.671521 100.752734,132.763606 C96.4237311,133.16158 92.8053021,130.932502 90.9188973,127.084008 C90.1808308,125.577846 89.2429154,124.171177 88.3959366,122.718995 C88.2246375,122.762392 88.0533384,122.804729 87.8809819,122.848125 C87.8809819,125.033807 88.0988066,127.24595 87.8397432,129.399879 C87.1566616,135.076301 86.1003172,140.709327 85.5081722,146.393158 C84.9614955,151.639853 84.4994109,156.933119 84.573429,162.197807 C84.7278097,173.209833 85.2364199,184.219742 85.6688973,195.227534 C85.7175378,196.457444 85.1983535,196.791911 84.1948792,196.92845 C82.8942749,197.106268 82.2947281,197.734982 82.2439728,199.183989 C81.7829456,212.291729 81.0068127,225.393119 80.7974471,238.504034 C80.6039426,250.597788 81.1823414,262.702125 81.073429,274.799054 C80.9687462,286.257742 80.3903474,297.711138 80.0889879,309.169827 C80.0551511,310.452658 79.5666314,310.884502 78.4214653,310.883444 C77.6696526,310.883444 76.9178399,310.883444 75.8794713,311.29306 C76.7698036,312.113353 77.6368731,312.960106 78.5557553,313.747586 C79.7146677,314.740405 81.1167825,315.526827 82.0409517,316.697463 C82.8932175,317.776015 83.502281,319.196444 83.7634592,320.554424 C84.094426,322.264866 83.3108912,323.53182 81.3303776,323.652482 C76.5160272,323.944612 71.7027341,324.26532 66.8862689,324.527814 C65.5222205,324.602963 64.6858157,323.792197 64.5779607,322.485021 C64.2818882,318.857742 62.6756949,315.250573 64.6107402,311.476171 C63.6368731,311.071846 62.8723716,310.609307 62.0475982,310.439956 C59.7107402,309.959424 59.1482024,308.283911 59.0065106,306.252762 C58.6448792,301.046288 57.9755438,295.839814 57.9755438,290.634398 C57.9755438,280.001294 58.2367221,269.366073 58.5846073,258.738262 C58.802432,252.059495 57.6223716,245.569132 56.7500151,239.007853 C56.0457855,233.723054 55.8364199,228.363106 55.625997,223.027502 C55.4504683,218.576755 55.5889879,214.113307 55.2886858,209.56095 C55.1216163,209.892242 54.8657251,210.207658 54.7991088,210.560119 C53.6486556,216.673677 52.6409517,222.817931 51.349864,228.901853 C50.2438218,234.110444 48.9559063,239.290456 47.4914048,244.40908 C46.160136,249.055638 45.0540937,253.598469 44.9726737,258.560444 C44.8669335,265.139716 43.5631571,271.695703 42.8282628,278.268625 C42.0849094,284.911405 41.2960876,291.551008 40.7726737,298.211781 C40.6267523,300.082047 39.9690483,301.301372 38.4114955,301.921619 C36.3358157,302.747203 35.4624018,304.348625 34.8829456,306.309918 C34.055,309.113729 33.2979003,311.949294 32.2574169,314.673723 C31.4273565,316.845645 30.4640634,319.04932 29.1275076,320.931229 C26.3518278,324.834762 19.2302266,325.199924 15.833852,321.828788 C14.2223716,320.230541 13.9051511,318.348632 14.4920091,316.215872 C15.946994,310.932132 18.7237311,306.292982 21.5702568,301.695112 C22.1676888,300.729814 22.2755438,300.101099 21.6516767,299.020431 C21.0235801,297.929177 20.7179909,296.483346 20.7528852,295.205807 C21.0034894,285.786736 21.1124018,276.351788 21.7711631,266.956002 C22.7778097,252.609885 24.1820393,238.291288 25.434003,223.962106 C26.0599849,216.795398 26.7483535,209.633982 27.3204079,202.464099 C27.3701057,201.829034 26.7599849,201.148456 26.4755438,200.48058 C26.2037915,199.843398 25.6972961,199.177638 25.7417069,198.557392 C26.2725227,191.256262 26.678565,183.937138 27.5403474,176.673054 C28.4084743,169.354989 29.9269033,162.11419 30.8204079,154.797184 C31.3501662,150.45334 31.4823414,146.020586 31.3332477,141.642872 C31.0858157,134.343859 30.4693505,127.057547 30.0083233,119.765944 C29.7735801,119.71408 29.5388369,119.663275 29.3040937,119.611411" id="Fill-1" fill="url(#linearGradient-3)" mask="url(#mask-2)"></path>
                    </g>
                    <path d="M28.0223508,191.277825 C31.6280909,183.081254 28.8302057,175.184222 25.4792994,167.672462 C22.2246166,170.75676 18.8250698,173.979715 15.5788462,177.055546 C17.2664595,180.65954 18.7817163,184.085715 20.4894202,187.413455 C20.9663085,188.343825 21.886248,189.263611 22.8294505,189.689105 C24.4451604,190.420488 26.2395713,190.758131 28.0223508,191.277825 M62.8066408,188.140605 C67.0944051,188.184001 69.3815653,186.250228 70.6187254,182.507579 C72.6806589,176.270183 75.0428946,170.13228 77.2814142,163.946747 C73.1321695,161.674273 68.7555834,159.276903 64.0924414,156.723942 C63.1714444,167.292481 61.5990879,177.652507 62.8066408,188.140605 M29.2584535,198.831923 C27.6934988,199.396072 26.4489369,199.920001 25.1567918,200.272462 C24.6767314,200.403709 23.959813,200.306332 23.5706891,200.017377 C22.1009006,198.924007 20.5274867,197.877209 19.3442541,196.508644 C15.8061876,192.417767 12.4119278,188.200936 9.01238097,183.991514 C8.13790967,182.908728 7.3353417,181.734916 6.70407281,180.497598 C5.38443535,177.909709 5.34742629,175.267838 7.3374565,173.009124 C10.7433477,169.144754 14.3258251,165.435975 17.7422903,161.580072 C18.3291483,160.918546 18.7880607,159.836819 18.7394202,158.981598 C18.6410819,157.259514 18.9783931,155.741709 20.2261272,154.635637 C22.5841332,152.545215 25.0870033,150.618851 27.4999943,148.58876 C28.6906287,147.587475 29.8252208,146.518449 30.9651,145.458949 C31.3330758,145.118131 31.5688764,144.587851 31.9823205,144.35076 C32.9667616,143.786611 34.1267314,143.415098 34.1002964,141.993611 C34.0537707,139.55602 34.1161574,137.099377 33.7968221,134.695657 C33.7090577,134.034131 32.4919882,133.425527 31.6904776,132.971455 C27.7897224,130.759312 26.2459157,127.092871 25.6865502,122.959657 C25.3217465,120.269098 25.5289973,117.505507 25.2583024,114.796955 C24.8765804,110.97704 26.6456136,107.384689 30.1012027,105.701767 C33.7978795,103.902416 37.7863991,103.472689 41.6258251,104.68778 C45.1395713,105.800202 49.0657042,106.544286 51.1868523,110.405481 C51.5252208,109.931299 51.7218976,109.652929 51.9143447,109.384085 C52.4081514,110.538845 52.751807,111.749702 53.3978795,112.77004 C55.1235592,115.494468 54.0608704,118.299338 53.6326227,121.002598 C53.1906287,123.786299 52.3087556,126.514962 51.4321695,129.20552 C51.1593598,130.042747 50.4181212,131.002754 49.6419882,131.348864 C46.6347375,132.690968 47.0407798,135.169838 47.1634384,137.297306 C49.3956136,137.574618 51.4829248,137.89215 53.58081,138.062559 C54.3664595,138.126066 55.2409308,137.994819 55.9715955,137.69528 C58.4501453,136.681293 60.7235592,137.071858 62.8277888,138.570611 C64.7956136,139.970929 66.7750698,141.378657 68.5800547,142.975845 C69.3160063,143.626786 70.0001453,144.787897 69.9959157,145.714033 C69.9906287,147.119644 70.5912329,147.805514 71.6391181,148.407767 C75.4975773,150.624144 79.362381,152.833111 83.2007496,155.086533 C84.2359459,155.694079 85.2721997,156.351371 86.1635894,157.14626 C89.3854928,160.016754 90.0463689,162.527377 87.9759761,166.275319 C85.4910819,170.777929 82.5610215,175.031806 79.9175169,179.449741 C77.7963689,182.99552 75.8253719,186.62915 73.7697828,190.214092 C72.4173659,192.573358 70.8397224,194.658488 68.0238613,195.474546 C67.2931967,195.686235 66.7010517,196.380572 66.0073961,196.881215 C70.2422903,203.932553 70.0286952,211.546981 69.8404776,219.199514 C69.583529,229.628338 71.0015048,239.885696 73.2706891,250.04991 C74.8155532,256.968942 77.0815653,263.621247 80.1163085,270.018468 C80.3330758,270.477832 80.5170637,270.953072 80.6999943,271.428312 C82.0291483,274.862955 81.7246166,275.645144 78.446671,277.228572 C78.1643447,277.364053 77.875674,277.48789 77.525674,277.647715 C77.7646468,286.485702 76.4206891,295.343799 78.4434988,304.093936 C78.6422903,304.957624 78.909813,305.806494 79.1583024,306.659598 C79.4617767,307.694754 79.6912329,308.741553 81.1155532,308.874916 C81.5110215,308.91302 81.8768825,309.493046 82.2163085,309.860325 C85.322955,313.234637 88.4190275,316.594131 92.5016559,318.88354 C93.8963689,319.66467 95.5765804,320.623618 95.112381,322.669585 C94.6037707,324.915598 92.6264293,324.754715 90.9271846,324.718728 C87.9410819,324.655222 84.8661574,324.858442 81.9963689,324.208559 C78.7586045,323.474001 75.7037707,321.929735 72.5738613,320.723111 C71.1590577,320.176955 69.7220486,319.668903 68.3569429,319.013728 C66.4715955,318.107702 66.1522601,316.717968 67.267819,314.963072 C67.4930456,314.609553 67.6664595,314.211579 67.8007496,313.814663 C68.4034686,312.029072 68.7450094,310.104825 69.6342843,308.478001 C70.7815653,306.38017 71.1495411,304.308799 70.5425925,302.065962 C68.9321695,296.118579 67.2709912,290.184955 65.6320184,284.24604 C65.5654021,284.00154 65.5030154,283.751747 65.4596619,283.501955 C65.1107193,281.448579 64.2161574,279.762481 63.0657042,277.948312 C60.8789973,274.502027 59.088816,270.671527 57.8738613,266.769053 C54.7037707,256.584728 51.9344354,246.275507 49.0064897,236.017092 C48.8373054,235.426481 48.6723508,234.833754 48.2694807,234.227267 C42.1418372,249.225384 42.0128341,265.136936 41.24939,281.001916 C40.4119278,280.898189 39.6685743,280.806105 38.9167616,280.712962 C35.8587556,287.556845 32.6960668,294.272657 29.8632873,301.125007 C28.3829248,304.706773 27.9250698,308.443072 30.13081,312.146559 C30.8149489,313.29391 30.6013538,314.968364 30.83081,316.39726 C30.9238613,316.979403 31.0137405,317.588007 31.2558855,318.11617 C32.0732571,319.913403 31.5149489,321.060754 29.5746166,321.281968 C21.5436499,322.196462 13.5052813,323.024163 5.4140426,322.12978 C4.09546254,321.983715 2.73564381,321.774144 1.52068913,321.283027 C0.840779762,321.009949 -0.0865616279,320.005488 0.00648973161,319.493202 C0.134435351,318.778754 1.01948067,317.82404 1.74168611,317.653631 C6.02945046,316.645994 9.67537191,314.377754 13.4767314,312.296858 C19.2078492,309.159637 21.3956136,304.005027 22.1928946,298.065053 C23.0705381,291.515416 23.6076982,284.920267 24.2083024,278.335702 C24.2802057,277.539754 23.7758251,276.701468 23.6129852,275.869533 C23.3962178,274.760286 23.038816,273.624579 23.1096619,272.523799 C23.588665,265.089306 24.1078492,257.656929 24.7221997,250.23302 C25.3682722,242.430189 26.0270335,234.625241 26.8877586,226.844637 C27.5010517,221.287819 28.6462178,215.788157 29.1907798,210.226046 C29.5481816,206.58289 29.2584535,202.87517 29.2584535,198.831923" id="Fill-6" fill="url(#linearGradient-3)" transform="translate(47.595575, 214.367769) scale(-1, 1) translate(-47.595575, -214.367769) "></path>
                </g>
                <path d="M50.0499634,310.864039 C50.3690582,310.369421 50.6910577,309.895344 51.169285,309.573344 C51.4568438,309.379771 51.6429479,309.148853 51.7066424,308.821666 C51.7728265,308.481409 51.9462747,308.262939 52.32118,308.223726 C52.32118,308.130363 52.3325911,308.048411 52.3188978,307.970193 C52.2869468,307.7955 52.3734635,307.691763 52.4921385,307.575163 C52.9116507,307.164365 53.4388419,307.001913 53.9905149,306.891122 C54.510652,306.786347 55.0357684,306.704188 55.5525858,306.587795 C56.1750075,306.448165 56.7326973,306.185088 57.2061527,305.73404 C57.5171561,305.438182 57.8428901,305.161204 58.1474618,304.854143 C58.5244418,304.475088 59.0213418,304.209937 59.4831786,303.923208 C59.615547,303.841048 59.8062155,303.848725 59.9713647,303.824658 C60.0954341,303.806192 60.2238604,303.813869 60.3464775,303.78918 C60.6998055,303.719261 60.7105942,303.617599 60.5137014,303.315102 C60.1981337,302.831895 59.8392038,302.369851 59.7435584,301.765687 C59.6674155,301.287874 59.0360724,300.86276 58.4702911,300.86276 C57.9816901,300.86276 57.4926742,300.88745 57.0049031,300.873549 C56.6297903,300.862345 56.2542625,300.818568 55.881432,300.771057 C55.5799724,300.732674 55.4378528,300.499059 55.3384728,300.246356 C55.0563083,299.526214 55.2405451,298.762087 55.8169076,298.22307 C55.896785,298.148587 55.9770774,298.074519 56.0685734,297.989869 C55.9889034,297.859368 55.9210595,297.747747 55.8380699,297.611645 C56.1281184,297.484048 56.3938925,297.374709 56.6521974,297.25064 C56.8978465,297.132587 57.1358191,296.998559 57.4329217,296.842746 C57.2708846,296.75042 57.1698448,296.692743 57.0590537,296.629671 C57.1632056,296.370121 57.4061576,296.326551 57.601598,296.262649 C57.875671,296.173228 58.0711114,296.046669 58.1341834,295.752886 C58.1482917,295.687947 58.193521,295.629439 58.2339784,295.549354 C58.4891712,295.515951 58.7478912,295.481303 58.9671911,295.452879 C59.0460312,295.152249 59.0559899,294.846848 59.2001843,294.632527 C59.3945873,294.343723 59.468448,293.939772 59.8597438,293.803669 C59.8726071,293.799312 59.8879602,293.790391 59.8929396,293.779394 C60.0024858,293.541214 60.1184637,293.305732 60.2168063,293.062987 C60.3093397,292.833106 60.3516643,292.577706 60.4717917,292.36546 C60.6910916,291.978314 60.9215951,291.589093 61.2039671,291.246968 C61.4933931,290.8953 61.8556426,290.604629 62.1753598,290.276405 C62.3788917,290.067479 62.5903076,289.857723 62.7484027,289.615601 C63.0813983,289.106253 63.5087945,288.693587 63.9681417,288.304781 C64.1212574,288.17511 64.2776927,288.166396 64.4733406,288.194405 C65.1756397,288.296897 65.7318772,288.717239 66.3401906,289.022018 C66.7626075,289.233642 67.1711236,289.472029 67.5906358,289.688839 C68.1970819,290.001917 68.8029057,290.3179 69.4188957,290.611268 C70.0353006,290.904844 70.6699632,291.161281 71.2863681,291.455479 C71.9264251,291.760881 72.5544485,292.092217 73.1876588,292.412349 C73.2745904,292.456126 73.3598622,292.529364 73.4499058,292.536833 C73.8833188,292.573141 74.247228,292.767129 74.6109297,292.984147 C74.7615558,293.074191 74.9599008,293.08083 75.121108,293.157595 C75.5858495,293.3798 75.9445719,293.730846 76.2219645,294.157827 C76.3045391,294.284593 76.3893959,294.351607 76.5329678,294.400779 C77.2653506,294.652237 77.8128742,295.10951 78.1186907,295.843137 C78.18446,295.999987 78.3467045,296.115135 78.4529312,296.258292 C78.83987,296.777392 79.2712082,297.24815 79.8681106,297.558116 C79.8340849,297.695879 79.8058684,297.810197 79.7749548,297.936756 C80.1224736,298.111449 80.4565065,298.275976 80.78639,298.448179 C80.8434453,298.477848 80.8834878,298.54092 80.9297545,298.590714 C80.9753987,298.639885 81.0160636,298.732004 81.0631602,298.735323 C81.4133761,298.758145 81.6279041,299.028069 81.9073714,299.176205 C82.0550928,299.254423 82.2065488,299.353595 82.3658887,299.375588 C82.6285506,299.412518 82.9049059,299.380567 83.0107176,299.711488 C83.018809,299.736592 83.0806363,299.75734 83.1179816,299.758377 C83.4549191,299.765016 83.6130142,300.019379 83.7296146,300.261294 C83.9188308,300.652382 84.2007878,300.90633 84.5960255,301.064633 C84.8026695,301.147 84.949976,301.300115 85.1035067,301.475016 C85.3738451,301.784152 85.637337,302.162377 86.1558142,302.096608 C86.3205485,302.076068 86.4632905,302.155115 86.5740816,302.318812 C86.7423429,302.568403 86.9985732,302.640189 87.3062569,302.598072 C87.5923634,302.559067 87.8865614,302.55388 88.175365,302.567781 C88.8747595,302.599939 89.5805857,302.640604 90.2534235,302.432923 C90.6165028,302.321094 90.9387098,302.074823 91.2777221,301.886022 C91.3254411,301.859258 91.3594668,301.789339 91.4065634,301.782492 C91.7713025,301.727097 91.8916373,301.410906 91.9136296,301.150942 C91.9366592,300.880811 91.8486902,300.544288 91.6876905,300.327478 C91.2816641,299.779747 90.8625668,299.234298 90.2992752,298.822462 C89.6229104,298.328052 88.9614836,297.813309 88.2950775,297.304791 C88.0950727,297.15209 87.8766026,297.013705 87.7087563,296.830505 C86.8321791,295.875918 85.7304927,295.196026 84.7501786,294.369658 C84.2180081,293.920684 83.698701,293.455528 83.2686076,292.894103 C82.9905926,292.530402 82.6424514,292.219606 82.3204519,291.88993 C81.8513535,291.409835 81.3791429,290.933683 80.9073473,290.458152 C80.2272479,289.772451 79.5446588,289.088617 78.7180828,288.576157 C78.363095,288.35582 78.1045825,288.046891 77.8672324,287.71846 C76.9948047,286.513036 75.9049444,285.55098 74.6609309,284.741209 C72.991596,283.654461 71.4679078,282.386796 70.103767,280.931366 C69.7027199,280.502518 69.2958637,280.078649 68.8753141,279.66951 C68.6939819,279.492328 68.6404536,279.308506 68.6840232,279.068043 C68.8163915,278.339603 68.9568513,277.611992 69.0580986,276.879194 C69.1205482,276.426278 69.0898421,275.960914 69.1504245,275.506962 C69.2089321,275.069192 69.3018804,274.629969 69.4350786,274.208383 C69.5184831,273.943646 69.555621,273.687416 69.4991881,273.429318 C69.3149513,272.584484 69.0929542,271.748157 68.9190911,270.901456 C68.7709547,270.176542 68.6555992,269.444575 68.5545595,268.711777 C68.5232309,268.482933 68.5653481,268.237284 68.6085027,268.006158 C68.740871,267.292033 68.8863102,266.580813 69.0354839,265.870214 C69.0637004,265.736809 69.1174361,265.603818 69.185695,265.485143 C69.34462,265.20941 69.3352837,264.917287 69.1410881,264.693008 C68.8962689,264.410221 68.8962689,264.410221 69.0168113,264.090503 C68.6744794,263.72452 68.3223962,263.356046 67.9811016,262.977406 C67.9145025,262.903753 67.8671985,262.797734 67.8483183,262.699391 C67.7761174,262.330295 67.6447865,262.03008 67.2066016,261.997299 C67.14021,261.99232 67.0590877,261.966593 67.0144808,261.921779 C66.6798254,261.583389 66.2335491,261.517827 65.8051155,261.395003 C64.644714,261.061592 63.7166833,260.386265 63.0797385,259.365078 C62.6384415,258.657177 62.2782669,257.89886 61.8790871,257.16461 C61.8058488,257.030167 61.7286685,256.895102 61.6350978,256.774974 C61.2502338,256.283676 60.8767808,255.781174 60.4624554,255.315188 C60.1939842,255.013728 59.8676278,254.745257 59.7259231,254.366825 C59.4302728,253.577387 58.7283886,253.018037 58.5204998,252.186897 C58.4223647,251.794563 58.3061793,251.402438 58.2588752,251.003466 C58.1922761,250.445153 57.8345911,250.147636 57.3974437,249.896385 C57.1793886,249.770863 56.9565616,249.653225 56.743071,249.521065 C56.3542649,249.27998 56.1341351,248.926859 56.0285309,248.480376 C55.8741704,247.828285 55.8986523,247.17661 55.976455,246.5212 C56.031643,246.054176 56.2534326,245.674291 56.5980468,245.364948 C56.8059356,245.178221 57.0327046,245.012657 57.2385187,244.823648 C57.5598957,244.527791 57.78376,244.187326 57.6767035,243.716983 C57.6281546,243.504529 57.7225552,243.353073 57.8663346,243.195601 C58.0806552,242.960533 58.3151007,242.716958 58.43917,242.432304 C58.642287,241.965281 58.9771498,241.620874 59.3267433,241.281032 C59.6068331,241.008826 59.9087076,240.759027 60.1997935,240.498025 C60.5697194,240.166274 60.759973,239.728297 60.8574857,239.261066 C61.0284442,238.441752 61.2369554,237.620155 61.2925584,236.790467 C61.3543856,235.871358 61.272226,234.932331 60.7112166,234.138536 C60.4713768,233.799108 60.1431531,233.524205 59.8730221,233.204903 C59.7418986,233.050335 59.6288253,232.871493 59.5468731,232.686218 C59.3943798,232.341397 59.2833813,231.978732 59.1325478,231.632873 C58.8752802,231.04344 58.4281739,230.856091 57.8337612,231.111492 C57.2563614,231.359008 56.6932773,231.639513 56.1281184,231.914001 C55.5882713,232.17604 55.0397104,232.424594 54.5210257,232.724394 C54.0390638,233.003446 53.5998416,233.356359 53.1257638,233.650557 C52.4854994,234.048284 51.8471022,234.456593 51.173227,234.790834 C50.7808939,234.985444 50.3238289,235.05391 49.8908309,235.161174 C49.6580452,235.218645 49.4356332,235.157232 49.2978705,234.946024 C48.9466172,234.407629 48.4266877,234.357836 47.8880855,234.505349 C47.0411771,234.737513 46.1801604,234.956605 45.3766141,235.301219 C43.6255344,236.052275 42.0686504,237.098358 40.832106,238.579929 C40.4835499,238.997989 40.0903869,239.378911 39.7268926,239.784937 C39.3457631,240.211919 38.9756297,240.648236 38.6009318,241.080612 C38.591803,241.091193 38.5864086,241.105301 38.5760349,241.114223 C37.9469741,241.664236 37.3183282,242.214664 36.6867777,242.76198 C36.6243281,242.816131 36.5380189,242.842688 36.4743245,242.896216 C35.6987871,243.552248 34.8481441,244.11637 34.1375461,244.854769 C33.8713571,245.130917 33.5288177,245.342541 33.1981043,245.546695 C32.6157251,245.905832 32.0138433,246.233848 31.4231652,246.58033 C31.1022031,246.768301 30.8536494,247.020174 30.713812,247.378274 C30.6453456,247.55359 30.6615285,247.689485 30.7519872,247.850485 C31.1827029,248.617516 31.5924639,249.39658 32.0296114,250.160084 C32.2439319,250.535197 32.4995397,250.886865 32.7406244,251.246625 C32.8858561,251.463643 33.0970645,251.537503 33.3541247,251.538126 C34.3053924,251.539993 35.0205549,251.114879 35.5157951,250.324611 C35.9153898,249.686629 35.8722352,249.680405 36.6069003,249.825014 C36.9322193,249.888916 37.2755886,249.862567 37.610244,249.883729 C37.9932408,249.907588 38.0928283,250.004686 38.1496761,250.387061 C38.2930406,251.354304 38.3814244,252.334618 38.595745,253.286093 C38.8293606,254.319936 39.1559245,255.335105 39.4860154,256.343636 C39.9756538,257.838485 40.7024348,259.224618 41.5086784,260.571331 C41.7958222,261.050596 42.0638785,261.542517 42.3261255,262.036097 C42.5923145,262.536732 42.7066326,263.079483 42.767215,263.64236 C42.8234404,264.168721 42.9163887,264.692385 43.0238602,265.210655 C43.1143188,265.647595 43.0856874,266.083083 42.993154,266.500105 C42.8143115,267.304896 42.5618158,268.086036 42.1481129,268.814684 C41.8943723,269.260753 41.7335801,269.759313 41.5232015,270.230693 C41.4329504,270.433188 41.348716,270.646678 41.2163476,270.820956 C40.6806501,271.527197 40.2208879,272.264145 39.9603007,273.126406 C39.8204633,273.58928 39.5627808,274.016054 39.3484602,274.480381 C39.5775114,274.633704 39.5316597,274.805077 39.4511598,275.026037 C39.342651,275.323347 39.314227,275.649704 39.239329,275.960292 C39.1154671,276.47379 39.0042611,276.991852 38.8463734,277.495391 C38.6357874,278.166362 38.249886,278.751438 37.8845245,279.348963 C37.6241448,279.773455 37.4509041,280.252927 37.244675,280.710407 C36.9869924,281.28262 36.7274426,281.854625 36.4830384,282.432855 C36.3153995,282.829338 36.1593791,283.231422 36.0205791,283.638901 C35.7817766,284.339333 35.567871,285.048686 35.3294835,285.749533 C34.6522888,287.739 33.6605636,289.591949 32.8215392,291.510875 C32.5032742,292.238901 32.0885339,292.924809 31.7175706,293.629806 C31.2331191,294.55099 30.9059328,295.523835 30.7007411,296.546059 C30.5909874,297.0913 30.388078,297.617039 30.2349622,298.153566 C30.0320528,298.865202 29.7963624,299.570821 29.6527905,300.294697 C29.5502984,300.810477 29.6011295,301.354888 29.5372275,301.880835 C29.481832,302.335618 29.3814147,302.787703 29.2641919,303.23149 C29.0502863,304.039808 28.7992429,304.838583 28.5853373,305.647523 C28.5183233,305.901471 28.508987,306.172847 28.4948787,306.437376 C28.484505,306.637381 28.4004781,306.764148 28.2444577,306.889462 C28.0303447,307.060835 27.8473527,307.272044 27.6568917,307.471634 C27.2429813,307.906499 26.8359175,308.347381 26.4203473,308.780379 C25.993781,309.224581 25.540658,309.628117 24.9902298,309.929577 C24.440839,310.230621 23.9443539,310.628764 23.3962079,310.932091 C23.0598928,311.118402 22.6785558,311.266953 22.3015757,311.324424 C21.7378691,311.409903 21.1577722,311.446418 20.5882563,311.421729 C19.331587,311.367578 18.0757475,311.282514 16.8230202,311.171308 C15.9881453,311.09724 15.1603245,310.954083 14.3287691,310.846819 C14.079178,310.815075 13.8283421,310.796818 13.5777137,310.77773 C13.4243905,310.765904 13.2702374,310.767979 13.1169141,310.756983 C12.1577624,310.686442 11.1990255,310.550754 10.2411186,310.556355 C8.59398339,310.565899 6.93979408,310.565484 5.30946427,310.856778 C4.47147723,311.006366 3.63639484,311.182719 2.8127235,311.396002 C1.94569012,311.621319 1.21206245,312.121746 0.517647351,312.669477 C0.328638639,312.818858 0.199174933,313.043967 0,313.285882 C0.294612921,313.285882 0.555822546,313.232354 0.779894345,313.301027 C0.99359245,313.366797 1.17284989,313.553108 1.35916144,313.697095 C1.61124221,313.892743 1.89880102,313.969716 2.20918196,314.018887 C3.20152957,314.177397 4.19138749,314.349601 5.18083046,314.525331 C5.56486462,314.59359 5.94122226,314.705418 6.32650127,314.762474 C7.22465573,314.896087 8.12550735,315.011442 9.02594403,315.128872 C9.77347244,315.225763 10.5218308,315.314769 11.2697741,315.408755 C11.3245472,315.415394 11.3828474,315.421826 11.4332635,315.443403 C12.0341079,315.699011 12.6722976,315.742373 13.3113172,315.815611 C13.9746112,315.892169 14.623797,316.086779 15.287091,316.168317 C15.9084753,316.24446 16.5400258,316.251514 17.1676343,316.266244 C17.5284314,316.274543 17.8844566,316.279523 18.3402768,316.419982 C18.0541703,316.563969 17.8533355,316.665009 17.6373552,316.773518 C17.8514683,316.864599 17.8489786,316.852566 18.5552197,316.709409 C18.8510775,316.649656 19.1597986,316.651731 19.4981885,316.623307 C19.4575236,316.732646 19.4255727,316.817917 19.3938292,316.902982 C19.6676947,317.053608 19.9361659,317.149046 20.2397002,316.950701 C20.3021498,316.909828 20.4411573,316.979747 20.5428195,317.006096 C20.6322408,317.029541 20.7702109,317.115435 20.7990498,317.086389 C21.012333,316.872276 21.3046637,316.973315 21.5472006,316.875388 C21.8030159,316.771443 22.0878776,316.741359 22.3563488,316.665424 C22.446185,316.640112 22.5393408,316.587621 22.6044876,316.521437 C22.7495118,316.374961 22.90325,316.278693 23.1196452,316.286162 C23.1941284,316.288444 23.3123885,316.255456 23.3389451,316.20255 C23.486874,315.909597 23.7437267,315.988229 23.9580472,316.031799 C24.5671906,316.155661 25.151852,315.978478 25.7450198,315.918103 C25.8709565,315.90524 26.0004202,315.805652 26.1027048,315.716024 C26.2408824,315.595481 26.3466941,315.435934 26.5678613,315.553986 C26.6025094,315.572452 26.685084,315.547347 26.7186948,315.514566 C26.994635,315.245265 27.3826112,315.085925 27.5263906,314.685293 C27.5519099,314.613715 27.6187165,314.557697 27.7481802,314.519314 C27.7066854,314.740066 27.6645682,314.959989 27.6212062,315.189455 C27.7753593,315.359376 27.9010885,315.295266 27.996319,315.112275 C28.1122969,314.889863 28.2205983,314.663301 28.3280697,314.43674 C28.4320141,314.21827 28.5612704,314.032373 28.842605,313.965359 C28.8755933,314.107478 28.9029799,314.225324 28.9409476,314.387983 C29.0218624,314.309766 29.0841046,314.249183 29.1471766,314.189638 C29.2069291,314.133205 29.2648143,314.03258 29.3283013,314.028638 C29.6768575,314.006854 29.8162799,313.749794 29.9876534,313.508086 C30.0706429,313.390864 30.2102728,313.313476 30.3264582,313.219905 C30.3472056,313.202685 30.3847584,313.202685 30.4007339,313.183182 C30.6787489,312.841473 31.0777212,312.683793 31.4470247,312.475696 C31.6405978,312.366358 31.8082367,312.235442 32.0499438,312.238969 C32.3615696,312.243741 32.5765125,312.013445 32.8265186,311.871117 C32.8839888,311.838337 32.9373096,311.798917 33.0402167,311.73045 C33.1333724,311.906595 33.2344122,312.05328 33.2925049,312.214902 C33.5153319,312.832759 33.7149218,313.458708 33.9437655,314.073868 C34.0084973,314.248353 34.1255126,314.412258 34.2504119,314.55334 C34.5738636,314.920154 34.9159881,315.269747 35.2477388,315.629507 C35.2927607,315.678886 35.3186949,315.746315 35.3823894,315.854409 C35.1282339,316.168732 34.8637047,316.484299 34.6124538,316.809826 C34.2724041,317.250915 33.9145116,317.682046 33.6155418,318.149692 C33.2026687,318.795558 33.7033032,320.227336 34.7080993,320.408668 C35.8898705,320.621951 37.0737165,320.840214 38.2361927,321.136901 C39.6907922,321.507865 41.1771351,321.648739 42.6533118,321.867832 C43.6207625,322.011404 44.5909104,322.135888 45.5591911,322.273236 C45.6679074,322.288381 45.7733041,322.330291 45.8797382,322.36162 C46.4297515,322.524072 46.989931,322.632166 47.5646337,322.61453 C47.7828962,322.607476 47.9992915,322.5415 48.2366416,322.499382 C48.3945292,322.825531 48.6598883,322.989643 49.0364534,322.951675 C49.2242173,322.932588 49.3570006,323.020142 49.4619824,323.167033 C49.5410299,323.277409 49.6246419,323.384881 49.7163454,323.506046 C50.2850313,323.23633 50.0543203,322.552496 50.4676083,322.212031 C51.0439708,322.473033 51.5531117,322.987776 52.2869468,322.756442 C52.4319711,322.933833 52.5747131,323.107696 52.7205673,323.285086 C53.0465087,323.092965 52.9631042,322.781547 53.0637291,322.542952 C53.1904956,322.510171 53.3604167,322.516188 53.4303354,322.435273 C53.5216239,322.329461 53.5546123,322.15788 53.5766045,322.009329 C53.6224563,321.700193 53.5573095,321.380891 53.7994315,321.099141 C53.8817986,321.002873 53.83076,320.736062 53.7649908,320.578589 C53.4427839,319.806579 53.0502433,319.087474 52.1722138,318.806762 C51.9014604,318.720453 51.6668074,318.570864 51.4892097,318.340776 C51.2748892,318.063176 50.9900276,317.967738 50.6418864,317.976452 C50.3518379,317.984128 50.0605445,317.937654 49.7694587,317.917736 C49.6866766,317.91255 49.6020273,317.91006 49.5196601,317.920434 C48.1283402,318.097824 46.7347381,318.105293 45.3378164,317.995539 C44.9757745,317.967115 44.6118653,317.962966 44.248786,317.946575 C43.9527208,317.932675 43.6774029,317.863586 43.4002178,317.624576 C43.6493939,317.56918 43.8469091,317.522914 44.0454616,317.481626 C44.4703681,317.393242 44.876187,317.275812 45.2473578,317.023317 C45.4579438,316.879537 45.7508969,316.863562 45.9870022,316.748829 C46.6675166,316.418323 47.3310181,316.06043 47.6409841,315.300453 C47.6874582,315.185513 47.7706552,315.085925 47.8302003,314.975757 C47.9642284,314.727825 48.1598763,314.675335 48.4295923,314.735294 C49.4912362,314.97306 50.5580669,315.014969 51.6325742,314.802309 C51.7844451,314.772432 51.9628726,314.8104 52.1147435,314.860194 C52.5097738,314.989657 52.8832268,315.173272 53.3265985,315.108333 C53.4878057,315.084266 53.6741173,315.176176 53.839059,315.241323 C54.0741269,315.334479 54.156909,315.311242 54.2533844,315.071817 C54.2793186,315.007293 54.291767,314.937582 54.3089874,314.86953 C54.4075375,314.480724 54.4131392,314.483629 54.8251824,314.542344 C55.0577606,314.575125 55.2965631,314.566203 55.5278964,314.604586 C55.6714684,314.628445 55.8148328,314.689858 55.9424293,314.761851 C56.2092407,314.913515 56.2436814,314.911025 56.3982494,314.65023 C56.4403666,314.579482 56.4783343,314.462466 56.5339373,314.451678 C56.8723272,314.388813 56.8669329,314.131545 56.9022035,313.879465 C56.9208761,313.745644 56.9793838,313.614521 57.0335345,313.487754 C57.1551141,313.202062 57.1495124,312.933384 57.0241981,312.639601 C56.7636109,312.029005 56.3129776,311.646423 55.6951204,311.452435 C55.3797601,311.353678 55.098218,311.216745 54.8913666,310.950971 C54.7253874,310.738725 54.4938466,310.701172 54.248405,310.727314 C54.006283,310.753041 53.7938297,310.73665 53.5739074,310.587684 C53.4421614,310.498263 53.227426,310.498263 53.0541853,310.511956 C52.8772101,310.525442 52.7021021,310.596605 52.5315586,310.656773 C51.8373509,310.902214 51.121566,311.000972 50.3881458,310.984374 C50.319057,310.982922 50.2493458,310.971511 50.1812944,310.958025 C50.1568124,310.953045 50.1371024,310.927319 50.0499634,310.864039" id="Fill-1" fill="url(#linearGradient-3)"></path>
            </g>
        </g>
    </g>
</svg>