<?xml version="1.0" encoding="UTF-8"?>
<svg width="239px" height="366px" viewBox="0 0 239 366" version="1.1" xmlns="http://www.w3.org/2000/svg" xmlns:xlink="http://www.w3.org/1999/xlink">
    <!-- Generator: Sketch 45.1 (43504) - http://www.bohemiancoding.com/sketch -->
    <title>Page 1</title>
    <desc>Created with Sketch.</desc>
    <defs>
        <polygon id="path-1" points="0 0.0877573677 0 365.524771 249.81456 365.524771 249.81456 0.0877573677 0 0.0877573677"></polygon>
        <linearGradient x1="100.469386%" y1="0.540816784%" x2="2.04591788%" y2="99.9387741%" id="linearGradient-3">
            <stop stop-color="#1EB6D5" offset="0%"></stop>
            <stop stop-color="#7B6DD7" offset="100%"></stop>
        </linearGradient>
    </defs>
    <g id="Web" stroke="none" stroke-width="1" fill="none" fill-rule="evenodd">
        <g id="Hello-world-story" transform="translate(-496.000000, -2218.000000)">
            <g id="Page-1" transform="translate(621.000000, 2401.500000) scale(-1, 1) translate(-621.000000, -2401.500000) translate(496.000000, 2218.000000)">
                <g id="Group-3" transform="translate(0.000000, 0.402461)">
                    <mask id="mask-2" fill="white">
                        <use xlink:href="#path-1"></use>
                    </mask>
                    <g id="Clip-2"></g>
                    <path d="M229.455648,124.359458 C229.166844,126.487088 228.104459,136.932131 228.104459,136.932131 C228.104459,136.932131 225.598054,128.614718 226.371636,122.618043 C227.911923,117.783461 229.35938,117.007583 230.033256,116.135151 C230.033256,116.135151 229.744452,122.231828 229.455648,124.359458 M249.427806,84.9724401 C249.747553,79.5206037 251.133123,70.2445505 245.570212,68.5927924 C240.017615,66.9513792 236.857964,65.8099764 236.16346,65.3651397 C235.468956,64.9237513 233.196345,63.2754414 233.196345,63.2754414 C233.196345,63.2754414 233.450767,62.9547452 232.690938,61.8823093 C231.934547,60.8029767 229.789148,58.7132785 229.15653,57.8270533 C228.523912,56.9408282 228.08383,55.9925328 227.327439,55.4821774 C226.56761,54.9787188 225.240488,55.1683779 225.240488,55.1683779 C225.240488,55.1683779 224.673195,54.5994006 223.97869,54.5994006 C223.284186,54.5994006 223.029764,54.4097416 223.029764,54.4097416 C223.029764,54.4097416 222.397146,52.1269359 222.778779,51.1751922 C223.156975,50.2268968 225.556797,49.9096489 226.062203,49.4648121 C226.56761,49.0234237 227.01113,47.8820209 227.01113,46.6164776 C227.01113,45.3509343 227.073017,44.4026389 227.073017,44.4026389 C227.073017,44.4026389 228.08383,45.7302524 229.912921,45.6026636 C231.74545,45.4785231 233.450767,43.8302133 233.825524,42.8198476 C234.210596,41.8060336 235.217971,40.4749717 235.279858,39.8404759 C235.345183,39.2094284 235.345183,37.2404223 235.279858,36.1679865 C235.217971,35.0886539 236.039687,33.7610403 235.974362,32.6817077 C235.912476,31.6092719 235.596167,29.6437141 234.523467,28.3126522 C233.450767,26.9850387 232.061758,26.4746833 230.356441,26.7919312 C228.651123,27.1091792 227.574985,26.729861 227.574985,26.729861 C227.574985,26.729861 225.807781,22.3608055 224.102463,20.3331775 C222.397146,18.3055495 218.34014,14.8330642 213.382341,14.5123679 C208.427981,14.1916717 204.993279,15.715841 202.751611,16.3572335 C200.51682,16.9951777 196.040361,18.9228036 193.08356,22.0470059 C191.722057,23.8918715 192.282474,27.1781461 192.282474,27.1781461 C192.282474,27.1781461 191.165078,29.5023319 190.845331,31.4265095 C190.525584,33.3472387 190.443068,37.9197467 190.443068,37.9197467 C190.443068,37.9197467 190.154265,38.2749264 190.443068,38.6438995 C190.656233,38.9197673 190.77313,39.3990875 191.086001,40.0025482 C191.40231,40.6060089 192.000546,40.9508436 191.904278,41.8818973 C191.735809,43.5267587 190.219589,46.3957834 189.714183,47.5027027 C189.408188,48.1820271 189.421941,50.0510311 192.860081,49.7268865 C193.375802,49.6992997 193.633663,50.5682831 193.568338,51.0510517 C193.506452,51.5372686 193.60272,52.4407355 194.953909,52.3062499 C194.307538,53.5028263 195.177388,54.1787023 195.658727,54.5683655 C196.143505,54.9545804 196.078181,56.1477084 196.043799,56.7270307 C196.012856,57.3098013 195.627784,60.7581482 198.037921,60.7271131 C200.448057,60.6926296 201.383231,59.4995016 202.9579,59.6305388 C204.532568,59.7581276 205.30615,60.7581482 205.725603,61.2409168 C205.725603,61.2409168 204.82481,61.8547225 203.504564,63.6582079 C202.184318,65.4685901 200.131748,68.8824535 200.131748,68.8824535 C200.131748,68.8824535 198.457374,69.2065981 197.267777,69.4652241 C196.078181,69.7238501 195.466192,70.2066187 193.857142,70.5307633 C192.254968,70.8514596 190.192084,71.5583707 188.971544,72.7204636 C187.751004,73.8825565 186.241661,75.0446494 185.499022,76.0101865 C184.759822,76.979172 183.473958,78.5929984 182.861969,78.9792132 C182.253418,79.3654281 177.419392,85.0552005 173.582428,86.9759297 C169.745463,88.9001073 164.230686,90.8242848 163.034213,91.7863736 C161.834302,92.7484624 159.437918,93.231231 159.437918,93.231231 L155.600953,93.7105512 C155.600953,93.7105512 151.041979,82.1689341 150.082738,77.8412587 C149.126935,73.510135 147.686354,67.9789866 147.686354,67.9789866 L147.332225,67.644497 C147.332225,67.644497 146.21483,63.4133753 146.21483,62.5857721 C146.21483,61.7547205 146.534577,60.0960656 146.727113,58.8201772 C146.91621,57.5442889 147.9339,53.4579978 148.126436,52.3096983 C148.315534,51.1613988 149.078801,49.3786034 149.398548,48.4234113 C149.714857,47.4613226 150.560639,45.2716223 150.735985,44.9164425 C150.914768,44.5543661 151.894638,43.1267505 152.162813,42.6370852 C152.430988,42.1439716 153.053291,41.6956865 152.430988,41.2508498 C151.805246,40.806013 151.2242,41.1611928 151.2242,41.1611928 C151.2242,41.1611928 150.203073,41.3405068 149.756114,41.8301721 C149.309156,42.3232857 148.463374,42.992265 148.463374,42.992265 C148.463374,42.992265 148.979095,40.2335875 149.130373,39.5956433 C149.285089,38.9542508 149.233517,37.1680071 149.233517,36.6542034 C149.233517,36.143848 149.285089,33.7127635 149.285089,33.3817222 C149.285089,33.0506809 149.233517,30.9506376 149.181945,30.3920054 C149.130373,29.8264765 149.078801,29.5988856 148.6731,29.4954352 C148.263962,29.3919848 147.318473,30.1609662 147.091556,30.3920054 C146.864638,30.6195963 146.630845,30.9264992 146.630845,30.9264992 L146.479567,29.9540653 C146.479567,29.9540653 145.10431,29.7264744 144.592028,30.6989083 C144.083183,31.6678938 143.804693,32.9989557 143.804693,32.9989557 C143.804693,32.9989557 143.08956,32.84378 142.68386,33.0506809 C142.274721,33.2541333 141.305165,33.9162159 141.229526,34.6576105 C141.150449,35.4024534 141.023238,35.7093563 140.975104,36.5783397 C140.923532,37.4473232 140.947599,37.9335401 140.868521,38.0611289 C140.796321,38.1887177 140.768815,39.2128768 140.768815,39.2128768 C140.768815,39.2128768 139.874899,39.5680565 139.441693,40.2853127 C139.008487,40.9991205 138.754065,41.3853353 138.399937,42.6370852 C138.04237,43.8888352 137.939226,46.3199197 137.915159,47.0061408 C137.887654,47.7027068 137.581659,49.6165394 137.581659,49.6165394 C137.581659,49.6165394 136.615542,51.6096839 136.484892,52.992471 C136.361119,54.3718097 136.460825,57.0546236 136.460825,58.2063715 C136.460825,59.3581194 136.842459,61.5547163 136.794325,62.1443837 C136.739315,62.734051 136.818392,64.5996066 137.200026,65.0340984 C137.581659,65.4685901 138.014865,66.5686127 138.014865,66.9272408 C138.014865,67.2824205 138.372432,69.9928212 138.372432,69.9928212 C138.372432,69.9928212 134.346369,73.3687528 133.73438,73.9825586 C133.118953,74.5963643 129.543287,79.0412835 129.543287,79.0412835 C129.543287,79.0412835 137.536963,94.7519519 140.09494,99.2416996 C142.652916,103.731447 143.450565,109.341908 147.28753,110.466069 C151.124494,111.586782 153.359286,111.266085 159.114733,109.821228 C164.87018,108.379819 183.570226,103.252127 183.570226,103.252127 C183.570226,103.252127 185.168961,109.021211 186.128202,111.745405 C187.090882,114.473048 186.447949,123.931863 184.691059,129.380252 C182.93417,134.832088 177.976371,154.391112 177.49847,159.201555 C177.01713,164.008551 176.697383,168.177602 179.736699,169.301764 C182.139959,170.187989 182.538784,169.870741 182.604108,169.701772 C182.610985,169.653495 182.614423,169.62246 182.614423,169.62246 C182.614423,169.62246 182.617861,169.656943 182.604108,169.701772 C182.538784,170.253507 182.133083,173.553575 182.133083,174.432904 C182.133083,175.394993 179.413514,184.529663 176.697383,191.584981 C173.981252,198.640299 170.78722,207.778418 168.703706,224.771872 C168.06765,229.744388 166.468915,236.316937 165.829421,239.841148 C165.193365,243.368807 164.230686,252.989694 163.271445,256.675977 C162.312203,260.36226 159.596072,272.06595 157.041534,286.176585 C154.480119,300.283772 148.088616,322.08767 147.129375,324.008399 C146.166696,325.932576 146.166696,327.215361 146.166696,327.215361 C146.166696,327.215361 145.898521,328.418835 144.904898,330.829229 C143.918152,333.239624 140.662233,335.298287 138.826266,335.225871 C136.983423,335.156904 132.173464,335.298287 131.255481,336.008646 C130.337497,336.715557 129.911168,337.991446 129.979931,338.915603 C129.979931,338.915603 128.78002,339.977693 137.619479,341.753592 C146.462376,343.526042 150.918206,343.02948 153.324904,340.688053 C155.731603,338.350074 158.984083,333.881016 158.984083,333.881016 C158.984083,333.881016 164.075969,334.87414 164.997391,334.798276 L165.918813,334.729309 L165.918813,343.38466 L165.777849,345.015728 C165.777849,345.015728 167.541615,345.15711 167.613816,343.526042 C167.682579,341.894974 168.181109,336.787972 168.249872,335.7914 L168.322073,334.798276 C168.322073,334.798276 169.803911,334.37413 170.512168,333.312039 C171.223863,332.2465 176.061327,304.290751 177.49847,295.956097 C178.939051,287.617994 182.614423,274.307375 184.371312,266.934809 C186.128202,259.562244 190.12676,246.896466 191.247593,241.444629 C192.364989,235.992793 197.958843,219.482108 200.51682,214.671664 L203.071358,209.86122 C203.071358,209.86122 204.670094,223.489087 205.313026,230.382332 C205.949082,237.275578 206.430421,247.69993 207.22807,255.072496 C208.029157,262.44851 210.047345,286.200723 210.707468,298.469942 C211.371029,310.742608 211.701091,327.32226 211.701091,329.477477 C211.701091,331.632694 211.866122,333.460318 210.707468,335.615535 C209.552253,337.770751 208.562069,342.577747 208.562069,342.577747 L208.637708,342.919133 C208.637708,342.919133 208.352342,344.074329 207.451549,344.650203 C206.54388,345.229526 203.422049,347.57785 202.184318,348.439937 C200.953464,349.30892 197.130252,351.615864 195.772186,352.360707 C194.417559,353.102102 191.003485,357.474606 197.498133,358.212552 C203.996218,358.957395 215.709963,358.791874 217.889744,357.553918 C220.069525,356.319409 220.767467,354.588339 222.208048,351.905525 C223.645191,349.22616 224.75571,346.588174 224.75571,346.588174 C224.75571,346.588174 227.385887,346.464034 228.534226,346.132993 C229.686003,345.8054 229.686003,345.764019 229.686003,345.764019 L229.851034,352.153806 L230.63493,353.184862 C230.63493,353.184862 231.618238,352.812441 231.700754,352.153806 C231.786707,351.495172 231.824527,346.219201 231.824527,346.219201 L231.9483,345.019177 C231.9483,345.019177 234.867281,343.043274 235.486146,342.219119 C236.101573,341.391516 236.263166,340.732881 236.263166,339.825966 C236.263166,338.919051 234.963549,315.670296 235.44145,302.68727 C235.92279,289.700796 235.204219,263.489911 232.807835,252.18623 C230.404575,240.882549 230.404575,234.634144 230.404575,232.227198 C230.404575,229.8237 232.563727,210.343988 232.563727,210.343988 L234.193406,209.395693 C234.193406,209.395693 234.241539,209.764666 236.170336,208.657747 C238.099133,207.550827 238.188525,206.723224 238.738627,206.078383 C239.292168,205.433542 239.797574,204.3749 239.797574,203.036941 C239.797574,201.702431 239.611915,199.216173 239.611915,198.754094 C239.611915,198.292016 239.84227,196.636809 239.84227,195.07126 C239.84227,193.502262 239.611915,191.940161 239.611915,191.940161 C239.611915,191.940161 240.670862,191.891884 240.897779,191.198766 C241.131573,190.509097 243.194457,178.439883 243.833951,172.829422 C244.473445,167.218962 247.509323,142.208102 247.670916,138.039051 C247.82907,133.869999 246.55352,134.349319 248.306972,123.131847 C250.0673,111.907478 249.58596,99.7210198 249.58596,98.4382348 C249.58596,97.1554497 249.108059,90.4242766 249.427806,84.9724401 M128.035332,3.59834999 L127.877177,3.69835205 C127.877177,3.69835205 127.994074,2.29142651 127.897806,1.7534844 C127.794662,1.21899063 127.103596,0.605184881 126.453787,0.763808838 L126.11685,0.846569164 C126.11685,0.846569164 125.700835,0.132761356 125.267629,0.0913811928 C124.830985,0.05000103 124.298073,0.367248945 124.098661,0.825879083 C123.902687,1.28106087 123.861429,1.35692451 123.861429,1.35692451 C123.861429,1.35692451 123.228812,1.35692451 123.053466,1.83624472 C122.874683,2.30866825 122.262694,3.56041817 122.221436,3.68111032 C122.183617,3.79835411 121.093726,4.92941189 120.777417,5.26734989 C120.464547,5.60528789 120.302954,6.01908951 120.027903,6.7535874 C119.752852,7.48463695 119.433105,8.3191369 119.078976,9.25019056 C118.72141,10.1846926 118.205688,11.729552 117.872189,12.3054259 C117.535251,12.8812998 117.060788,13.6364878 116.943891,14.3502956 C116.823556,15.0641034 116.548505,16.4296488 116.328464,17.2813905 C116.111861,18.1331322 115.675217,19.1883263 115.462052,19.5435061 C115.242011,19.8986858 114.767548,21.4469935 114.767548,21.4469935 C114.767548,21.4469935 114.392791,21.0090535 113.502312,20.8124977 C112.611834,20.6124936 112.099551,21.3676816 111.759175,21.6469977 C111.425675,21.9228654 111.724794,22.3987373 111.84169,22.6366732 C111.958587,22.8746092 112.278334,23.1504769 112.47087,24.0056669 C112.67372,24.860857 112.532757,25.8505325 112.532757,26.2057123 L112.532757,27.4367721 L112.17519,28.6264518 C112.17519,28.6264518 104.260591,34.792096 101.860769,36.3955774 C99.4643849,37.9990587 93.3926289,43.2888228 93.3926289,43.2888228 C93.3926289,43.2888228 89.7138186,46.6578577 88.7545774,46.978554 C87.7953363,47.2958019 86.3581936,48.261339 84.9210509,48.261339 C83.48047,48.261339 83.160723,48.0992667 81.7235803,49.5441241 C80.2829994,50.9855331 76.6076273,52.4303904 76.6076273,52.4303904 C76.6076273,52.4303904 75.1704846,52.1096942 74.3693979,53.5511032 C73.5717493,54.9959605 72.1311684,55.6339047 72.1311684,55.6339047 L70.2126861,55.4718324 C70.2126861,55.4718324 71.4641692,54.7580246 71.5123031,53.1510949 C71.5673134,51.5476136 70.8453039,50.9234628 71.1547365,49.9924092 C71.4641692,49.0579072 72.4440392,48.588932 72.5471834,48.0199548 C72.6503276,47.4509775 72.2893229,46.4130251 72.2893229,46.4130251 C72.2893229,46.4130251 73.2176208,46.0509487 73.2726311,45.4819714 C73.3242032,44.9129942 73.3242032,44.0302174 73.5304916,43.7715914 C73.73678,43.5129654 75.8546745,43.0474385 76.5801222,42.733639 C77.3021316,42.4232877 78.3851459,41.0784324 77.3021316,39.0542528 C76.2156793,37.0335215 74.4622276,34.6472655 74.7716603,33.9231126 C75.0776548,33.1955114 76.0093908,31.5920301 76.0644011,30.7609785 C76.1125351,29.9333753 75.644948,27.7574684 75.2873814,26.8229664 C74.9229385,25.8884644 73.8914963,21.0159502 73.8914963,21.0159502 C73.8914963,21.0159502 74.4622276,18.7400412 74.7200882,17.2848388 C74.9745106,15.8365331 71.8251739,12.1054218 70.1198563,10.8088434 C68.4145386,9.51226492 60.541197,6.43289114 57.8044372,6.01908951 C53.489571,5.3639036 48.0710616,6.36737255 45.0592506,8.9225976 C42.0440015,11.481271 38.5680415,13.9227006 37.8735371,17.0606963 C37.1790327,20.198692 35.4427718,24.8505119 36.3710697,28.4540344 C37.2959295,32.0541086 38.5680415,34.8438212 39.2625458,37.5162901 C39.9604884,40.1922073 40.7718895,44.3785004 40.4211992,45.6543888 C40.0773851,46.9337255 39.8435916,47.2820085 39.8435916,47.2820085 C39.8435916,47.2820085 33.4727173,47.9820229 30.4609063,51.1200186 C27.4456572,54.2580143 22.8110438,58.6718983 21.5389319,60.9995325 C20.2633818,63.3237183 18.6405795,75.4136225 18.1798687,78.7826574 C17.7157197,82.1551407 18.0595338,90.7553179 21.1916797,99.3554951 C24.3203875,107.955672 29.2988149,120.397308 29.1853562,120.859386 C29.0718976,121.324913 29.766402,125.511206 29.2988149,127.718148 C28.8346659,129.92509 29.0718976,132.832047 28.4908518,136.552813 C27.9098061,140.270131 26.4039006,143.642614 24.9014332,149.453079 C23.3920896,155.266992 22.6975852,158.870514 21.6523905,167.239652 C20.6140721,175.605342 19.9161296,183.164118 19.7992328,184.326211 C19.6857742,185.488304 22.3468949,187.695246 22.3468949,187.695246 C22.3468949,187.695246 23.8596767,202.16451 24.8154797,208.578435 C25.778159,214.99236 26.7339621,234.551384 25.458412,240.323916 C24.1794237,246.096449 20.342459,253.789711 17.7810444,273.990127 C15.226506,294.190543 15.5462531,313.108174 16.1857472,317.918618 C16.8252413,322.725614 15.9141341,327.67744 15.666588,328.663667 C15.42248,329.653343 14.6832799,334.225851 12.7132254,335.953473 C10.7397328,337.684543 9.62921341,342.381191 14.1881876,344.481234 L13.8203066,346.581278 C13.8203066,346.581278 12.4622411,348.805461 12.4622411,350.660672 C12.4622411,352.512434 15.42248,355.850434 21.2123085,357.333223 L22.446601,356.219407 C22.446601,356.219407 24.6607634,360.543634 30.2064839,362.519537 C35.7522045,364.498888 45.48558,366.229958 50.9075275,365.240283 C56.3260368,364.250607 59.2862758,360.791915 59.5303837,360.174661 C59.7779298,359.553959 58.9149566,358.443591 58.9149566,358.443591 C58.9149566,358.443591 59.4100488,357.084942 57.3127831,355.478013 C55.2189556,353.874531 49.181581,349.915829 47.8269537,348.684769 C46.4688882,347.446813 44.1275146,345.222629 43.7596335,344.605375 C43.3917525,343.984672 41.665806,341.143235 41.665806,341.143235 C41.665806,341.143235 41.909914,341.022542 40.5552866,337.932824 C39.2040975,334.843105 39.9432976,333.236175 40.3111787,331.629246 C40.6824978,330.025764 44.0037415,314.456478 44.8701529,311.242619 C45.729688,308.032208 47.0877535,302.466576 47.0877535,302.466576 C47.0877535,302.466576 46.9674186,310.873646 46.4688882,313.715083 C45.9806723,316.553073 46.7164343,320.511775 46.5926613,323.598046 C46.4688882,326.687764 47.1805833,332.670646 46.9708567,334.012053 C46.757692,335.356909 46.8298929,336.977632 46.8298929,336.977632 C46.8298929,336.977632 46.5479654,338.605251 46.4757645,340.015625 C46.4070017,341.429447 46.1250742,344.750205 52.5337679,345.105385 C58.9424617,345.453668 64.0824817,343.76053 64.0824817,343.76053 L65.2823927,341.36048 C65.2823927,341.36048 70.8453039,342.277741 75.424907,344.043294 C80.0010719,345.808848 89.1568399,344.750205 93.3135517,343.901912 C97.4668253,343.053619 99.7910083,341.712212 100.708992,338.956983 C100.777755,338.039722 100.56459,337.474194 99.4368798,337.050047 C99.4368798,337.050047 98.9486638,334.363785 95.9196621,334.08102 C92.8906604,333.798256 89.5797312,333.449973 87.960367,333.094793 C86.3410029,332.743062 84.1543455,332.2465 82.3252548,332.105117 C80.4961641,331.963735 79.0830884,330.836126 78.5914343,330.270597 C78.0963421,329.705068 76.8311064,328.715392 76.8311064,328.715392 C76.8311064,328.715392 77.0442711,328.291246 77.0442711,327.587783 C77.0442711,326.877424 73.6611409,322.073876 73.8021047,320.804885 C73.9430684,319.535893 68.9336978,288.418011 77.8866155,256.355281 C86.8360951,224.289103 83.6420626,194.150551 83.6420626,194.150551 C83.6420626,194.150551 88.5139076,194.029859 88.9230463,191.991886 C89.3253088,189.953913 89.1224585,174.067379 89.1224585,170.198334 C89.1224585,166.32584 86.6848169,136.787301 86.6848169,131.494088 C86.6848169,126.197427 85.0620146,98.7003091 85.4677152,95.031268 C85.8734158,91.3656753 80.9981326,82.4034217 79.3718922,80.1619962 C79.3718922,80.1619962 85.6705655,77.306765 87.9053568,75.4756928 C90.1367099,73.6446206 101.513517,64.8823711 107.808752,59.3822578 C114.103987,53.8855928 127.306446,42.0715564 127.505858,41.2542981 C127.712147,40.4404883 125.480794,37.9956103 125.480794,37.9956103 C125.480794,37.9956103 125.209181,34.5507118 124.827547,32.7334329 C124.714088,31.8541045 124.057403,31.0265012 124.057403,31.0265012 C124.057403,31.0265012 126.089344,27.3884953 126.639447,25.4056958 C127.189549,23.4228963 127.629631,20.6676671 127.574621,18.5710722 C127.516173,16.4779257 128.344765,14.4951262 128.671388,12.9502668 C129.001449,11.4088557 129.51717,9.07087652 129.792222,7.30877125 C130.074149,5.54321764 130.032892,4.21560409 129.596248,3.77766403 C129.163042,3.34317232 128.035332,3.59834999 128.035332,3.59834999" id="Fill-1" fill="url(#linearGradient-3)" mask="url(#mask-2)"></path>
                </g>
                <path d="M203.018067,63.87032 C203.877602,62.6392602 204.988122,61.1392293 205.455709,61.5150991 C206.738135,62.5427064 206.865346,63.6806609 206.865346,64.4324005 C206.865346,65.1875885 206.772516,66.7876215 206.772516,66.7876215 L206.394321,69.4221585 C206.394321,69.4221585 206.772516,68.0117846 209.213596,66.2255409 C211.654676,64.4324005 219.349234,60.0081715 220.851702,58.7840083 C222.350731,57.5632935 223.007416,56.2425767 223.007416,56.2425767 L222.914586,53.9839094 C222.914586,53.9839094 224.417053,54.0770148 225.0703,55.0218619 C225.726985,55.9598122 226.387108,56.7150002 226.008912,57.3736344 C225.634155,58.0322687 217.939597,67.0703859 211.27648,73.094648 C204.613364,79.11891 202.73614,81.0982611 199.920303,85.5224902 C197.104466,89.9467193 193.913871,103.126301 193.913871,103.126301 C193.913871,103.126301 193.350016,86.7466533 194.099531,85.9018083 C194.852484,85.053515 200.858915,76.8636911 200.766085,75.3533152 C200.669817,73.8498359 200.013132,72.8118835 199.827473,70.4601109 C199.641813,68.1083383 201.378074,66.2220926 203.018067,63.87032" id="Fill-4" fill="#F5F5F5"></path>
            </g>
        </g>
    </g>
</svg>