<?xml version="1.0" encoding="UTF-8"?>
<svg width="409px" height="395px" viewBox="0 0 409 395" version="1.1" xmlns="http://www.w3.org/2000/svg" xmlns:xlink="http://www.w3.org/1999/xlink">
    <!-- Generator: Sketch 45.1 (43504) - http://www.bohemiancoding.com/sketch -->
    <title>Page 1 Copy 5</title>
    <desc>Created with Sketch.</desc>
    <defs>
        <polygon id="path-1" points="408.315559 0.0594824264 408.315559 393.513166 0.846487665 393.513166 0.846487665 0.0594824264 408.315559 0.0594824264"></polygon>
        <linearGradient x1="0.508211097%" y1="99.4917889%" x2="100%" y2="5.55111512e-15%" id="linearGradient-3">
            <stop stop-color="#FAAE61" offset="0%"></stop>
            <stop stop-color="#E8B90E" offset="100%"></stop>
        </linearGradient>
    </defs>
    <g id="Web" stroke="none" stroke-width="1" fill="none" fill-rule="evenodd">
        <g id="Hello-world-story" transform="translate(-702.000000, -3059.000000)">
            <g id="Page-1-Copy-5" transform="translate(702.000000, 3059.000000)">
                <g id="Group-5" transform="translate(0.017404, 0.751530)">
                    <mask id="mask-2" fill="white">
                        <use xlink:href="#path-1"></use>
                    </mask>
                    <g id="Clip-4"></g>
                    <path d="M27.008241,167.371991 C26.9271013,168.416573 26.8279306,169.45519 26.8225213,170.501476 C26.8144073,171.499196 26.851371,172.494361 26.8793191,173.490377 C26.913578,174.553703 26.9370184,175.616178 26.8567803,176.676948 C26.7765422,177.713009 26.6422109,178.749923 26.6187706,179.791097 C26.5890194,181.232722 26.8360446,182.663271 26.8216198,184.108304 C26.8053918,185.515848 26.6972056,186.942137 26.366336,188.318156 C26.0940674,189.447088 25.6847628,190.668039 24.7750969,191.491094 C24.7516566,191.509839 24.714693,191.518359 24.6894495,191.501318 C24.1917929,191.174993 23.6445509,190.829071 23.3181891,190.357902 C22.0848661,189.332917 21.2590445,187.803533 20.8803927,186.16935 C20.7217196,185.753563 20.606321,185.320734 20.5504247,184.880238 C20.4485494,184.076779 20.6027148,183.365339 20.7217196,182.579772 C20.8317089,181.828287 20.7875329,181.09299 20.7172118,180.355137 C20.3773268,178.749923 20.2484049,177.134485 20.2835654,175.513083 C20.2736483,175.492634 20.276353,175.470482 20.2844669,175.450885 C20.4278137,169.359763 22.8187293,163.19196 24.5289733,157.314696 C24.6524859,156.660342 24.7769,156.009395 24.9112313,155.355892 C25.1122774,154.382881 25.3538933,153.403905 25.4783074,152.419817 C25.5612502,151.75609 25.5801828,151.043797 26.0877565,150.527471 C26.1256217,150.491686 26.1896319,150.511282 26.2049583,150.558996 C26.7512987,152.184658 26.8973501,153.911711 26.9938162,155.605535 C27.1020024,157.474877 27.243546,159.348478 27.2570693,161.218671 C27.2732973,163.272902 27.1633079,165.323724 27.008241,167.371991 M392.405422,122.163582 C359.620488,110.410759 382.287305,97.9166754 386.75179,97.0561308 C390.948514,96.2484118 296.317119,64.0129251 189.338971,110.438024 C159.029698,123.590723 137.439333,111.313053 123.633869,96.6215984 C123.496833,95.6204699 123.431921,94.6167853 123.503144,93.6182129 C123.086627,91.2691819 122.998275,88.8792538 122.537582,86.536187 C122.087707,84.2595781 121.127555,82.2275002 119.795962,80.290849 C118.431013,78.3081885 116.871328,76.4388473 115.207965,74.6717489 C114.447055,73.8614738 113.71229,73.027342 112.841391,72.3176058 C111.992129,71.624058 111.064432,71.0157127 110.067316,70.5257987 C108.55361,69.7811295 106.954257,69.3039959 105.317039,68.9614822 C105.326956,68.7365477 105.308023,68.5141694 105.224179,68.3199079 C104.676035,67.0486876 102.845885,66.5996708 101.607153,66.2333004 C100.790347,65.9913255 100.094349,65.6377354 99.3406514,65.272217 C98.5923633,64.9101067 97.7566247,64.7601504 96.9353109,64.6340508 C96.1158002,64.5079512 93.7068535,63.1174476 93.2966474,62.7757859 C92.8314467,62.3881148 92.2156867,62.3020604 91.6242687,62.255199 C90.7939394,62.1895932 90.0213094,62.1103549 89.2513841,61.7831776 C87.8936469,61.2063571 86.7919505,60.1617754 85.5523166,59.3992136 C84.3496464,58.6605086 83.2993384,57.6849408 81.7576847,58.077724 C81.5160688,58.1390697 81.2996963,58.2319404 81.1013549,58.3444076 C69.3315949,48.7872512 77.2273864,41.9182314 81.7090009,34.9665653 C84.6958423,30.3324053 88.6852095,21.3094681 85.1980067,13.3260006 C84.0034505,10.5927067 79.6669858,6.72877657 77.5816963,5.79751403 C74.8463878,4.57826728 71.3159106,2.0562754 68.377753,1.54591286 C65.2908393,1.00828554 61.7197922,1.86201387 57.8557408,1.27667318 C57.1714629,1.17357825 56.4826772,1.0457746 55.79299,0.912858816 C54.4821335,0.345410644 52.9314643,0.119624209 51.3438314,0.164781496 C49.8553692,0.00800902825 48.3605962,0.00119283399 46.8703309,0.318145867 C42.8367877,1.17698634 39.047565,5.81114641 43.0639788,10.0516713 C41.1193313,12.4237069 40.6018405,15.8931497 39.1359171,18.6324078 C37.6699937,21.3716659 39.7444647,21.6392015 39.3982687,22.3992072 C39.0520728,23.1609169 35.6045383,27.9492933 35.1790059,28.6368769 C34.8283022,29.2034731 34.3892464,29.7249119 34.0818172,30.3145127 C33.7446368,30.9594951 33.730212,31.585733 33.9537968,32.2707605 C34.1169777,32.7700467 34.3631014,33.3656117 34.8616596,33.6484838 C34.9707474,33.691937 35.0852445,33.7294261 35.2141664,33.7600989 C35.6964966,33.8751222 36.1842362,33.9671408 36.6791882,34.0259305 C37.3129792,34.0983526 38.0982309,34.2218961 37.917019,34.9946821 C37.7917033,35.5237892 37.3454351,35.8858995 37.1470936,36.3800736 C37.0425136,36.6450532 37.0289903,36.9057726 37.0641509,37.1639359 C37.0713633,37.2073892 37.075871,37.2508424 37.0875912,37.2951477 C37.2192178,37.8881566 37.5491858,38.3644382 37.7736722,38.9225141 C37.961195,39.3817552 37.4959942,39.867409 37.5338594,40.3326143 C37.5780355,40.8770578 37.9548841,41.272397 38.1108526,41.7802035 C38.4723749,42.9423646 37.8800553,44.1113419 37.2552799,45.1934128 C37.013664,45.8307269 36.7999962,46.4527047 36.7666387,47.0235609 C36.3879869,53.5023536 41.9956398,52.4390273 48.1604516,52.3384884 C47.6943493,57.094488 49.2071534,60.6176084 48.9988949,60.780345 C49.1160966,60.1353626 48.8068643,59.5500219 47.8791674,59.6309642 C46.6936267,59.7340592 45.8506757,60.7973855 45.065424,61.5224581 C44.614648,61.939098 44.0205253,62.0924624 43.4218949,62.220266 C42.6826223,62.3787426 42.0199817,62.5619278 41.3672581,62.9410786 C40.7010112,63.3278976 38.4065616,64.4483095 37.8656305,64.780599 C37.5428749,64.9825288 34.7246237,66.1608783 34.2134438,66.6431241 C34.2116407,66.6448281 34.2116407,66.6456802 34.2098376,66.6473842 C33.6689064,66.8919152 29.9644297,68.0745249 29.1936028,69.4249834 C28.728402,69.8876325 28.4101542,70.4405963 28.33803,71.1017672 C25.6234573,72.0705188 23.3317124,73.7907558 20.893916,75.2613497 C20.3836376,75.7035503 19.8832763,76.1542711 19.3883244,76.6160683 C18.7581396,77.3564774 18.1405765,78.1045547 17.5176042,78.850928 C16.7296478,79.7932669 15.9380852,80.7143051 15.3556827,81.7912638 C14.570431,83.2490773 14.1476032,84.8244702 13.8347647,86.4254239 C13.4867656,88.2070066 13.1504868,89.9868854 12.7538039,91.7599479 C11.8179931,95.9365709 10.6468771,100.062073 9.51813417,104.193538 C8.37316326,108.375273 7.26245132,112.572345 6.47900272,116.82991 C6.29238147,117.848931 6.1138742,118.871361 5.9696259,119.896346 C5.12306866,129.251572 4.64704926,138.953573 2.10196825,148.008035 C1.6007054,152.809192 2.52299299,158.403583 3.64722821,164.129186 C3.70132132,164.309816 3.75361133,164.489593 3.80319668,164.670222 C4.14127865,165.911621 4.37387904,167.182841 4.65606478,168.437021 C4.93734897,169.687793 5.22584558,170.935156 5.53507788,172.181668 C6.56825636,176.351475 7.44186015,180.561327 8.18293581,184.786515 C8.92130681,188.984439 9.56681797,193.205367 9.76065163,197.46208 C9.80933543,198.547559 9.83457888,199.63389 9.82466181,200.720221 C9.82015405,201.575654 9.74893145,202.438754 9.83277578,203.295039 C9.99325202,204.918145 10.8930008,206.199589 12.0505935,207.366863 C13.0927874,208.420817 14.2539863,209.359747 15.3439625,210.365136 C15.4278069,210.373656 15.5062419,210.365988 15.5819722,210.34554 C15.7090911,210.535541 15.829899,210.739175 15.9471008,210.940252 C16.0318466,211.024603 16.1192972,211.106397 16.204043,211.1916 C16.7134199,211.708778 17.2300091,212.262594 17.636609,212.865827 C17.7961837,212.941657 17.9701832,213.008115 18.1613122,213.054977 C21.6349917,212.667306 21.1346304,211.264022 22.1786275,210.072892 C16.7395649,237.1613 28.6770136,257.635443 28.5399777,281.925803 C28.5553041,281.974369 28.5670242,282.02123 28.5832522,282.068092 C29.1512299,283.811333 30.0392585,285.354349 31.0517013,286.896513 C31.889243,288.177106 32.5969612,289.415949 32.8142352,290.924884 C33.0991256,292.892208 32.879147,294.892761 32.9521727,296.870309 C33.0450325,299.405082 33.192887,301.936446 33.3750005,304.464402 C33.6400568,308.164743 33.9718279,311.859121 34.2819617,315.555202 C36.3861838,329.989345 38.1793706,344.884434 35.9426203,359.950779 C23.6526648,370.604491 8.07835579,374.500798 1.96222771,377.136109 C-1.88830045,378.795852 4.72007496,383.442793 14.2359553,383.442793 C18.2370426,383.442793 40.1186087,380.544206 41.9848211,380.544206 C48.8952164,380.544206 55.8083164,382.248255 58.0531806,378.240332 C59.275685,372.225893 56.0291966,366.0206 55.4422863,359.680687 C53.7789231,341.646741 60.7875875,330.770652 62.6123286,316.857947 C64.7760531,300.363609 54.5659779,294.193249 55.1564944,280.269468 C55.714555,267.119326 59.2684726,259.463035 62.0398431,248.287885 C64.9599697,253.53891 67.8332156,259.144378 70.3557578,265.905191 C70.749736,266.957441 71.1004397,268.041216 71.427703,269.142883 C71.8802821,270.094594 72.347286,271.042897 72.7836371,272.000573 C73.9511468,274.563462 74.441591,277.344469 75.1132472,280.045386 C75.4549354,281.421405 75.8254732,282.804241 76.3709121,284.124026 C76.9109417,285.425919 77.4671992,286.7227 77.9747729,288.037374 C78.9114853,290.467347 79.6390377,292.957814 79.8806536,295.546264 C80.1772642,298.727722 80.0149849,301.939002 79.8923738,305.128981 C79.7724674,308.236313 79.5966648,311.367503 80.121368,314.452682 C80.5676362,317.082881 81.4060794,319.621062 82.344595,322.126013 C83.3326958,324.763028 84.3631697,327.383003 85.2052191,330.066027 C85.3593845,330.55935 85.5036328,331.05608 85.6424718,331.551958 C86.3420761,333.107754 86.8298157,334.746197 87.3274723,336.365895 C87.9351183,338.332367 88.4327749,340.320992 88.9728045,342.303652 C89.4515286,344.069899 89.9780349,345.819956 90.4387279,347.589611 C90.987773,349.687295 91.4944452,351.865921 91.6648385,354.053919 C91.9298948,355.813349 92.0993865,357.597488 92.1516765,359.408892 C92.2021634,361.178546 91.1626741,363.243001 91.291596,365.099562 C91.4836266,367.873753 93.1460883,370.191259 92.43837,372.958634 C91.152757,377.987281 87.2274001,380.713759 85.5559228,385.428009 C85.7912279,389.449564 84.638143,392.727301 87.963968,393.040846 C102.388798,394.400677 113.30569,393.282821 112.79992,383.529699 C112.679112,381.190892 111.167209,378.409885 110.385564,375.346006 C109.210842,373.451104 108.024399,371.494856 108.254295,369.220803 C108.426491,367.520163 109.103557,365.872348 109.052168,364.151259 C108.991764,362.178823 108.140699,360.343562 107.770162,358.421396 C107.671892,357.910181 107.609685,357.38363 107.570017,356.856227 C106.729771,353.30925 106.709937,349.658326 107.027283,346.038075 C107.377085,342.046341 108.103736,338.096356 108.82678,334.151484 C109.196417,332.144115 109.586789,330.136745 109.845534,328.113188 C110.114197,326.004428 110.274673,323.882887 110.373843,321.762199 C110.42974,320.602594 110.466703,319.441285 110.495553,318.282532 C110.457688,317.38109 110.409906,316.477092 110.373843,315.57565 C110.244922,312.360963 110.113295,309.145423 109.981668,305.930736 C109.859057,302.935018 109.434426,299.986162 108.725807,297.061163 C107.364463,291.442063 105.221474,286.030856 103.681624,280.457766 C102.903584,277.637565 102.286021,274.780728 101.965069,271.881289 C101.82623,270.641594 101.735173,269.396786 101.675671,268.149423 C100.045665,253.621557 102.206685,237.600092 101.860489,222.891597 C111.291623,231.07955 121.92633,238.58844 133.94041,245.059565 C218.336486,290.514208 215.017874,263.575757 262.319597,316.168659 C269.525702,324.180244 288.353712,316.113278 282.242091,312.162441 C266.134965,301.745592 272.462056,292.798485 279.486949,293.531226 C304.028093,296.098375 327.963394,307.535097 338.704483,317.151895 C349.444671,326.766989 370.925047,309.138607 352.836309,279.755698 C334.747572,250.374492 360.749231,238.621669 317.791184,225.266189 C274.830433,211.91156 324.008286,155.284322 355.098303,161.161586 C386.187419,167.037145 386.75179,185.736522 392.405422,179.325039 C398.057251,172.914409 425.190357,133.917257 392.405422,122.163582" id="Fill-3" fill="url(#linearGradient-3)" mask="url(#mask-2)"></path>
                </g>
                <polygon id="Fill-10" fill="#FFFFFF" points="63.3906424 85.3394783 40.0485622 84.5777686 30.8743701 93.7796308 49.0640812 113.121434 74.1903326 95.3098664"></polygon>
            </g>
        </g>
    </g>
</svg>