<?xml version="1.0" encoding="UTF-8" standalone="no"?>
<svg width="212px" height="319px" viewBox="0 0 212 319" version="1.1" xmlns="http://www.w3.org/2000/svg" xmlns:xlink="http://www.w3.org/1999/xlink">
    <!-- Generator: Sketch 45.1 (43504) - http://www.bohemiancoding.com/sketch -->
    <title>Group 2</title>
    <desc>Created with Sketch.</desc>
    <defs>
        <linearGradient x1="100.469386%" y1="0.540816784%" x2="2.04591788%" y2="99.9387741%" id="linearGradient-1">
            <stop stop-color="#1EB6D5" offset="0%"></stop>
            <stop stop-color="#7B6DD7" offset="100%"></stop>
        </linearGradient>
        <polygon id="path-2" points="7.59229286e-05 0.393833994 117.07134 0.393833994 117.07134 264.224784 7.59229286e-05 264.224784"></polygon>
        <polygon id="path-4" points="0.0016155289 0 74.3863941 0 74.3863941 318.453275 0.0016155289 318.453275"></polygon>
    </defs>
    <g id="Mobile" stroke="none" stroke-width="1" fill="none" fill-rule="evenodd">
        <g id="Intro-big" transform="translate(0.000000, -2327.000000)">
            <g id="Group-2" transform="translate(-1.000000, 2327.000000)">
                <g id="Group" transform="translate(119.000000, 32.000000)">
                    <path d="M59.068523,38.9012562 C53.5408442,39.5682833 42.5233475,39.4866682 42.5233475,39.4866682 C45.5522126,36.4573371 45.7203146,31.4259168 45.8884166,29.5789971 C46.0565186,27.7315736 45.7203146,24.5410274 45.0474017,21.5182456 C45.3846154,21.4567824 45.7097136,21.3902812 46.0176482,21.3217648 C46.9969812,22.4941004 49.3342555,23.8462914 54.3046231,25.1994901 C59.8575424,26.710881 60.8671641,31.4969521 71.4681919,33.2602415 C68.4393268,34.015937 65.8642867,38.0815785 59.068523,38.9012562 M73.9922461,21.9248098 C69.4489485,20.1615204 68.4393268,20.1615204 66.167678,20.9172159 C63.8960292,21.6729113 62.634002,19.1539265 53.0425959,19.405825 C50.3802235,19.475349 48.5760296,19.5262324 47.3715509,19.5897109 L44.8787949,16.984073 C44.8787949,16.984073 44.7106929,15.976479 45.5522126,14.1290556 C46.3932275,12.2821359 49.4685351,11.0730232 49.7593062,7.91572758 C50.096015,4.25564262 49.5069008,2.62585944 46.1413268,1.11446854 C42.7757529,-0.396922356 36.7180228,0.610671575 33.1843468,2.28982686 C29.6506709,3.96948595 16.394338,13.0942566 15.0949549,16.984073 C13.5805224,21.5182456 21.2369885,20.5106517 21.2369885,20.5106517 C21.2369885,20.5106517 21.9099014,22.0220426 22.0785082,24.3727593 C21.5736973,24.5405236 20.1430634,23.9530964 20.4797722,27.2277767 C20.635254,28.7406789 22.4990156,32.0979819 23.1724333,31.4259168 C23.3405353,32.0974781 23.3405353,35.1207637 23.0038265,37.303716 C22.6676224,39.487172 8.4905146,46.1171401 6.3450685,47.0436227 C4.20063202,47.9701053 -3.07823559,71.4556085 1.46506204,94.5688057 C2.54333801,100.054651 7.85950104,105.31681 8.19620988,109.528049 C8.5324139,113.739792 9.71064242,119.926418 9.37393359,122.445403 C9.03772956,124.964388 9.37393359,168.123163 9.03722475,171.649741 C8.70051592,175.17632 7.52279221,205.572406 7.85950104,212.625564 C8.19620988,219.678721 9.37393359,224.632557 9.37393359,224.632557 C9.37393359,224.632557 9.87874443,227.990867 11.393177,229.16673 C12.9076095,230.342592 14.085838,230.509852 15.2635617,230.845885 C16.1045766,232.693308 20.6478742,233.785036 25.6959827,234.92261 C28.8828536,235.641024 32.2585237,234.624362 32.2585237,234.624362 C32.2585237,234.624362 32.4271306,232.945207 31.7537129,232.945207 C31.7537129,231.097783 30.2392803,229.418628 29.0615566,227.235676 C27.8838329,225.052724 28.0519349,222.701503 27.8838329,219.846486 C27.7152261,216.991468 26.3694004,211.281937 25.1916767,206.243968 C24.013953,201.205998 25.6964875,200.03064 26.7061092,197.343387 C27.7157309,194.656134 29.2301635,190.458497 29.5663675,185.588292 C29.9030763,180.718087 33.6048543,169.466789 33.6048543,169.466789 C33.6048543,169.466789 35.4559956,183.40534 35.2878936,187.099683 C35.1197916,190.794026 34.9511848,204.22878 35.9608065,206.411732 C36.9704282,208.594684 36.8023262,215.144549 36.8023262,215.144549 C36.8023262,215.144549 36.5494159,222.365471 38.2324553,223.540829 C39.9149899,224.716187 43.7853746,226.059814 43.7853746,226.059814 L44.2901855,224.884455 C44.2901855,224.884455 53.2086787,228.975791 56.9947601,229.250864 C63.346795,229.712342 64.9874302,228.452849 64.9874302,228.452849 C64.9874302,228.452849 64.9000979,225.331323 62.463376,224.674372 C57.7938756,223.41488 54.7811645,219.636402 54.7811645,219.636402 C54.7811645,219.636402 54.9755167,215.648346 53.797793,212.121767 C52.6200693,208.595188 52.6195644,198.350981 53.1243753,190.626262 C53.6291861,182.901543 54.4151766,181.789663 56.1532404,178.36737 C59.3083082,172.153538 58.5086878,131.094086 58.1724838,123.537131 C58.1724838,123.537131 68.1122094,108.974376 68.2283159,99.6067753 C68.3954082,86.08688 65.649742,73.7831505 62.4734722,64.4195801 C74.8317465,57.0414735 93.9332842,46.2521577 93.9322746,37.0387188 C93.9322746,32.4974929 78.5355437,23.6880992 73.9922461,21.9248098 Z" id="Fill-1" fill="url(#linearGradient-1)"></path>
                    <path d="M17.3245025,121.478919 L17.3245025,136.928861 C17.3245025,138.276517 20.8581784,138.156614 20.8581784,136.928861 L20.8581784,121.478919 C20.8581784,121.478919 19.3437459,122.822042 17.3245025,121.478919" id="Fill-6" fill="#FFFFFF"></path>
                    <path d="M17.3245025,147.508597 L17.3245025,162.958538 C17.3245025,164.306195 20.8581784,164.186292 20.8581784,162.958538 L20.8581784,147.508597 C20.8581784,147.508597 19.3437459,148.85172 17.3245025,147.508597" id="Fill-8" fill="#FFFFFF"></path>
                </g>
                <g id="Page-1" transform="translate(49.000000, 17.000000)">
                    <g id="Group-3" transform="translate(0.000000, 0.162429)">
                        <mask id="mask-3" fill="white">
                            <use xlink:href="#path-2"></use>
                        </mask>
                        <g id="Clip-2"></g>
                        <path d="M116.291246,91.5503277 C114.620898,90.6230378 112.764583,90.8082733 111.094234,91.1793005 C109.423886,91.5503277 107.382719,90.994065 105.340996,90.994065 C103.299273,90.994065 100.330506,92.1060342 99.0309749,93.0333241 C95.318903,90.4378023 89.380256,88.0269597 86.78175,84.6893835 C84.183244,81.3518073 81.7707034,78.7562855 81.7707034,78.7562855 C81.7707034,78.7562855 92.163614,68.5577651 96.4324689,64.6639262 C100.701324,60.7700873 111.279643,50.9431503 111.651017,49.8306249 C112.022392,48.7180995 110.723417,46.3078132 109.053068,45.5657588 C107.382719,44.8242606 107.011345,45.5657588 103.670647,48.7180995 C100.32995,51.869884 77.5018485,73.378894 77.5018485,73.378894 C77.5018485,73.378894 76.7596568,63.9218717 75.089308,60.2138245 C73.4189591,56.5057774 72.4913587,52.9824094 72.8621762,50.7573586 C73.2329936,48.5323078 75.2747167,42.9696807 75.2747167,42.9696807 L62.3295131,38.9367761 C62.3295131,38.9367761 61.7181654,36.8274279 63.2342854,37.4765865 C65.6702108,38.5195791 67.8277447,37.1289223 68.0365383,34.6257402 C68.1595874,33.1477502 67.6879922,32.0001802 68.4541255,31.6358281 C69.9156808,30.9404997 69.1501042,29.8051676 69.1501042,29.8051676 C69.1501042,29.8051676 70.1706874,29.7122717 70.2636701,28.9707735 C70.3566529,28.2287191 69.7993132,27.3948813 70.2636701,27.023854 C70.7280271,26.6528268 72.3516062,27.5333907 72.9340012,25.7522375 C73.1689636,25.0352149 72.4908019,23.8715133 72.3053932,22.9442234 C72.1199845,22.0174897 71.7480535,20.4415975 71.934019,19.7924389 C72.1199845,19.1432803 72.6767675,18.6799135 73.1405677,17.8455194 C73.6043679,17.0111254 73.3048186,15.6566257 73.4189591,12.7462592 C73.7435636,4.44848847 63.7014263,1.49528977 57.2722535,0.508479738 C52.8697707,-0.16793571 49.2913267,2.27016372 47.4355691,4.58755415 C45.5798115,6.90550083 44.0948714,11.4479421 43.9094626,16.9182295 C43.7240539,22.3879607 42.4245225,25.5403014 42.4245225,25.5403014 C42.4245225,25.5403014 41.9601655,25.4284926 41.1717609,26.4208653 C41.1717609,26.4208653 39.0838248,29.0631131 38.2486504,30.0365729 C37.4134759,31.0100326 32.6808208,31.9834923 29.6185146,32.9569521 C26.5562084,33.9304118 21.962749,33.5132148 18.3436598,36.433594 C14.7245706,39.3539731 11.1054814,46.5853883 10.8270899,48.8104391 C10.5486985,51.0354899 5.9552391,62.577941 4.98086894,65.2201889 C4.00649877,67.8624367 0.814462103,75.6517834 0.109018102,79.8220849 C-1.53015091,89.5105124 15.8381365,96.927163 17.9260726,98.8740825 C17.7746276,100.991775 17.6242962,103.475488 17.5257456,105.992576 C16.3158563,111.461751 14.8053041,118.43506 15.0831388,121.071189 C15.5369169,125.369988 18.0246232,144.141073 17.5741858,171.959214 C17.1204077,199.777356 18.2523474,211.992885 19.1571197,216.287789 C20.0641191,220.586031 19.3837304,230.468038 19.3519937,232.199127 C19.1264966,244.430788 19.8748129,249.065013 21.5451618,254.62764 C21.69605,255.129389 25.6358461,255.337987 26.0122314,255.740165 C38.2614564,268.812339 50.4360724,262.883691 50.4360724,262.883691 C50.4360724,262.883691 50.9939689,261.812329 50.4360724,261.024661 C50.0875263,260.531812 50.7612337,260.051201 50.3286133,258.811848 C49.2278534,255.659507 44.6828342,256.110636 40.2285705,248.972117 C40.1806872,239.161311 42.4245225,228.205161 42.4245225,228.205161 L46.8025069,172.82309 C48.6142786,181.64486 55.0067037,244.274478 55.0067037,244.274478 L55.0067037,246.247542 C55.0067037,247.164263 55.5016837,248.362453 57.9710161,248.996592 C60.4386782,249.631288 64.1780325,250.338298 64.1780325,250.338298 C64.1780325,250.338298 66.7481426,248.417523 68.1607009,250.038472 C69.5704754,251.658866 75.0542307,254.150922 81.4032267,255.137732 C87.7527795,256.125655 91.4921338,254.505818 92.1975778,253.516227 C92.9046921,252.530529 91.7048249,251.191049 91.7048249,251.191049 C91.7048249,251.191049 91.4921338,249.285849 90.2928233,248.369684 C89.0951832,247.452963 83.2383833,244.000797 81.8286088,243.293787 C80.4160505,242.590115 76.8765813,238.917668 76.8765813,238.917668 C76.8765813,238.917668 74.8476642,236.190869 74.168389,235.062212 C73.4896706,233.927436 73.8209564,150.69941 70.5454023,124.57787 C70.476918,124.033288 70.5515269,123.022003 70.4707934,121.785431 C75.2880795,124.374277 79.7289803,125.852824 79.7289803,125.852824 C79.7289803,125.852824 79.5051536,108.867342 79.5786489,99.707364 L90.4559607,104.900633 C90.4559607,104.900633 93.6864154,102.937025 96.0616515,100.343172 C97.0510548,100.923911 98.0415716,101.59977 99.0309749,102.48979 C100.886733,104.158578 102.74249,103.788107 104.22743,103.231844 C105.71237,102.675582 106.639971,102.675582 108.124911,102.675582 C109.609851,102.675582 109.980668,101.747736 111.094234,101.377265 C112.2078,101.006794 112.950549,100.264739 114.064115,99.5232411 C115.177681,98.7817429 115.177124,98.3639896 114.991715,96.1623018 C114.620898,93.960614 113.692184,93.4049076 113.321366,94.3316412 C112.950549,95.2583749 112.764583,97.4834257 112.2078,97.4834257 C111.651017,97.4834257 110.908826,94.7021122 110.908826,94.7021122 L111.651017,93.7753785 C111.651017,93.7753785 113.505105,93.0333241 115.083584,93.4043513 C116.662064,93.7753785 117.961595,92.4776176 116.291246,91.5503277" id="Fill-1" fill="url(#linearGradient-1)" mask="url(#mask-3)"></path>
                    </g>
                    <path d="M23.5197368,242.273045 C24.0731791,235.364818 24.3203907,229.761584 23.7079295,214.878219 C23.4696264,209.081962 23.4751942,196.784662 23.9239613,187.15353 C24.3821936,177.313243 24.1700593,174.747759 23.7079295,169.960006 C23.4067099,166.841041 23.378314,154.382981 23.716838,146.628679 C23.8716237,143.081392 23.9941159,140.278941 23.9506868,138.992305 C23.8872136,137.08043 23.4195159,134.754696 22.9239791,132.292121 C22.3287781,129.333916 21.7135329,126.274471 21.8616372,124.056095 C21.9986058,122.004042 23.0687427,118.272632 24.0854283,115.107497 C23.593789,114.684737 23.1444651,114.269209 22.7302186,113.862025 C21.6227773,117.248552 20.3544258,121.55625 20.1951858,123.945399 C20.0320484,126.385167 20.6695649,129.555308 21.2864804,132.621428 C21.7680977,135.013914 22.2224326,137.273453 22.2814516,139.047931 C22.3226535,140.270597 22.1951502,143.183188 22.0476027,146.556365 C21.6834667,154.908093 21.1595339,165.141658 21.6378105,170.701504 C21.8115267,172.721294 22.6277706,179.07882 22.2552828,187.075653 C21.803175,196.790225 21.9885837,207.725237 22.280338,213.697274 C23.0331085,229.109088 23.1032632,235.360368 22.5603998,242.140654 C21.9974922,249.171259 23.763051,262.42533 23.8387735,262.670642 L24.730183,262.180575 C24.7123659,262.123836 22.9818845,248.989917 23.5197368,242.273045" id="Fill-4" fill="#FFFFFF"></path>
                    <path d="M25.9716976,243.018381 C26.5251399,236.110155 27.3619846,226.428959 26.958317,212.97797 C26.7846007,207.179488 27.0145521,197.529999 27.4627624,187.898866 C27.9209947,178.058579 27.6821348,172.029248 27.4326961,169.808647 C26.865891,164.770576 26.9171151,155.128318 27.2556391,147.374016 C27.4104248,143.826728 27.532917,141.024277 27.4900447,139.737641 C27.4260147,137.825766 26.958317,135.500032 26.4627802,133.037457 C25.8675792,130.079252 25.252334,127.019807 25.4004383,124.801431 C25.514022,123.097043 26.2729172,120.233402 27.1086484,117.497702 C26.6053166,117.138913 26.1326079,116.781792 25.6877383,116.429122 C24.757354,119.42404 23.8659445,122.714334 23.7339869,124.690735 C23.5708495,127.130503 24.208366,130.300645 24.8252815,133.366765 C25.3068988,135.75925 25.7612337,138.01879 25.8208094,139.793268 C25.8614546,141.015933 25.4394131,150.674322 25.5869606,147.301702 C25.7718125,143.069099 25.3380786,165.341857 25.8542164,170.354897 C26.2138982,173.848783 26.1665716,179.824157 25.7940838,187.820989 C25.3419761,197.535561 24.8380875,206.541455 25.1025594,212.514603 C25.7150207,226.328275 25.1493292,236.105705 24.6064658,242.885991 C24.0435582,249.916595 25.809117,263.170667 25.8848395,263.415978 L27.481693,262.925911 C27.4638759,262.869172 25.4338453,249.735253 25.9716976,243.018381" id="Fill-6" fill="#FFFFFF"></path>
                </g>
                <g id="Page-1-Copy-2" transform="translate(37.500000, 159.500000) scale(-1, 1) translate(-37.500000, -159.500000) ">
                    <mask id="mask-5" fill="white">
                        <use xlink:href="#path-4"></use>
                    </mask>
                    <g id="Clip-2"></g>
                    <path d="M73.9260673,58.4525055 C75.0832969,51.1830657 74.2567043,43.0888361 69.1567845,41.9817989 C64.0537455,40.8778978 61.1747081,41.8971247 61.1747081,41.8971247 C61.1747081,41.8971247 57.1602758,36.6755469 56.7984467,36.5061984 C56.4366175,36.3337139 55.6661709,37.2776748 55.6661709,37.2776748 C55.6661709,37.2776748 55.6630517,37.2243614 55.6412171,37.1522315 C55.6349787,37.1585036 55.625621,37.1647758 55.6193826,37.171048 C55.5694751,36.9389778 55.3604876,36.6567304 54.8957243,36.5218788 C54.3436229,36.3588025 53.8195944,36.4121159 53.59813,36.5156067 C53.6043684,36.5124706 53.6106069,36.5061984 53.6168453,36.5030623 C53.5638186,36.5187428 53.5295072,36.5312871 53.5295072,36.5312871 C53.5295072,36.5312871 52.1976015,31.7299444 52.4970464,31.0368701 C52.7964912,30.3469319 53.3174005,28.9670555 53.9880321,27.7377111 C54.661783,26.5083666 55.6630517,27.6499008 56.9450499,26.4142841 C58.227048,25.1818036 57.9057687,23.3503313 58.4297972,22.277791 C58.9538256,21.2021146 58.7885071,19.6748423 58.6325463,18.9127742 C58.4734662,18.14757 58.0929217,17.8465061 58.2395249,17.2318339 C58.3861281,16.6202977 59.3749199,16.6108895 58.6762153,15.0898894 C57.9806299,13.5657531 57.7466886,13.1110211 57.1353221,12.7346912 C56.5270748,12.3552252 56.3711139,11.9757592 55.610025,11.9820313 C54.8520552,11.9883035 54.8582937,12.5998397 54.3810535,10.4610312 C53.9100517,8.32849495 51.9792563,4.75022454 50.6036816,3.91916261 C49.2281069,3.09123676 46.6235607,0.108822071 40.7719096,-0.000940824824 C37.069399,-0.0636624798 33.4604649,2.46402021 31.3830663,2.94697696 C29.3025486,3.4299337 26.6980024,5.77572359 26.5513992,6.78554224 C26.4079152,7.79849697 26.1084703,8.8835816 26.1084703,8.8835816 C26.1084703,8.8835816 25.1851821,9.36026617 24.8108761,10.8342251 C24.4396892,12.31132 24.608127,14.4814893 24.9262871,15.2561017 C25.241328,16.0275781 25.4721501,16.1812461 25.4721501,16.1812461 C25.4721501,16.1812461 25.4066465,17.8120092 25.5688458,18.6618876 C25.7310451,19.5149021 25.7497604,20.4619991 25.5875611,20.8320569 C25.428481,21.2021146 25.1883013,21.6568466 25.2319704,22.0645374 C25.2725202,22.4753642 25.7684757,22.7168426 25.7684757,22.7168426 C25.7684757,22.7168426 25.9369134,23.7047087 26.2737888,24.400919 C26.6044258,25.0939933 26.7728636,25.5863583 26.7323137,25.9971851 C26.6948831,26.408012 26.304981,28.7130328 27.4310184,31.1685856 C28.5508173,33.6241384 30.2102407,36.6504582 30.8309649,37.5473779 C31.4516891,38.4442976 32.7773563,40.7367741 33.4791802,41.79677 C34.1841232,42.8599021 35.288326,43.3459949 36.7574773,42.9633928 C38.2266285,42.5807907 38.5479078,42.3738092 38.5479078,42.3738092 L39.1561552,43.424397 C39.1811089,43.4745743 39.2123011,43.5467042 39.240374,43.6125619 C39.1530359,43.6846918 35.7874008,46.4381725 34.5085218,47.9497644 C33.2140467,49.4833088 32.8958866,50.3896367 32.9832247,51.1673853 C33.0050592,51.3555502 33.0144168,51.5876204 33.0175361,51.8259626 C33.0237745,52.5629421 32.9582709,53.3877319 32.9582709,53.3877319 C32.9582709,53.3877319 32.8834097,53.7985587 31.5390272,54.4257752 C30.1946446,55.0529918 29.5458475,55.592398 28.1203653,56.2196146 C26.6948831,56.8468311 26.2925041,57.1792559 24.9075718,57.8064724 C23.5226394,58.433689 21.7727587,59.5156375 20.9773583,62.1907161 C20.1850772,64.8689308 19.5019687,68.0677352 15.7339545,72.455115 C15.7339545,72.455115 14.7607588,72.5147005 14.5205791,72.8283088 C14.2803994,73.1419171 13.9123318,73.8067666 13.9622392,74.7193667 C13.9622392,74.7193667 13.1761966,75.6758719 12.895467,76.2121421 C12.6147375,76.7452761 11.9846557,77.9024907 11.8286948,78.0592948 C11.6758532,78.216099 10.7806379,78.9311258 10.7806379,78.9311258 C10.7806379,78.9311258 9.12433364,78.6802392 8.81553116,78.9029011 C8.50984789,79.128699 7.71756676,79.4893486 7.94526961,80.1761507 C8.16985323,80.8598167 8.59406675,81.3208209 8.59406675,81.3208209 L7.97958099,81.8602271 C7.97958099,81.8602271 7.40564506,81.7316477 6.94400094,82.0640725 C6.48547604,82.4027694 6.11428921,82.917087 5.96144758,83.0927076 C5.80860594,83.2714643 5.83355968,83.4941262 5.83355968,83.4941262 C5.83355968,83.4941262 5.13485507,84.5635304 4.21156683,84.92418 C3.28827859,85.2879655 0.830335572,86.5957121 0.484102482,87.3044668 C0.137869393,88.0194936 0.296949461,90.3119701 0.153465478,91.2308424 C0.00686227745,92.1497146 -0.130383272,93.984323 0.23456512,95.5617726 C0.602632729,97.1360862 0.521533087,99.2811668 1.84408111,99.9805132 C3.16662912,100.682996 4.33321629,101.131456 5.75869847,101.68027 C7.18418065,102.229085 8.55663614,103.035058 9.87294573,102.668136 C11.1892553,102.298078 11.6914493,102.091097 11.6914493,102.091097 L12.349604,101.98447 C12.349604,101.98447 11.4543888,103.928841 11.9222713,105.452978 C12.3870346,106.977114 13.3664688,108.80545 15.0976342,109.401306 C16.8225613,110.000298 16.0178033,110.665147 15.9179883,111.025797 C15.8212926,111.38331 14.3677375,119.850733 14.0870079,122.604214 C13.8062784,125.357695 10.5716503,139.448115 14.8325008,139.410482 C14.8325008,139.410482 14.4737908,170.598825 15.1724955,181.600203 C15.8680808,192.595309 17.5711733,214.902265 17.5711733,214.902265 C17.5711733,214.902265 20.3160843,216.407585 26.0991127,216.97208 C26.0991127,216.97208 25.4846269,225.307788 25.7747141,233.329888 C26.0679205,241.351987 28.5258635,253.789692 29.0124614,257.527902 C29.4990592,261.272385 30.2882212,264.627993 30.1509756,266.769938 C30.0168493,268.908746 29.7922656,269.216083 29.667497,272.734767 C29.5427283,276.250316 28.2108226,280.540477 27.6899134,281.92349 C27.1690041,283.30023 25.9119597,288.051396 24.8607835,289.051806 C23.803369,290.055352 21.6791822,290.989905 20.3192035,291.996588 C18.9623441,292.996998 16.3141289,294.778293 15.4812979,295.016635 C14.6453478,295.251842 11.8411717,295.960596 12.3090542,297.870471 C12.780056,299.774073 21.9817462,300.081409 26.6886447,299.353838 C31.3955432,298.629403 31.5483848,298.629403 34.6863172,292.027948 C37.8273687,285.432766 41.2366729,283.648335 42.0757423,284.404131 C42.9210501,285.159927 43.1768259,288.750742 43.1861836,289.898548 C43.192422,291.043218 43.1518722,295.323971 43.1518722,295.323971 L43.7663579,295.929235 C43.7663579,295.929235 44.8300109,295.844561 44.7395536,294.088355 C44.6459771,292.332148 44.5243277,286.292053 45.4944042,284.146973 C46.4644806,281.998756 48.8756354,279.226459 47.8618899,275.795584 C46.8419059,272.36471 43.781954,269.639454 43.781954,269.639454 C43.781954,269.639454 41.610979,264.229711 42.1849149,250.926448 C42.2317031,247.181965 42.7526124,245.726823 43.4138864,242.816538 C44.0751604,239.906253 44.8175341,237.990107 43.4575554,229.899013 C42.1038152,221.80792 41.6296943,219.518579 41.6296943,219.518579 L43.1487529,219.355503 C43.1487529,219.355503 45.793849,227.35565 46.2118241,231.865337 C46.6297991,236.368752 46.3085198,243.939256 48.510687,252.861411 C50.7128542,261.786703 51.5768774,265.521777 51.7702688,270.643 C51.9636603,275.764223 50.9374379,280.204916 50.9467955,281.656923 C50.9592724,283.108929 51.9823756,287.45554 51.916872,288.83228 C51.8544877,290.205884 51.4209165,293.495635 51.2899094,295.715982 C51.1557831,297.933192 51.3304592,300.761939 50.8875304,302.446015 C50.4477208,304.130092 47.8962013,308.658595 47.3815305,310.957344 C46.8699789,313.252956 45.463212,317.62152 48.2018845,318.135837 C50.9436763,318.647019 53.9069325,318.775598 57.996226,316.680695 C62.0824003,314.582656 64.9551992,312.415622 65.0175835,310.430482 C65.0737294,308.442206 65.2172134,307.143867 65.2172134,307.143867 L66.2808664,307.056057 C66.2808664,307.056057 66.7300337,306.519787 66.6520532,305.832985 C66.5709536,305.143046 65.9315141,301.326434 66.361966,298.344019 C66.792418,295.358468 68.7294518,290.221565 68.5578948,287.853822 C68.3863379,285.489216 65.9283949,282.296684 64.7742846,280.625152 C63.6201743,278.956756 62.1634999,277.056289 62.3693683,274.760677 C62.5783558,272.465064 63.4548558,267.644905 65.3669358,250.430947 C67.2790159,233.223261 62.8559661,222.021173 60.3200427,218.373909 C60.3200427,218.373909 60.0642669,214.933626 59.7242722,201.181903 C59.3842776,187.427045 58.6263078,178.034477 60.1328896,167.243216 C61.633233,156.520949 63.1398149,146.479212 61.9732277,138.262675 C61.9669893,138.212498 61.9576316,138.162321 61.9513932,138.109007 C61.9513932,138.109007 67.1854393,136.691498 67.1573664,133.254351 C67.1261742,129.814068 58.2644787,105.352623 58.2644787,105.352623 L56.8545926,100.322346 C56.8545926,100.322346 57.2819253,100.184359 57.5844893,99.9271998 C57.8839342,99.670041 57.9057687,99.2372616 57.9057687,99.2372616 C57.9057687,99.2372616 58.5171352,99.6386802 59.2719858,99.1243626 C60.0237171,98.6100451 58.6387847,95.9788716 58.585758,95.7248489 C58.5327313,95.4708262 57.9400801,93.8243828 57.9400801,93.8243828 C57.9400801,93.8243828 59.0099715,94.9063313 59.6431726,95.2826613 C60.2794928,95.6589912 60.9064555,95.1728984 60.9064555,95.1728984 C60.9064555,95.1728984 61.2869999,95.2701169 61.561491,94.9376922 C61.8359821,94.6052674 61.3961725,93.33829 61.0655355,92.808292 C60.7317793,92.2751579 59.7866566,90.9360506 59.7866566,90.9360506 C59.7866566,90.9360506 59.1285018,89.9074154 58.8976797,89.6063515 C58.6668576,89.3021515 62.5752366,83.8453675 66.031329,78.4638495 C69.4811831,73.0854676 72.7688378,65.7219453 73.9260673,58.4525055" id="Fill-1" fill="url(#linearGradient-1)" mask="url(#mask-5)"></path>
                </g>
            </g>
        </g>
    </g>
</svg>