<?xml version="1.0" encoding="UTF-8" standalone="no"?>
<svg width="166px" height="247px" viewBox="0 0 166 247" version="1.1" xmlns="http://www.w3.org/2000/svg" xmlns:xlink="http://www.w3.org/1999/xlink">
    <!-- Generator: Sketch 45.1 (43504) - http://www.bohemiancoding.com/sketch -->
    <title>Page 1</title>
    <desc>Created with Sketch.</desc>
    <defs>
        <linearGradient x1="100.469386%" y1="0.540816784%" x2="5.02692378%" y2="96.9282533%" id="linearGradient-1">
            <stop stop-color="#1ED5BD" offset="0%"></stop>
            <stop stop-color="#5E4BBA" offset="100%"></stop>
        </linearGradient>
        <linearGradient x1="0.508211097%" y1="99.4917889%" x2="100%" y2="5.55111512e-15%" id="linearGradient-2">
            <stop stop-color="#FAAE61" offset="0%"></stop>
            <stop stop-color="#E8B90E" offset="100%"></stop>
        </linearGradient>
    </defs>
    <g id="Mobile" stroke="none" stroke-width="1" fill="none" fill-rule="evenodd">
        <g id="Intro-big" transform="translate(-89.000000, -1732.000000)">
            <g id="Page-1" transform="translate(89.000000, 1732.000000)">
                <path d="M153.719947,60.5336272 C153.748387,60.3152395 153.776828,60.0968518 153.804108,59.879048 C154.136108,57.2496366 154.461143,54.5811024 153.872017,51.9627856 C153.855765,51.8932986 153.829646,51.8325704 153.795982,51.7800173 C153.693828,51.1791591 153.480814,50.5946508 152.99094,50.2016697 C152.7698,50.0259085 152.527185,49.9377359 152.250905,49.8974452 C151.92529,49.8489794 151.761611,49.7578872 151.529443,49.5173104 C151.015192,48.9830196 150.553758,48.5590905 149.778317,48.4796768 C149.260003,48.4277076 148.780576,48.4224522 148.303471,48.1877147 C147.868157,47.9739983 147.492625,47.6592631 147.132185,47.3386887 C146.413625,46.6992915 145.744401,45.9758092 144.88538,45.5238518 C144.694422,45.4228329 144.502303,45.3463388 144.310765,45.290866 C144.255625,45.1577312 144.191779,45.0286839 144.116905,44.904308 C142.873646,42.8331284 140.152639,44.1317761 138.469422,44.7028541 C137.244737,45.1180243 135.982905,45.4666272 134.699597,45.6342135 C133.581129,45.7807785 132.414485,45.5822442 131.331422,45.3083837 C130.335422,45.0572962 129.46131,44.7355539 128.736947,43.9933861 C128.374185,43.623178 128.018387,43.1747241 127.601066,42.8261213 C126.866835,41.9911095 125.754171,42.0127147 124.713478,42.1674546 C124.184136,42.2457005 123.65073,42.3910976 123.163178,42.6153246 C122.59959,42.8751709 122.232185,43.3569085 121.578052,43.3294641 C121.016786,43.3043553 120.575087,43.1250905 119.99931,43.2477147 C119.505954,43.352821 119.035814,43.7043435 118.732835,44.0979085 C118.11701,44.8949652 118.039234,45.923256 117.944625,46.8925704 C117.816933,48.208152 117.673569,49.5441709 117.417024,50.8521615 C111.988359,67.7702017 94.5450098,105.360332 66.4950727,107.335748 C15.6694713,110.915204 -5.47695524,167.187994 1.19786993,163.97641 C29.2553524,150.476663 25.0229329,193.042996 47.9216462,194.9244 C93.8792685,198.700639 32.1986601,218.845445 54.8866811,225.580429 C72.5894783,230.835748 79.3182825,226.923455 81.5859818,236.091067 C87.3501287,259.399575 101.610457,239.302651 108.156429,215.933414 C112.077744,201.934996 108.632954,189.828492 129.097968,161.492396 C147.662688,135.786878 157.484548,92.0480243 153.719947,60.5336272" id="Fill-1" fill="url(#linearGradient-1)"></path>
                <path d="M119.667891,165.80456 C117.173828,164.632624 114.054073,166.22265 111.637206,166.279874 C109.578457,166.330092 107.275933,165.553473 105.614192,164.735395 C103.041772,163.47003 99.5052755,161.29608 97.7013315,159.15191 C95.0081846,155.947333 94.5299189,151.452867 91.0891916,149.053522 C88.8185902,147.469335 86.2246951,146.042224 82.5854643,145.607785 C84.6117091,143.538941 87.9253245,143.259241 90.6161497,142.755314 C93.6772825,142.183068 96.5294643,141.596808 99.3555273,140.73552 C105.106905,138.984915 109.52738,136.403969 113.998933,133.250778 C114.099345,133.229172 114.110954,133.297491 114.117338,133.370482 C115.875429,140.492023 117.768758,147.848886 118.722387,155.824709 C119.023625,158.33208 120.41373,160.305161 120.96687,162.597648 C121.983765,166.808326 122.197359,166.994014 119.667891,165.80456 M163.912695,102.425995 C164.530262,99.8584797 165.725345,97.069657 165.670206,94.5780518 C165.59359,91.0622433 163.60159,87.9668603 163.253919,85.4040163 C162.780297,81.924995 162.548129,78.6415884 161.935206,75.4562811 C161.52601,73.326709 160.821961,71.3530447 160.340213,69.358943 C160.359366,69.367118 160.379101,69.3741251 160.397094,69.3770447 C160.357625,69.3093095 160.32222,69.2339832 160.292618,69.1551534 C160.071478,68.2103638 159.904898,67.2585671 159.847436,66.2822456 C159.749926,64.6203969 160.213101,62.7658532 160.067415,60.976709 C159.92231,59.1875648 159.168345,57.363969 158.419024,55.5608106 C157.631975,53.6630565 157.562905,51.7197563 156.771793,50.1449123 C155.087996,46.797274 151.712856,46.6764017 148.422457,45.392352 C145.85352,44.3903378 143.895765,42.2117161 143.039066,39.865508 C142.29729,37.835787 141.720933,32.4222243 142.04945,29.4757421 C142.374485,26.566047 144.48431,25.3409738 145.78445,23.5080352 C147.680101,20.8359974 150.564206,15.6945435 149.081234,10.6868083 C148.573366,8.97240638 146.357905,6.39379645 145.235954,5.71235674 C143.76401,4.81953641 141.922338,3.09637565 140.29194,2.61814161 C138.579702,2.11479882 136.508185,2.42077518 134.359471,1.84385792 C133.978716,1.74225508 133.597961,1.62547021 133.215464,1.5051818 C132.509094,1.08709196 131.64601,0.861113239 130.745779,0.796297636 C129.913457,0.614697163 129.068947,0.523604965 128.207604,0.628127423 C125.874317,0.910162884 123.448744,3.4788461 125.459898,6.2653331 C124.216059,7.57916288 123.710513,9.63749622 122.713933,11.2006617 C122.070248,11.9369903 122.288485,13.0079076 122.385415,13.737813 C122.500338,14.6031889 120.312157,16.6656097 119.142031,17.9379809 C118.847758,18.2568035 118.442625,19.2605695 119.752632,20.005657 C120.0678,20.1849217 121.173499,20.5230139 121.023751,20.977891 C120.920436,21.2891227 120.645898,21.4806499 120.503695,21.7667728 C120.428821,21.9203449 120.405604,22.0762527 120.409087,22.2339123 C120.410248,22.2601889 120.410248,22.2870494 120.41373,22.3139099 C120.452618,22.6788626 120.609912,22.984839 120.702779,23.3328579 C120.780555,23.6207326 120.487443,23.8858343 120.480478,24.1678697 C120.472352,24.4983709 120.660989,24.7582173 120.719031,25.0729525 C120.851366,25.7935151 120.444492,26.4626924 120.02601,27.0775648 C119.849562,27.446605 119.65222,27.8045506 119.637129,28.1502338 C119.506534,31.2310187 122.302415,32.4899596 125.7948,32.7883449 C124.139443,37.4620754 124.119709,38.3654064 123.583982,38.6246688 C122.9728,38.9189667 118.511695,42.1527397 117.765856,42.6175435 C117.613786,42.7115553 117.468101,42.8055671 117.318933,42.9001629 L122.84859,44.9234608 L108.709569,49.6655104 C100.277234,58.2404395 102.944842,64.6303236 102.944842,64.6303236 C102.944842,64.6303236 102.413178,92.1676121 102.169401,95.6834206 C101.826373,100.61583 103.668045,105.384156 101.900667,108.795442 C100.13329,112.206728 89.7118559,107.335631 64.7631007,132.28847 C64.4049818,132.745683 64.0294503,133.185962 63.6144503,133.58303 C63.1152895,134.060097 62.5813035,134.49512 62.0734364,134.960508 C61.5783385,135.414217 61.1145832,135.888948 60.5887231,136.309957 C60.0651846,136.728047 59.502758,137.151976 59.1260657,137.716631 C59.0006951,137.905822 58.9008629,138.104941 58.8126392,138.310482 C58.1242615,140.821357 57.4300797,143.051948 57.9031217,146.082515 C58.7296392,151.378709 63.9812755,152.931948 67.5874224,155.468515 C69.260772,156.645707 70.7855343,158.124787 72.5471077,159.27103 C76.0807021,161.569941 80.104751,163.189163 84.1206741,165.091588 C90.1848979,167.965664 95.9113175,170.669818 101.716674,173.527543 C103.645989,174.477004 105.267101,175.936815 107.150562,176.853577 C110.006227,178.247404 113.222912,178.80038 116.361241,180.419019 C117.644548,181.080021 118.661443,182.142763 120.258758,183.270905 C121.634933,184.241971 123.754045,185.172163 124.155115,186.122208 C124.537031,187.025539 124.246821,188.224335 124.509751,189.210584 C125.223667,191.883205 127.017164,194.438458 128.171038,196.934151 C130.222241,201.369057 132.615891,204.624435 133.248548,210.597397 C134.404164,221.492841 131.23101,232.056617 131.477688,235.90351 C131.63208,238.314534 134.321164,243.557591 136.201723,244.219761 C138.317352,244.965432 140.364492,242.373392 141.63387,241.012265 C142.915436,239.637123 144.365324,238.064614 145.058926,236.378241 C146.497786,232.88287 144.904534,229.681796 144.586464,226.042196 C144.167982,221.251097 146.631283,217.571205 145.885443,213.922846 C145.392667,211.511822 142.696618,209.792165 142.342562,207.507269 C142.22938,206.77386 142.49231,205.930674 142.342562,205.131281 C142.125485,203.972775 141.493989,202.907113 141.397639,201.804664 C140.798646,194.866475 143.931751,187.12247 141.516045,180.419019 C140.434723,177.419399 138.096213,174.629409 137.382297,171.389213 C136.951045,169.435402 136.992255,166.736503 136.791429,164.141543 C136.601052,161.656361 135.975359,159.202127 135.847087,157.130948 C135.487807,151.303383 137.498961,148.290333 138.445625,143.825064 C139.067835,140.888508 139.626779,137.825241 139.862429,134.676721 C140.328506,128.475444 140.639031,120.075109 139.744604,114.004047 C139.604723,113.052834 139.308129,112.213735 139.057387,111.279456 C138.844373,110.664584 138.637164,110.048543 138.395709,109.443598 C138.218681,108.996896 135.238227,101.657551 134.908548,100.657288 C133.926478,97.671683 133.47201,92.8770801 134.140073,89.3828768 C134.622982,86.8492291 137.506506,82.9182504 139.083506,81.5355175 C139.980255,80.7478035 140.730737,80.7238626 141.719772,79.8771723 C142.433688,79.2669714 143.083178,78.3945884 143.917241,77.6670187 C145.004366,76.7181416 147.901241,73.3862693 148.312758,73.5772125 C148.760262,73.7856735 148.755618,74.9161511 148.861255,75.5666428 C149.554856,79.8368816 150.010485,83.3929809 151.60722,86.2880778 C152.237555,87.429066 153.427415,88.4310801 153.47501,89.9352693 C153.513898,91.1194678 152.75529,92.4852669 152.487136,93.804352 C152.21666,95.1362835 151.934576,96.6702527 152.047178,98.3361889 C152.181255,100.312773 152.964821,101.447338 153.365891,103.088749 C154.062394,105.940052 154.768765,110.38722 154.024667,113.037068 C153.48952,114.942413 151.570653,115.089562 150.069688,116.241061 C149.304695,116.827905 148.797989,118.325087 148.092199,119.336444 C147.301667,120.469257 146.119933,121.286752 146.004429,122.431243 C145.895891,123.508584 146.628961,123.778941 146.774066,125.084596 C146.922653,126.420614 146.3788,127.166286 146.883185,127.847142 C147.508877,128.689161 155.798429,128.8439 156.661513,128.068449 C157.106115,127.667877 157.144422,126.292735 157.540269,125.415681 C158.591989,123.089326 161.241024,120.321525 161.714646,118.009768 C162.210905,115.597577 161.413408,112.700144 161.825506,109.831324 C162.166793,107.460591 163.308478,104.938622 163.912695,102.425995" id="Fill-4" fill="url(#linearGradient-2)"></path>
                <path d="M124.958009,52.7054206 L122.848764,44.9234608 L117.319107,42.9001629 C113.614869,45.2481227 110.815506,47.5248437 108.709743,49.6655104 C108.709743,49.6655104 106.745603,56.87756 107.994666,63.1033615 C113.798862,55.0744017 124.958009,52.7054206 124.958009,52.7054206" id="Fill-6" fill="#FFFFFF"></path>
            </g>
        </g>
    </g>
</svg>